<?xml version="1.0" encoding="UTF-8"?>
<!DOCTYPE svg PUBLIC "-//W3C//DTD SVG 1.1//EN" "http://www.w3.org/Graphics/SVG/1.1/DTD/svg11.dtd">
<!-- Creator: CorelDRAW 2021.5 -->
<svg xmlns="http://www.w3.org/2000/svg" xml:space="preserve" width="13.2292mm" height="13.2292mm" version="1.1" style="shape-rendering:geometricPrecision; text-rendering:geometricPrecision; image-rendering:optimizeQuality; fill-rule:evenodd; clip-rule:evenodd"
viewBox="0 0 449.02 449.02"
 xmlns:xlink="http://www.w3.org/1999/xlink"
 xmlns:xodm="http://www.corel.com/coreldraw/odm/2003">
 <defs>
  <style type="text/css">
   <![CDATA[
    .fil1 {fill:#2B7FFF}
    .fil0 {fill:#2B7FFF;fill-rule:nonzero}
   ]]>
  </style>
 </defs>
 <g id="Camada_x0020_1">
  <metadata id="CorelCorpID_0Corel-Layer"/>
  <path class="fil0" d="M8.28 0l440.74 0 0 449.02 -449.02 0 0 -449.02 8.28 0zm426.25 14.49l-420.05 0 0 420.05 420.05 0 0 -420.05z"/>
  <path class="fil1" d="M67.52 320.61l0 -104.67 51.38 0 0 -150.33 0 -7.61 0 0 262.61 0 0 104.67 -123.7 0 72.31 53.28 0 104.67 -93.24 0 0 62.8 0 7.61 -7.61 0 -102.76 0 -7.61 0 0 -7.61 0 -62.8 -51.38 0 0.01 0zm169.37 -157.95l0 53.28 70.41 0 -70.41 -53.28zm-104.67 53.28l91.34 0 0 -53.28 -91.34 0 0 53.28zm91.34 104.67l-91.34 0 0 57.09 91.34 0 0 -57.09z"/>
 </g>
</svg>
