<?xml version="1.0" encoding="UTF-8"?>
<!DOCTYPE svg PUBLIC "-//W3C//DTD SVG 1.1//EN" "http://www.w3.org/Graphics/SVG/1.1/DTD/svg11.dtd">
<!-- Creator: CorelDRAW 2021.5 -->
<svg xmlns="http://www.w3.org/2000/svg" xml:space="preserve" width="216px" height="216px" version="1.1" style="shape-rendering:geometricPrecision; text-rendering:geometricPrecision; image-rendering:optimizeQuality; fill-rule:evenodd; clip-rule:evenodd"
viewBox="0 0 12.21 12.21"
 xmlns:xlink="http://www.w3.org/1999/xlink"
 xmlns:xodm="http://www.corel.com/coreldraw/odm/2003">
 <defs>
  <style type="text/css">
   <![CDATA[
    .fil1 {fill:#FF6633}
    .fil0 {fill:#FFE11F}
    .fil2 {fill:black;fill-rule:nonzero}
   ]]>
  </style>
 </defs>
 <g id="Camada_x0020_1">
  <metadata id="CorelCorpID_0Corel-Layer"/>
  <rect class="fil0" width="12.21" height="12.21"/>
  <path class="fil1" d="M12.21 11.08l0 0.39 -0.38 0c0,-0.13 0,-0.26 0,-0.39l0.38 0zm0 0.71l0 0.42 -0.4 0c0,-0.14 0,-0.28 0,-0.42l0.4 0zm-12.21 0.42l0 -0.42 0.4 0c0,0.14 0,0.28 0,0.42l-0.4 0zm0 -0.74l0 -0.39 0.38 0c0,0.13 0,0.26 0,0.39l-0.38 0zm0 -0.74l0 -0.36 0.36 0c0,0.12 0,0.24 0,0.36l-0.36 0zm6.37 -6.75c0.04,0 0.07,0 0.1,0 0,0.04 0,0.07 0,0.1 -0.03,0 -0.06,0 -0.1,0 0,-0.03 0,-0.06 0,-0.1zm-0.01 0.71c0.04,0 0.08,0 0.13,0 0,0.04 0,0.09 0,0.13 -0.05,0 -0.09,0 -0.13,0 0,-0.04 0,-0.09 0,-0.13zm-0.01 0.71c0.05,0 0.1,0 0.15,0 0,0.05 0,0.1 0,0.16 -0.05,0 -0.1,0 -0.15,0 0,-0.06 0,-0.11 0,-0.16zm-0.01 0.71c0.06,0 0.12,0 0.18,0 0,0.06 0,0.12 0,0.19 -0.06,0 -0.12,0 -0.18,0 0,-0.07 0,-0.13 0,-0.19zm-0.01 0.71c0.07,0 0.14,0 0.21,0 0,0.07 0,0.14 0,0.21 -0.07,0 -0.14,0 -0.21,0 0,-0.07 0,-0.14 0,-0.21zm-0.02 0.71c0.09,0 0.17,0 0.25,0 0,0.08 0,0.16 0,0.24 -0.08,0 -0.16,0 -0.25,0 0,-0.08 0,-0.16 0,-0.24zm-0.01 0.71c0.09,0 0.19,0 0.28,0 0,0.09 0,0.18 0,0.27 -0.09,0 -0.19,0 -0.28,0 0,-0.09 0,-0.18 0,-0.27zm-0.01 0.71c0.1,0 0.2,0 0.3,0 0,0.1 0,0.2 0,0.3 -0.1,0 -0.2,0 -0.3,0 0,-0.1 0,-0.2 0,-0.3zm-0.01 0.71c0.11,0 0.22,0 0.33,0 0,0.11 0,0.22 0,0.33 -0.11,0 -0.22,0 -0.33,0 0,-0.11 0,-0.22 0,-0.33zm-0.01 0.71c0.12,0 0.24,0 0.36,0 0,0.12 0,0.24 0,0.36 -0.12,0 -0.24,0 -0.36,0 0,-0.12 0,-0.24 0,-0.36zm-0.02 0.71c0.14,0 0.27,0 0.4,0 0,0.13 0,0.26 0,0.39 -0.13,0 -0.26,0 -0.4,0 0,-0.13 0,-0.26 0,-0.39zm-0.01 0.71c0.14,0 0.29,0 0.43,0 0,0.14 0,0.28 0,0.42 -0.14,0 -0.29,0 -0.43,0 0,-0.14 0,-0.28 0,-0.42zm0.15 -8.52l0.06 0 0 0.07 -0.06 0 0 -0.07zm0.68 0.71c0.03,0 0.06,0 0.09,0 0,0.04 0,0.07 0,0.1 -0.03,0 -0.06,0 -0.09,0 0,-0.03 0,-0.06 0,-0.1zm-0.01 0.71c0.04,0 0.08,0 0.12,0 0,0.04 0,0.09 0,0.13 -0.04,0 -0.08,0 -0.12,0 0,-0.04 0,-0.09 0,-0.13zm-0.01 0.71c0.05,0 0.1,0 0.15,0 0,0.05 0,0.1 0,0.16 -0.05,0 -0.1,0 -0.15,0 0,-0.06 0,-0.11 0,-0.16zm-0.02 0.71c0.07,0 0.13,0 0.19,0 0,0.06 0,0.12 0,0.19 -0.06,0 -0.12,0 -0.19,0 0,-0.07 0,-0.13 0,-0.19zm-0.01 0.71c0.07,0 0.15,0 0.22,0 0,0.07 0,0.14 0,0.21 -0.07,0 -0.15,0 -0.22,0 0,-0.07 0,-0.14 0,-0.21zm-0.01 0.71c0.08,0 0.16,0 0.24,0 0,0.08 0,0.16 0,0.24 -0.08,0 -0.16,0 -0.24,0 0,-0.08 0,-0.16 0,-0.24zm-0.01 0.71c0.09,0 0.18,0 0.27,0 0,0.09 0,0.18 0,0.27 -0.09,0 -0.18,0 -0.27,0 0,-0.09 0,-0.18 0,-0.27zm-0.01 0.71c0.1,0 0.2,0 0.3,0 0,0.1 0,0.2 0,0.3 -0.1,0 -0.2,0 -0.3,0 0,-0.1 0,-0.2 0,-0.3zm-0.02 0.71c0.12,0 0.23,0 0.34,0 0,0.11 0,0.22 0,0.33 -0.11,0 -0.22,0 -0.34,0 0,-0.11 0,-0.22 0,-0.33zm-0.01 0.71c0.12,0 0.25,0 0.37,0 0,0.12 0,0.24 0,0.36 -0.12,0 -0.25,0 -0.37,0 0,-0.12 0,-0.24 0,-0.36zm-0.01 0.71c0.13,0 0.26,0 0.4,0 0,0.13 0,0.26 0,0.39 -0.14,0 -0.27,0 -0.4,0 0,-0.13 0,-0.26 0,-0.39zm-0.01 0.71c0.14,0 0.28,0 0.42,0 0,0.14 0,0.28 0,0.42 -0.14,0 -0.28,0 -0.42,0 0,-0.14 0,-0.28 0,-0.42zm0.14 -8.52l0.07 0 0 0.07 -0.07 0 0 -0.07zm0.69 0.71c0.03,0 0.06,0 0.09,0 0,0.04 0,0.07 0,0.1 -0.03,0 -0.06,0 -0.09,0 0,-0.03 0,-0.06 0,-0.1zm-0.02 0.71c0.05,0 0.09,0 0.13,0 0,0.04 0,0.09 0,0.13 -0.04,0 -0.08,0 -0.13,0 0,-0.04 0,-0.09 0,-0.13zm-0.01 0.71c0.05,0 0.11,0 0.16,0 0,0.05 0,0.1 0,0.16 -0.05,0 -0.11,0 -0.16,0 0,-0.06 0,-0.11 0,-0.16zm-0.01 0.71c0.06,0 0.12,0 0.18,0 0,0.06 0,0.12 0,0.19 -0.06,0 -0.12,0 -0.18,0 0,-0.07 0,-0.13 0,-0.19zm-0.01 0.71c0.07,0 0.14,0 0.21,0 0,0.07 0,0.14 0,0.21 -0.07,0 -0.14,0 -0.21,0 0,-0.07 0,-0.14 0,-0.21zm-0.01 0.71c0.08,0 0.16,0 0.24,0 0,0.08 0,0.16 0,0.24 -0.08,0 -0.16,0 -0.24,0 0,-0.08 0,-0.16 0,-0.24zm-0.02 0.71c0.1,0 0.19,0 0.28,0 0,0.09 0,0.18 0,0.27 -0.09,0 -0.18,0 -0.28,0 0,-0.09 0,-0.18 0,-0.27zm-0.01 0.71c0.1,0 0.21,0 0.31,0 0,0.1 0,0.2 0,0.3 -0.1,0 -0.21,0 -0.31,0 0,-0.1 0,-0.2 0,-0.3zm-0.01 0.71c0.11,0 0.22,0 0.34,0 0,0.11 0,0.22 0,0.33 -0.12,0 -0.23,0 -0.34,0 0,-0.11 0,-0.22 0,-0.33zm-0.01 0.71c0.12,0 0.24,0 0.36,0 0,0.12 0,0.24 0,0.36 -0.12,0 -0.24,0 -0.36,0 0,-0.12 0,-0.24 0,-0.36zm-0.01 0.71c0.13,0 0.26,0 0.39,0 0,0.13 0,0.26 0,0.39 -0.13,0 -0.26,0 -0.39,0 0,-0.13 0,-0.26 0,-0.39zm-0.01 0.71c0.14,0 0.28,0 0.42,0 0,0.14 0,0.28 0,0.42 -0.14,0 -0.28,0 -0.42,0 0,-0.14 0,-0.28 0,-0.42zm0.14 -8.52l0.06 0 0 0.07 -0.06 0 0 -0.07zm0.68 0.71c0.03,0 0.07,0 0.1,0 0,0.04 0,0.07 0,0.1 -0.03,0 -0.07,0 -0.1,0 0,-0.03 0,-0.06 0,-0.1zm-0.01 0.71c0.04,0 0.08,0 0.12,0 0,0.04 0,0.09 0,0.13 -0.04,0 -0.08,0 -0.12,0 0,-0.04 0,-0.09 0,-0.13zm-0.01 0.71c0.05,0 0.1,0 0.15,0 0,0.05 0,0.1 0,0.16 -0.05,0 -0.1,0 -0.15,0 0,-0.06 0,-0.11 0,-0.16zm-0.01 0.71c0.06,0 0.12,0 0.18,0 0,0.06 0,0.12 0,0.19 -0.06,0 -0.12,0 -0.18,0 0,-0.07 0,-0.13 0,-0.19zm-0.01 0.71c0.07,0 0.14,0 0.21,0 0,0.07 0,0.14 0,0.21 -0.07,0 -0.14,0 -0.21,0 0,-0.07 0,-0.14 0,-0.21zm-0.02 0.71c0.08,0 0.17,0 0.25,0 0,0.08 0,0.16 0,0.24 -0.08,0 -0.17,0 -0.25,0 0,-0.08 0,-0.16 0,-0.24zm-0.01 0.71c0.09,0 0.18,0 0.28,0 0,0.09 0,0.18 0,0.27 -0.1,0 -0.19,0 -0.28,0 0,-0.09 0,-0.18 0,-0.27zm-0.01 0.71c0.1,0 0.2,0 0.3,0 0,0.1 0,0.2 0,0.3 -0.1,0 -0.2,0 -0.3,0 0,-0.1 0,-0.2 0,-0.3zm-0.01 0.71c0.11,0 0.22,0 0.33,0 0,0.11 0,0.22 0,0.33 -0.11,0 -0.22,0 -0.33,0 0,-0.11 0,-0.22 0,-0.33zm-0.01 0.71c0.12,0 0.24,0 0.36,0 0,0.12 0,0.24 0,0.36 -0.12,0 -0.24,0 -0.36,0 0,-0.12 0,-0.24 0,-0.36zm-0.02 0.71c0.13,0 0.27,0 0.4,0 0,0.13 0,0.26 0,0.39 -0.13,0 -0.27,0 -0.4,0 0,-0.13 0,-0.26 0,-0.39zm-0.01 0.71c0.14,0 0.28,0 0.43,0 0,0.14 0,0.28 0,0.42 -0.15,0 -0.29,0 -0.43,0 0,-0.14 0,-0.28 0,-0.42zm0.14 -8.52l0.07 0 0 0.07 -0.07 0 0 -0.07zm0.69 0.71c0.03,0 0.06,0 0.09,0 0,0.04 0,0.07 0,0.1 -0.03,0 -0.06,0 -0.09,0 0,-0.03 0,-0.06 0,-0.1zm-0.01 0.71c0.04,0 0.08,0 0.12,0 0,0.04 0,0.09 0,0.13 -0.04,0 -0.08,0 -0.12,0 0,-0.04 0,-0.09 0,-0.13zm-0.01 0.71c0.05,0 0.1,0 0.15,0 0,0.05 0,0.1 0,0.16 -0.05,0 -0.1,0 -0.15,0 0,-0.06 0,-0.11 0,-0.16zm-0.02 0.71c0.06,0 0.13,0 0.19,0 0,0.06 0,0.12 0,0.19 -0.06,0 -0.13,0 -0.19,0 0,-0.07 0,-0.13 0,-0.19zm-0.01 0.71c0.07,0 0.14,0 0.22,0 0,0.07 0,0.14 0,0.21 -0.08,0 -0.15,0 -0.22,0 0,-0.07 0,-0.14 0,-0.21zm-0.01 0.71c0.08,0 0.16,0 0.24,0 0,0.08 0,0.16 0,0.24 -0.08,0 -0.16,0 -0.24,0 0,-0.08 0,-0.16 0,-0.24zm-0.01 0.71c0.09,0 0.18,0 0.27,0 0,0.09 0,0.18 0,0.27 -0.09,0 -0.18,0 -0.27,0 0,-0.09 0,-0.18 0,-0.27zm-0.01 0.71c0.1,0 0.2,0 0.3,0 0,0.1 0,0.2 0,0.3 -0.1,0 -0.2,0 -0.3,0 0,-0.1 0,-0.2 0,-0.3zm-0.02 0.71c0.11,0 0.23,0 0.34,0 0,0.11 0,0.22 0,0.33 -0.11,0 -0.23,0 -0.34,0 0,-0.11 0,-0.22 0,-0.33zm-0.01 0.71c0.12,0 0.24,0 0.37,0 0,0.12 0,0.24 0,0.36 -0.13,0 -0.25,0 -0.37,0 0,-0.12 0,-0.24 0,-0.36zm-0.01 0.71c0.13,0 0.26,0 0.39,0 0,0.13 0,0.26 0,0.39 -0.13,0 -0.26,0 -0.39,0 0,-0.13 0,-0.26 0,-0.39zm-0.01 0.71c0.14,0 0.28,0 0.42,0 0,0.14 0,0.28 0,0.42 -0.14,0 -0.28,0 -0.42,0 0,-0.14 0,-0.28 0,-0.42zm0.14 -8.52l0.06 0 0 0.07 -0.06 0 0 -0.07zm0.69 0.71c0.03,0 0.06,0 0.09,0 0,0.04 0,0.07 0,0.1 -0.03,0 -0.06,0 -0.09,0 0,-0.03 0,-0.06 0,-0.1zm-0.02 0.71c0.04,0 0.09,0 0.13,0 0,0.04 0,0.09 0,0.13 -0.04,0 -0.09,0 -0.13,0 0,-0.04 0,-0.09 0,-0.13zm-0.01 0.71c0.05,0 0.1,0 0.16,0 0,0.05 0,0.1 0,0.16 -0.06,0 -0.11,0 -0.16,0 0,-0.06 0,-0.11 0,-0.16zm-0.01 0.71c0.06,0 0.12,0 0.18,0 0,0.06 0,0.12 0,0.19 -0.06,0 -0.12,0 -0.18,0 0,-0.07 0,-0.13 0,-0.19zm-0.01 0.71c0.07,0 0.14,0 0.21,0 0,0.07 0,0.14 0,0.21 -0.07,0 -0.14,0 -0.21,0 0,-0.07 0,-0.14 0,-0.21zm-0.01 0.71c0.08,0 0.16,0 0.24,0 0,0.08 0,0.16 0,0.24 -0.08,0 -0.16,0 -0.24,0 0,-0.08 0,-0.16 0,-0.24zm-0.02 0.71c0.1,0 0.19,0 0.28,0 0,0.09 0,0.18 0,0.27 -0.09,0 -0.18,0 -0.28,0 0,-0.09 0,-0.18 0,-0.27zm-0.01 0.71c0.1,0 0.2,0 0.31,0 0,0.1 0,0.2 0,0.3 -0.11,0 -0.21,0 -0.31,0 0,-0.1 0,-0.2 0,-0.3zm-0.01 0.71c0.11,0 0.22,0 0.33,0 0,0.11 0,0.22 0,0.33 -0.11,0 -0.22,0 -0.33,0 0,-0.11 0,-0.22 0,-0.33zm-0.01 0.71c0.12,0 0.24,0 0.36,0 0,0.12 0,0.24 0,0.36 -0.12,0 -0.24,0 -0.36,0 0,-0.12 0,-0.24 0,-0.36zm-0.01 0.71c0.13,0 0.26,0 0.39,0 0,0.13 0,0.26 0,0.39 -0.13,0 -0.26,0 -0.39,0 0,-0.13 0,-0.26 0,-0.39zm-0.02 0.71c0.15,0 0.29,0 0.43,0 0,0.14 0,0.28 0,0.42 -0.14,0 -0.28,0 -0.43,0 0,-0.14 0,-0.28 0,-0.42zm0.15 -8.52l0.06 0 0 0.07 -0.06 0 0 -0.07zm0.68 0.71c0.03,0 0.06,0 0.1,0 0,0.04 0,0.07 0,0.1 -0.04,0 -0.07,0 -0.1,0 0,-0.03 0,-0.06 0,-0.1zm-0.01 0.71c0.04,0 0.08,0 0.12,0 0,0.04 0,0.09 0,0.13 -0.04,0 -0.08,0 -0.12,0 0,-0.04 0,-0.09 0,-0.13zm-0.01 0.71c0.05,0 0.1,0 0.15,0 0,0.05 0,0.1 0,0.16 -0.05,0 -0.1,0 -0.15,0 0,-0.06 0,-0.11 0,-0.16zm-0.01 0.71c0.06,0 0.12,0 0.18,0 0,0.06 0,0.12 0,0.19 -0.06,0 -0.12,0 -0.18,0 0,-0.07 0,-0.13 0,-0.19zm-0.02 0.71c0.08,0 0.15,0 0.22,0 0,0.07 0,0.14 0,0.21 -0.07,0 -0.14,0 -0.22,0 0,-0.07 0,-0.14 0,-0.21zm-0.01 0.71c0.08,0 0.16,0 0.25,0 0,0.08 0,0.16 0,0.24 -0.09,0 -0.17,0 -0.25,0 0,-0.08 0,-0.16 0,-0.24zm-0.01 0.71c0.09,0 0.18,0 0.27,0 0,0.09 0,0.18 0,0.27 -0.09,0 -0.18,0 -0.27,0 0,-0.09 0,-0.18 0,-0.27zm-0.01 0.71c0.1,0 0.2,0 0.3,0 0,0.1 0,0.2 0,0.3 -0.1,0 -0.2,0 -0.3,0 0,-0.1 0,-0.2 0,-0.3zm-0.01 0.71c0.11,0 0.22,0 0.33,0 0,0.11 0,0.22 0,0.33 -0.11,0 -0.22,0 -0.33,0 0,-0.11 0,-0.22 0,-0.33zm-0.02 0.71c0.13,0 0.25,0 0.37,0 0,0.12 0,0.24 0,0.36 -0.12,0 -0.24,0 -0.37,0 0,-0.12 0,-0.24 0,-0.36zm-0.01 0.71c0.13,0 0.27,0 0.4,0 0,0.13 0,0.26 0,0.39 -0.13,0 -0.27,0 -0.4,0 0,-0.13 0,-0.26 0,-0.39zm-0.01 0.71c0.14,0 0.28,0 0.43,0 0,0.14 0,0.28 0,0.42 -0.15,0 -0.29,0 -0.43,0 0,-0.14 0,-0.28 0,-0.42zm0.14 -8.52l0.07 0 0 0.07 -0.07 0 0 -0.07zm0.69 0.71c0.03,0 0.06,0 0.09,0 0,0.04 0,0.07 0,0.1 -0.03,0 -0.06,0 -0.09,0 0,-0.03 0,-0.06 0,-0.1zm-0.01 0.71c0.04,0 0.08,0 0.12,0 0,0.04 0,0.09 0,0.13 -0.04,0 -0.08,0 -0.12,0 0,-0.04 0,-0.09 0,-0.13zm-0.02 0.71c0.06,0 0.11,0 0.16,0 0,0.05 0,0.1 0,0.16 -0.05,0 -0.1,0 -0.16,0 0,-0.06 0,-0.11 0,-0.16zm-0.01 0.71c0.06,0 0.12,0 0.19,0 0,0.06 0,0.12 0,0.19 -0.07,0 -0.13,0 -0.19,0 0,-0.07 0,-0.13 0,-0.19zm-0.01 0.71c0.07,0 0.14,0 0.21,0 0,0.07 0,0.14 0,0.21 -0.07,0 -0.14,0 -0.21,0 0,-0.07 0,-0.14 0,-0.21zm-0.01 0.71c0.08,0 0.16,0 0.24,0 0,0.08 0,0.16 0,0.24 -0.08,0 -0.16,0 -0.24,0 0,-0.08 0,-0.16 0,-0.24zm-0.01 0.71c0.09,0 0.18,0 0.27,0 0,0.09 0,0.18 0,0.27 -0.09,0 -0.18,0 -0.27,0 0,-0.09 0,-0.18 0,-0.27zm-0.02 0.71c0.11,0 0.21,0 0.31,0 0,0.1 0,0.2 0,0.3 -0.1,0 -0.2,0 -0.31,0 0,-0.1 0,-0.2 0,-0.3zm-0.01 0.71c0.11,0 0.23,0 0.34,0 0,0.11 0,0.22 0,0.33 -0.11,0 -0.23,0 -0.34,0 0,-0.11 0,-0.22 0,-0.33zm-0.01 0.71c0.12,0 0.24,0 0.37,0 0,0.12 0,0.24 0,0.36 -0.13,0 -0.25,0 -0.37,0 0,-0.12 0,-0.24 0,-0.36zm-0.01 0.71c0.13,0 0.26,0 0.39,0 0,0.13 0,0.26 0,0.39 -0.13,0 -0.26,0 -0.39,0 0,-0.13 0,-0.26 0,-0.39zm-0.01 0.71c0.14,0 0.28,0 0.42,0 0,0.14 0,0.28 0,0.42 -0.14,0 -0.28,0 -0.42,0 0,-0.14 0,-0.28 0,-0.42zm0.14 -8.52l0.06 0 0 0.07 -0.06 0 0 -0.07zm0.68 0.71c0.04,0 0.07,0 0.1,0 0,0.04 0,0.07 0,0.1 -0.03,0 -0.06,0 -0.1,0 0,-0.03 0,-0.06 0,-0.1zm-0.01 0.71c0.04,0 0.08,0 0.13,0 0,0.04 0,0.09 0,0.13 -0.05,0 -0.09,0 -0.13,0 0,-0.04 0,-0.09 0,-0.13zm-0.01 0.71c0.05,0 0.1,0 0.15,0 0,0.05 0,0.1 0,0.16 -0.05,0 -0.1,0 -0.15,0 0,-0.06 0,-0.11 0,-0.16zm-0.01 0.71c0.06,0 0.12,0 0.18,0 0,0.06 0,0.12 0,0.19 -0.06,0 -0.12,0 -0.18,0 0,-0.07 0,-0.13 0,-0.19zm-0.01 0.71c0.07,0 0.14,0 0.21,0 0,0.07 0,0.14 0,0.21 -0.07,0 -0.14,0 -0.21,0 0,-0.07 0,-0.14 0,-0.21zm-0.02 0.71c0.09,0 0.17,0 0.25,0 0,0.08 0,0.16 0,0.24 -0.08,0 -0.16,0 -0.25,0 0,-0.08 0,-0.16 0,-0.24zm-0.01 0.71c0.09,0 0.19,0 0.28,0 0,0.09 0,0.18 0,0.27 -0.09,0 -0.19,0 -0.28,0 0,-0.09 0,-0.18 0,-0.27zm-0.01 0.71c0.1,0 0.2,0 0.31,0 0,0.1 0,0.2 0,0.3 -0.11,0 -0.21,0 -0.31,0 0,-0.1 0,-0.2 0,-0.3zm-0.01 0.71c0.11,0 0.22,0 0.33,0 0,0.11 0,0.22 0,0.33 -0.11,0 -0.22,0 -0.33,0 0,-0.11 0,-0.22 0,-0.33zm-0.01 0.71c0.12,0 0.24,0 0.36,0 0,0.12 0,0.24 0,0.36 -0.12,0 -0.24,0 -0.36,0 0,-0.12 0,-0.24 0,-0.36zm0.12 -7.1l0.06 0 0 0.07 -0.06 0 0 -0.07zm-11.85 0.71c0.03,0 0.06,0 0.09,0 0,0.04 0,0.07 0,0.1 -0.03,0 -0.06,0 -0.09,0 0,-0.03 0,-0.06 0,-0.1zm-0.02 0.71c0.04,0 0.09,0 0.13,0 0,0.04 0,0.09 0,0.13 -0.04,0 -0.09,0 -0.13,0 0,-0.04 0,-0.09 0,-0.13zm-0.01 0.71c0.05,0 0.1,0 0.15,0 0,0.05 0,0.1 0,0.16 -0.05,0 -0.1,0 -0.15,0 0,-0.06 0,-0.11 0,-0.16zm-0.01 0.71c0.06,0 0.12,0 0.18,0 0,0.06 0,0.12 0,0.19 -0.06,0 -0.12,0 -0.18,0 0,-0.07 0,-0.13 0,-0.19zm-0.01 0.71c0.07,0 0.14,0 0.21,0 0,0.07 0,0.14 0,0.21 -0.07,0 -0.14,0 -0.21,0 0,-0.07 0,-0.14 0,-0.21zm-0.01 0.71c0.08,0 0.16,0 0.24,0 0,0.08 0,0.16 0,0.24 -0.08,0 -0.16,0 -0.24,0 0,-0.08 0,-0.16 0,-0.24zm-0.02 0.71c0.09,0 0.19,0 0.28,0 0,0.09 0,0.18 0,0.27 -0.09,0 -0.19,0 -0.28,0 0,-0.09 0,-0.18 0,-0.27zm-0.01 0.71c0.1,0 0.2,0 0.31,0 0,0.1 0,0.2 0,0.3 -0.11,0 -0.21,0 -0.31,0 0,-0.1 0,-0.2 0,-0.3zm-0.01 0.71c0.11,0 0.22,0 0.33,0 0,0.11 0,0.22 0,0.33 -0.11,0 -0.22,0 -0.33,0 0,-0.11 0,-0.22 0,-0.33zm0.11 -6.39l0.06 0 0 0.07 -0.06 0 0 -0.07zm0.68 0.71c0.03,0 0.06,0 0.09,0 0,0.04 0,0.07 0,0.1 -0.03,0 -0.06,0 -0.09,0 0,-0.03 0,-0.06 0,-0.1zm-0.01 0.71c0.04,0 0.08,0 0.12,0 0,0.04 0,0.09 0,0.13 -0.04,0 -0.08,0 -0.12,0 0,-0.04 0,-0.09 0,-0.13zm-0.01 0.71c0.05,0 0.1,0 0.15,0 0,0.05 0,0.1 0,0.16 -0.05,0 -0.1,0 -0.15,0 0,-0.06 0,-0.11 0,-0.16zm-0.01 0.71c0.06,0 0.12,0 0.18,0 0,0.06 0,0.12 0,0.19 -0.06,0 -0.12,0 -0.18,0 0,-0.07 0,-0.13 0,-0.19zm-0.02 0.71c0.07,0 0.15,0 0.22,0 0,0.07 0,0.14 0,0.21 -0.07,0 -0.15,0 -0.22,0 0,-0.07 0,-0.14 0,-0.21zm-0.01 0.71c0.08,0 0.16,0 0.25,0 0,0.08 0,0.16 0,0.24 -0.09,0 -0.17,0 -0.25,0 0,-0.08 0,-0.16 0,-0.24zm-0.01 0.71c0.09,0 0.18,0 0.27,0 0,0.09 0,0.18 0,0.27 -0.09,0 -0.18,0 -0.27,0 0,-0.09 0,-0.18 0,-0.27zm-0.01 0.71c0.1,0 0.2,0 0.3,0 0,0.1 0,0.2 0,0.3 -0.1,0 -0.2,0 -0.3,0 0,-0.1 0,-0.2 0,-0.3zm-0.01 0.71c0.11,0 0.22,0 0.33,0 0,0.11 0,0.22 0,0.33 -0.11,0 -0.22,0 -0.33,0 0,-0.11 0,-0.22 0,-0.33zm-0.02 0.71c0.13,0 0.25,0 0.37,0 0,0.12 0,0.24 0,0.36 -0.12,0 -0.24,0 -0.37,0 0,-0.12 0,-0.24 0,-0.36zm-0.01 0.71c0.13,0 0.27,0 0.4,0 0,0.13 0,0.26 0,0.39 -0.13,0 -0.27,0 -0.4,0 0,-0.13 0,-0.26 0,-0.39zm-0.01 0.71c0.14,0 0.28,0 0.42,0 0,0.14 0,0.28 0,0.42 -0.14,0 -0.28,0 -0.42,0 0,-0.14 0,-0.28 0,-0.42zm0.14 -8.52l0.07 0 0 0.07 -0.07 0 0 -0.07zm0.69 0.71c0.03,0 0.06,0 0.09,0 0,0.04 0,0.07 0,0.1 -0.03,0 -0.06,0 -0.09,0 0,-0.03 0,-0.06 0,-0.1zm-0.01 0.71c0.04,0 0.08,0 0.12,0 0,0.04 0,0.09 0,0.13 -0.04,0 -0.08,0 -0.12,0 0,-0.04 0,-0.09 0,-0.13zm-0.02 0.71c0.05,0 0.11,0 0.16,0 0,0.05 0,0.1 0,0.16 -0.05,0 -0.11,0 -0.16,0 0,-0.06 0,-0.11 0,-0.16zm-0.01 0.71c0.06,0 0.12,0 0.19,0 0,0.06 0,0.12 0,0.19 -0.07,0 -0.13,0 -0.19,0 0,-0.07 0,-0.13 0,-0.19zm-0.01 0.71c0.07,0 0.14,0 0.21,0 0,0.07 0,0.14 0,0.21 -0.07,0 -0.14,0 -0.21,0 0,-0.07 0,-0.14 0,-0.21zm-0.01 0.71c0.08,0 0.16,0 0.24,0 0,0.08 0,0.16 0,0.24 -0.08,0 -0.16,0 -0.24,0 0,-0.08 0,-0.16 0,-0.24zm-0.01 0.71c0.09,0 0.18,0 0.27,0 0,0.09 0,0.18 0,0.27 -0.09,0 -0.18,0 -0.27,0 0,-0.09 0,-0.18 0,-0.27zm-0.02 0.71c0.11,0 0.21,0 0.31,0 0,0.1 0,0.2 0,0.3 -0.1,0 -0.2,0 -0.31,0 0,-0.1 0,-0.2 0,-0.3zm-0.01 0.71c0.11,0 0.22,0 0.34,0 0,0.11 0,0.22 0,0.33 -0.12,0 -0.23,0 -0.34,0 0,-0.11 0,-0.22 0,-0.33zm-0.01 0.71c0.12,0 0.24,0 0.36,0 0,0.12 0,0.24 0,0.36 -0.12,0 -0.24,0 -0.36,0 0,-0.12 0,-0.24 0,-0.36zm-0.01 0.71c0.13,0 0.26,0 0.39,0 0,0.13 0,0.26 0,0.39 -0.13,0 -0.26,0 -0.39,0 0,-0.13 0,-0.26 0,-0.39zm-0.01 0.71c0.14,0 0.28,0 0.42,0 0,0.14 0,0.28 0,0.42 -0.14,0 -0.28,0 -0.42,0 0,-0.14 0,-0.28 0,-0.42zm0.14 -8.52l0.06 0 0 0.07 -0.06 0 0 -0.07zm0.68 0.71c0.03,0 0.07,0 0.1,0 0,0.04 0,0.07 0,0.1 -0.03,0 -0.07,0 -0.1,0 0,-0.03 0,-0.06 0,-0.1zm-0.01 0.71c0.04,0 0.08,0 0.13,0 0,0.04 0,0.09 0,0.13 -0.05,0 -0.09,0 -0.13,0 0,-0.04 0,-0.09 0,-0.13zm-0.01 0.71c0.05,0 0.1,0 0.15,0 0,0.05 0,0.1 0,0.16 -0.05,0 -0.1,0 -0.15,0 0,-0.06 0,-0.11 0,-0.16zm-0.01 0.71c0.06,0 0.12,0 0.18,0 0,0.06 0,0.12 0,0.19 -0.06,0 -0.12,0 -0.18,0 0,-0.07 0,-0.13 0,-0.19zm-0.01 0.71c0.07,0 0.14,0 0.21,0 0,0.07 0,0.14 0,0.21 -0.07,0 -0.14,0 -0.21,0 0,-0.07 0,-0.14 0,-0.21zm-0.02 0.71c0.09,0 0.17,0 0.25,0 0,0.08 0,0.16 0,0.24 -0.08,0 -0.16,0 -0.25,0 0,-0.08 0,-0.16 0,-0.24zm-0.01 0.71c0.09,0 0.19,0 0.28,0 0,0.09 0,0.18 0,0.27 -0.09,0 -0.19,0 -0.28,0 0,-0.09 0,-0.18 0,-0.27zm-0.01 0.71c0.1,0 0.2,0 0.3,0 0,0.1 0,0.2 0,0.3 -0.1,0 -0.2,0 -0.3,0 0,-0.1 0,-0.2 0,-0.3zm-0.01 0.71c0.11,0 0.22,0 0.33,0 0,0.11 0,0.22 0,0.33 -0.11,0 -0.22,0 -0.33,0 0,-0.11 0,-0.22 0,-0.33zm-0.01 0.71c0.12,0 0.24,0 0.36,0 0,0.12 0,0.24 0,0.36 -0.12,0 -0.24,0 -0.36,0 0,-0.12 0,-0.24 0,-0.36zm-0.02 0.71c0.14,0 0.27,0 0.4,0 0,0.13 0,0.26 0,0.39 -0.13,0 -0.26,0 -0.4,0 0,-0.13 0,-0.26 0,-0.39zm-0.01 0.71c0.14,0 0.29,0 0.43,0 0,0.14 0,0.28 0,0.42 -0.14,0 -0.29,0 -0.43,0 0,-0.14 0,-0.28 0,-0.42zm0.15 -8.52l0.06 0 0 0.07 -0.06 0 0 -0.07zm0.68 0.71c0.03,0 0.06,0 0.09,0 0,0.04 0,0.07 0,0.1 -0.03,0 -0.06,0 -0.09,0 0,-0.03 0,-0.06 0,-0.1zm-0.01 0.71c0.04,0 0.08,0 0.12,0 0,0.04 0,0.09 0,0.13 -0.04,0 -0.08,0 -0.12,0 0,-0.04 0,-0.09 0,-0.13zm-0.01 0.71c0.05,0 0.1,0 0.15,0 0,0.05 0,0.1 0,0.16 -0.05,0 -0.1,0 -0.15,0 0,-0.06 0,-0.11 0,-0.16zm-0.02 0.71c0.07,0 0.13,0 0.19,0 0,0.06 0,0.12 0,0.19 -0.06,0 -0.12,0 -0.19,0 0,-0.07 0,-0.13 0,-0.19zm-0.01 0.71c0.07,0 0.14,0 0.22,0 0,0.07 0,0.14 0,0.21 -0.08,0 -0.15,0 -0.22,0 0,-0.07 0,-0.14 0,-0.21zm-0.01 0.71c0.08,0 0.16,0 0.24,0 0,0.08 0,0.16 0,0.24 -0.08,0 -0.16,0 -0.24,0 0,-0.08 0,-0.16 0,-0.24zm-0.01 0.71c0.09,0 0.18,0 0.27,0 0,0.09 0,0.18 0,0.27 -0.09,0 -0.18,0 -0.27,0 0,-0.09 0,-0.18 0,-0.27zm-0.01 0.71c0.1,0 0.2,0 0.3,0 0,0.1 0,0.2 0,0.3 -0.1,0 -0.2,0 -0.3,0 0,-0.1 0,-0.2 0,-0.3zm-0.02 0.71c0.12,0 0.23,0 0.34,0 0,0.11 0,0.22 0,0.33 -0.11,0 -0.22,0 -0.34,0 0,-0.11 0,-0.22 0,-0.33zm-0.01 0.71c0.12,0 0.25,0 0.37,0 0,0.12 0,0.24 0,0.36 -0.12,0 -0.25,0 -0.37,0 0,-0.12 0,-0.24 0,-0.36zm-0.01 0.71c0.13,0 0.26,0 0.4,0 0,0.13 0,0.26 0,0.39 -0.14,0 -0.27,0 -0.4,0 0,-0.13 0,-0.26 0,-0.39zm-0.01 0.71c0.14,0 0.28,0 0.42,0 0,0.14 0,0.28 0,0.42 -0.14,0 -0.28,0 -0.42,0 0,-0.14 0,-0.28 0,-0.42zm0.14 -8.52l0.07 0 0 0.07 -0.07 0 0 -0.07zm0.69 0.71c0.03,0 0.06,0 0.09,0 0,0.04 0,0.07 0,0.1 -0.03,0 -0.06,0 -0.09,0 0,-0.03 0,-0.06 0,-0.1zm-0.02 0.71c0.05,0 0.09,0 0.13,0 0,0.04 0,0.09 0,0.13 -0.04,0 -0.08,0 -0.13,0 0,-0.04 0,-0.09 0,-0.13zm-0.01 0.71c0.05,0 0.1,0 0.16,0 0,0.05 0,0.1 0,0.16 -0.06,0 -0.11,0 -0.16,0 0,-0.06 0,-0.11 0,-0.16zm-0.01 0.71c0.06,0 0.12,0 0.18,0 0,0.06 0,0.12 0,0.19 -0.06,0 -0.12,0 -0.18,0 0,-0.07 0,-0.13 0,-0.19zm-0.01 0.71c0.07,0 0.14,0 0.21,0 0,0.07 0,0.14 0,0.21 -0.07,0 -0.14,0 -0.21,0 0,-0.07 0,-0.14 0,-0.21zm-0.01 0.71c0.08,0 0.16,0 0.24,0 0,0.08 0,0.16 0,0.24 -0.08,0 -0.16,0 -0.24,0 0,-0.08 0,-0.16 0,-0.24zm-0.02 0.71c0.1,0 0.19,0 0.28,0 0,0.09 0,0.18 0,0.27 -0.09,0 -0.18,0 -0.28,0 0,-0.09 0,-0.18 0,-0.27zm-0.01 0.71c0.1,0 0.21,0 0.31,0 0,0.1 0,0.2 0,0.3 -0.1,0 -0.21,0 -0.31,0 0,-0.1 0,-0.2 0,-0.3zm-0.01 0.71c0.11,0 0.22,0 0.34,0 0,0.11 0,0.22 0,0.33 -0.12,0 -0.23,0 -0.34,0 0,-0.11 0,-0.22 0,-0.33zm-0.01 0.71c0.12,0 0.24,0 0.36,0 0,0.12 0,0.24 0,0.36 -0.12,0 -0.24,0 -0.36,0 0,-0.12 0,-0.24 0,-0.36zm-0.01 0.71c0.13,0 0.26,0 0.39,0 0,0.13 0,0.26 0,0.39 -0.13,0 -0.26,0 -0.39,0 0,-0.13 0,-0.26 0,-0.39zm-0.02 0.71c0.15,0 0.29,0 0.43,0 0,0.14 0,0.28 0,0.42 -0.14,0 -0.28,0 -0.43,0 0,-0.14 0,-0.28 0,-0.42zm0.15 -8.52l0.06 0 0 0.07 -0.06 0 0 -0.07zm0.68 0.71c0.03,0 0.07,0 0.1,0 0,0.04 0,0.07 0,0.1 -0.03,0 -0.07,0 -0.1,0 0,-0.03 0,-0.06 0,-0.1zm-0.01 0.71c0.04,0 0.08,0 0.12,0 0,0.04 0,0.09 0,0.13 -0.04,0 -0.08,0 -0.12,0 0,-0.04 0,-0.09 0,-0.13zm-0.01 0.71c0.05,0 0.1,0 0.15,0 0,0.05 0,0.1 0,0.16 -0.05,0 -0.1,0 -0.15,0 0,-0.06 0,-0.11 0,-0.16zm-0.01 0.71c0.06,0 0.12,0 0.18,0 0,0.06 0,0.12 0,0.19 -0.06,0 -0.12,0 -0.18,0 0,-0.07 0,-0.13 0,-0.19zm-0.02 0.71c0.08,0 0.15,0 0.22,0 0,0.07 0,0.14 0,0.21 -0.07,0 -0.14,0 -0.22,0 0,-0.07 0,-0.14 0,-0.21zm-0.01 0.71c0.08,0 0.17,0 0.25,0 0,0.08 0,0.16 0,0.24 -0.08,0 -0.17,0 -0.25,0 0,-0.08 0,-0.16 0,-0.24zm-0.01 0.71c0.09,0 0.18,0 0.28,0 0,0.09 0,0.18 0,0.27 -0.1,0 -0.19,0 -0.28,0 0,-0.09 0,-0.18 0,-0.27zm-0.01 0.71c0.1,0 0.2,0 0.3,0 0,0.1 0,0.2 0,0.3 -0.1,0 -0.2,0 -0.3,0 0,-0.1 0,-0.2 0,-0.3zm-0.01 0.71c0.11,0 0.22,0 0.33,0 0,0.11 0,0.22 0,0.33 -0.11,0 -0.22,0 -0.33,0 0,-0.11 0,-0.22 0,-0.33zm-0.01 0.71c0.12,0 0.24,0 0.36,0 0,0.12 0,0.24 0,0.36 -0.12,0 -0.24,0 -0.36,0 0,-0.12 0,-0.24 0,-0.36zm-0.02 0.71c0.13,0 0.27,0 0.4,0 0,0.13 0,0.26 0,0.39 -0.13,0 -0.27,0 -0.4,0 0,-0.13 0,-0.26 0,-0.39zm-0.01 0.71c0.14,0 0.28,0 0.43,0 0,0.14 0,0.28 0,0.42 -0.15,0 -0.29,0 -0.43,0 0,-0.14 0,-0.28 0,-0.42zm0.14 -8.52l0.07 0 0 0.07 -0.07 0 0 -0.07zm0.69 0.71c0.03,0 0.06,0 0.09,0 0,0.04 0,0.07 0,0.1 -0.03,0 -0.06,0 -0.09,0 0,-0.03 0,-0.06 0,-0.1zm-0.01 0.71c0.04,0 0.08,0 0.12,0 0,0.04 0,0.09 0,0.13 -0.04,0 -0.08,0 -0.12,0 0,-0.04 0,-0.09 0,-0.13zm-0.01 0.71c0.05,0 0.1,0 0.15,0 0,0.05 0,0.1 0,0.16 -0.05,0 -0.1,0 -0.15,0 0,-0.06 0,-0.11 0,-0.16zm-0.02 0.71c0.06,0 0.13,0 0.19,0 0,0.06 0,0.12 0,0.19 -0.06,0 -0.13,0 -0.19,0 0,-0.07 0,-0.13 0,-0.19zm-0.01 0.71c0.07,0 0.14,0 0.22,0 0,0.07 0,0.14 0,0.21 -0.08,0 -0.15,0 -0.22,0 0,-0.07 0,-0.14 0,-0.21zm-0.01 0.71c0.08,0 0.16,0 0.24,0 0,0.08 0,0.16 0,0.24 -0.08,0 -0.16,0 -0.24,0 0,-0.08 0,-0.16 0,-0.24zm-0.01 0.71c0.09,0 0.18,0 0.27,0 0,0.09 0,0.18 0,0.27 -0.09,0 -0.18,0 -0.27,0 0,-0.09 0,-0.18 0,-0.27zm-0.01 0.71c0.1,0 0.2,0 0.3,0 0,0.1 0,0.2 0,0.3 -0.1,0 -0.2,0 -0.3,0 0,-0.1 0,-0.2 0,-0.3zm-0.02 0.71c0.11,0 0.23,0 0.34,0 0,0.11 0,0.22 0,0.33 -0.11,0 -0.23,0 -0.34,0 0,-0.11 0,-0.22 0,-0.33zm-0.01 0.71c0.12,0 0.24,0 0.37,0 0,0.12 0,0.24 0,0.36 -0.13,0 -0.25,0 -0.37,0 0,-0.12 0,-0.24 0,-0.36zm-0.01 0.71c0.13,0 0.26,0 0.39,0 0,0.13 0,0.26 0,0.39 -0.13,0 -0.26,0 -0.39,0 0,-0.13 0,-0.26 0,-0.39zm-0.01 0.71c0.14,0 0.28,0 0.42,0 0,0.14 0,0.28 0,0.42 -0.14,0 -0.28,0 -0.42,0 0,-0.14 0,-0.28 0,-0.42zm0.14 -8.52l0.06 0 0 0.07 -0.06 0 0 -0.07zm0.69 0.71c0.03,0 0.06,0 0.09,0 0,0.04 0,0.07 0,0.1 -0.03,0 -0.06,0 -0.09,0 0,-0.03 0,-0.06 0,-0.1zm-0.02 0.71c0.04,0 0.09,0 0.13,0 0,0.04 0,0.09 0,0.13 -0.04,0 -0.09,0 -0.13,0 0,-0.04 0,-0.09 0,-0.13zm-0.01 0.71c0.05,0 0.1,0 0.16,0 0,0.05 0,0.1 0,0.16 -0.06,0 -0.11,0 -0.16,0 0,-0.06 0,-0.11 0,-0.16zm-0.01 0.71c0.06,0 0.12,0 0.18,0 0,0.06 0,0.12 0,0.19 -0.06,0 -0.12,0 -0.18,0 0,-0.07 0,-0.13 0,-0.19zm-0.01 0.71c0.07,0 0.14,0 0.21,0 0,0.07 0,0.14 0,0.21 -0.07,0 -0.14,0 -0.21,0 0,-0.07 0,-0.14 0,-0.21zm-0.01 0.71c0.08,0 0.16,0 0.24,0 0,0.08 0,0.16 0,0.24 -0.08,0 -0.16,0 -0.24,0 0,-0.08 0,-0.16 0,-0.24zm-0.02 0.71c0.09,0 0.19,0 0.28,0 0,0.09 0,0.18 0,0.27 -0.09,0 -0.19,0 -0.28,0 0,-0.09 0,-0.18 0,-0.27zm-0.01 0.71c0.1,0 0.2,0 0.31,0 0,0.1 0,0.2 0,0.3 -0.11,0 -0.21,0 -0.31,0 0,-0.1 0,-0.2 0,-0.3zm-0.01 0.71c0.11,0 0.22,0 0.33,0 0,0.11 0,0.22 0,0.33 -0.11,0 -0.22,0 -0.33,0 0,-0.11 0,-0.22 0,-0.33zm-0.01 0.71c0.12,0 0.24,0 0.36,0 0,0.12 0,0.24 0,0.36 -0.12,0 -0.24,0 -0.36,0 0,-0.12 0,-0.24 0,-0.36zm-0.01 0.71c0.13,0 0.26,0 0.39,0 0,0.13 0,0.26 0,0.39 -0.13,0 -0.26,0 -0.39,0 0,-0.13 0,-0.26 0,-0.39zm-0.02 0.71c0.15,0 0.29,0 0.43,0 0,0.14 0,0.28 0,0.42 -0.14,0 -0.28,0 -0.43,0 0,-0.14 0,-0.28 0,-0.42zm0.15 -8.52l0.06 0 0 0.07 -0.06 0 0 -0.07z"/>
  <path class="fil2" d="M4.77 1.55c0.6,-0.07 1.17,-0.03 1.74,0.12 0.56,0.15 1.05,0.39 1.48,0.73 0.43,0.33 0.76,0.75 1,1.26 0.24,0.51 0.33,1.09 0.27,1.76 -0.04,0.5 -0.17,0.97 -0.4,1.39 -0.22,0.42 -0.51,0.78 -0.86,1.1 -0.36,0.32 -0.76,0.58 -1.22,0.79 -0.46,0.2 -0.94,0.34 -1.44,0.4 0,0.31 0,0.56 0,0.75 0.01,0.19 0.01,0.29 0.01,0.32 0.02,0.1 -0.02,0.18 -0.12,0.26 -0.09,0.08 -0.22,0.14 -0.37,0.19 -0.16,0.04 -0.34,0.07 -0.53,0.07 -0.19,0.01 -0.38,-0.01 -0.55,-0.05 -0.17,-0.04 -0.33,-0.11 -0.46,-0.21 -0.14,-0.09 -0.22,-0.22 -0.26,-0.37 -0.05,-0.16 -0.08,-0.44 -0.09,-0.83 -0.02,-0.39 -0.03,-0.84 -0.04,-1.35 0,-0.51 0,-1.05 0.01,-1.62 0.01,-0.57 0.02,-1.11 0.04,-1.62 0.02,-0.5 0.03,-0.95 0.05,-1.34 0.02,-0.39 0.03,-0.67 0.04,-0.83 0,-0.03 0,-0.09 0,-0.18 0.01,-0.09 0.03,-0.19 0.08,-0.29 0.04,-0.1 0.12,-0.2 0.23,-0.29 0.11,-0.08 0.29,-0.14 0.52,-0.16 0.14,-0.03 0.26,-0.03 0.36,-0.02 0.09,0.01 0.19,0.03 0.28,0.04 0.08,-0.01 0.14,-0.02 0.17,-0.02l0.06 0zm0.53 5.27c0.43,0 0.8,-0.09 1.11,-0.26 0.31,-0.17 0.55,-0.37 0.72,-0.62 0.17,-0.25 0.26,-0.52 0.28,-0.8 0.02,-0.29 -0.04,-0.56 -0.2,-0.8 -0.15,-0.23 -0.39,-0.43 -0.72,-0.58 -0.34,-0.15 -0.77,-0.21 -1.31,-0.18 0.02,0.51 0.04,1.02 0.06,1.54 0.02,0.51 0.03,1.04 0.05,1.58l0 0.03c0,0.01 0,0.01 0.01,0.02 0,0 0,0.01 0,0.02l0 0.05z"/>
 </g>
</svg>
