<?xml version="1.0" encoding="UTF-8"?>
<!DOCTYPE svg PUBLIC "-//W3C//DTD SVG 1.1//EN" "http://www.w3.org/Graphics/SVG/1.1/DTD/svg11.dtd">
<!-- Creator: CorelDRAW 2021.5 -->
<svg xmlns="http://www.w3.org/2000/svg" xml:space="preserve" width="399px" height="105px" version="1.1" style="shape-rendering:geometricPrecision; text-rendering:geometricPrecision; image-rendering:optimizeQuality; fill-rule:evenodd; clip-rule:evenodd"
viewBox="0 0 39.76 10.44"
 xmlns:xlink="http://www.w3.org/1999/xlink"
 xmlns:xodm="http://www.corel.com/coreldraw/odm/2003">
 <defs>
  <style type="text/css">
   <![CDATA[
    .fil5 {fill:black}
    .fil4 {fill:#04C7C7}
    .fil2 {fill:#FFE11F}
    .fil3 {fill:black;fill-rule:nonzero}
    .fil0 {fill:black;fill-rule:nonzero}
    .fil1 {fill:white;fill-rule:nonzero}
   ]]>
  </style>
 </defs>
 <g id="Camada_x0020_1">
  <metadata id="CorelCorpID_0Corel-Layer"/>
  <path class="fil0" d="M5.19 1.09c11.53,-0.05 23.05,-0.1 34.57,-0.14l-4.18 6.95 -4.11 0.12c-0.13,0.52 -0.25,1.04 -0.35,1.5l-0.13 0.59 -0.61 0.01c-3.27,0.04 -6.59,0.1 -9.92,0.15 -3.75,0.05 -7.51,0.11 -11.19,0.16l-1.04 0.01 0.54 -1.78 -7.93 0.22 3.75 -7.79 0.6 0z"/>
  <path class="fil1" d="M4.59 0.29c11.53,-0.04 23.05,-0.09 34.57,-0.14l-4.18 6.96 -4.1 0.11c-0.13,0.53 -0.26,1.04 -0.36,1.51l-0.13 0.59 -0.61 0.01c-3.26,0.04 -6.59,0.09 -9.91,0.14 -3.76,0.06 -7.51,0.12 -11.2,0.17l-1.04 0.01 0.54 -1.78 -7.92 0.22 3.74 -7.79 0.6 -0.01zm0.85 1.53l-0.49 0 -2.24 4.67 7.54 -0.21 -0.55 1.82c3.35,-0.05 6.75,-0.1 10.15,-0.15 3.12,-0.05 6.24,-0.1 9.31,-0.14 0.09,-0.37 0.19,-0.78 0.29,-1.2l0.22 -0.88 4.44 -0.12 2.35 -3.92 -31.02 0.13z"/>
  <path class="fil0" d="M4.59 0.14l17.29 -0.07 17.55 -0.07 -4.36 7.26 -4.07 0.11c-0.06,0.24 -0.12,0.47 -0.17,0.66 -0.05,0.24 -0.11,0.48 -0.16,0.73l-0.16 0.71 -0.73 0.01c-3.18,0.04 -6.42,0.09 -9.67,0.14l-0.52 0.01c-3.66,0.06 -7.32,0.11 -10.92,0.16l-1.25 0.01 0.55 -1.78 -7.97 0.23c1.3,-2.7 2.6,-5.4 3.9,-8.11l0.69 0zm17.29 0.24l-17.79 0.07 -3.6 7.48 7.89 -0.22 -0.54 1.78 0.83 -0.01c3.59,-0.04 7.25,-0.1 10.91,-0.15l0.53 -0.01c3.24,-0.05 6.48,-0.1 9.67,-0.14l0.48 -0.01 0.11 -0.47c0.05,-0.22 0.1,-0.47 0.17,-0.74 0.07,-0.28 0.13,-0.53 0.19,-0.77l0.03 -0.11 4.14 -0.12 3.99 -6.65 -17.01 0.07zm-16.44 1.59l-0.39 0 -2.1 4.36 7.51 -0.21 -0.55 1.82c3.19,-0.04 6.43,-0.09 9.66,-0.14l0.45 -0.01c3.02,-0.04 6.04,-0.09 9.02,-0.13 0.07,-0.31 0.17,-0.69 0.26,-1.07l0.25 -1.01 4.47 -0.13 2.17 -3.61 -30.75 0.13zm-0.49 -0.3c10.59,-0.05 21.19,-0.09 31.78,-0.13l-2.54 4.22 -4.4 0.12 -0.19 0.78c-0.1,0.39 -0.2,0.78 -0.29,1.19l-0.03 0.11 -0.12 0c-3.01,0.04 -6.08,0.09 -9.14,0.14l-0.44 0.01c-3.31,0.05 -6.62,0.1 -9.88,0.14l-0.21 0 0.56 -1.81 -7.59 0.21 2.4 -4.98 0.09 0z"/>
  <polygon class="fil2" points="4.66,1.26 35.38,1.14 37.52,1.13 34.49,6.16 1.86,7.09 4.66,1.26 "/>
  <path class="fil3" d="M35.38 1.34l-30.24 0.12 -2.96 5.42 31.93 -1.27 3.05 -4.28 -1.78 0.01 0 0zm-30.72 -0.28c0.28,0 0.56,0 0.84,0 10.79,-0.05 21.58,-0.09 32.37,-0.13 -1.09,1.81 -2.18,3.62 -3.26,5.43 -11.03,0.31 -22.05,0.62 -33.07,0.93l2.99 -6.23 0.13 0 0 0z"/>
  <g id="_2070174317392">
   <path class="fil0" d="M6.57 2.75c0.17,-0.02 0.33,-0.01 0.48,0.03 0.16,0.03 0.3,0.1 0.42,0.19 0.12,0.09 0.22,0.2 0.29,0.34 0.07,0.14 0.1,0.3 0.09,0.49 -0.01,0.14 -0.04,0.27 -0.1,0.38 -0.06,0.12 -0.14,0.23 -0.24,0.32 -0.09,0.09 -0.2,0.16 -0.33,0.22 -0.12,0.07 -0.26,0.11 -0.4,0.13 0.01,0.08 0.01,0.15 0.01,0.2 0,0.06 0,0.09 0.01,0.09 0,0.03 -0.01,0.06 -0.04,0.08 -0.02,0.02 -0.06,0.04 -0.1,0.05 -0.04,0.02 -0.09,0.02 -0.14,0.03 -0.06,0 -0.11,0 -0.16,-0.01 -0.05,-0.01 -0.09,-0.03 -0.13,-0.06 -0.04,-0.02 -0.06,-0.06 -0.07,-0.1 -0.02,-0.04 -0.03,-0.12 -0.03,-0.23 -0.01,-0.11 -0.02,-0.23 -0.02,-0.37 -0.01,-0.15 -0.01,-0.3 -0.01,-0.45 0,-0.16 0,-0.31 0,-0.45 0,-0.14 0,-0.27 0,-0.38 0,-0.11 0,-0.18 0.01,-0.23 0,-0.01 0,-0.02 0,-0.05 0,-0.02 0,-0.05 0.01,-0.08 0.02,-0.03 0.04,-0.06 0.07,-0.08 0.03,-0.03 0.08,-0.04 0.14,-0.05 0.04,-0.01 0.07,-0.01 0.1,-0.01 0.03,0 0.05,0.01 0.08,0.01 0.02,0 0.04,-0.01 0.05,-0.01l0.01 0zm0.19 1.46c0.12,0 0.22,-0.03 0.3,-0.08 0.09,-0.04 0.15,-0.1 0.2,-0.17 0.04,-0.07 0.07,-0.15 0.07,-0.23 0.01,-0.08 -0.01,-0.15 -0.06,-0.22 -0.04,-0.06 -0.11,-0.11 -0.21,-0.15 -0.09,-0.04 -0.21,-0.06 -0.36,-0.05 0.01,0.15 0.02,0.29 0.03,0.43 0.01,0.14 0.02,0.29 0.02,0.44l0 0.01c0,0 0,0 0.01,0 0,0.01 0,0.01 0,0.01l0 0.01zm3.19 0.78c0,0.08 -0.02,0.14 -0.07,0.18 -0.05,0.03 -0.11,0.05 -0.18,0.06 -0.04,0.01 -0.08,0.01 -0.12,0.01 -0.04,0 -0.07,-0.01 -0.1,-0.02 -0.03,-0.02 -0.06,-0.04 -0.09,-0.08 -0.02,-0.03 -0.04,-0.08 -0.05,-0.14 0,0 -0.01,-0.01 -0.01,-0.03 0,-0.01 -0.01,-0.03 -0.01,-0.05 0,-0.02 -0.01,-0.03 -0.01,-0.05 0,-0.02 -0.01,-0.03 -0.01,-0.03 -0.12,0.01 -0.24,0.01 -0.37,0.02 -0.12,0 -0.25,0 -0.38,-0.01 0,0.01 -0.01,0.03 -0.01,0.05 0,0.03 -0.01,0.05 -0.01,0.07 0,0.03 -0.01,0.05 -0.01,0.08 -0.01,0.02 -0.01,0.04 -0.01,0.05 -0.01,0.05 -0.04,0.09 -0.09,0.12 -0.05,0.03 -0.1,0.05 -0.15,0.05 -0.06,0.01 -0.11,0 -0.16,-0.03 -0.05,-0.02 -0.09,-0.05 -0.11,-0.11 -0.02,-0.03 -0.03,-0.1 -0.03,-0.21 0,-0.1 0.01,-0.23 0.03,-0.37 0.01,-0.14 0.04,-0.3 0.07,-0.46 0.03,-0.17 0.07,-0.33 0.12,-0.48 0.05,-0.16 0.1,-0.31 0.16,-0.44 0.06,-0.13 0.13,-0.24 0.21,-0.32 0.05,-0.06 0.11,-0.1 0.18,-0.14 0.06,-0.03 0.13,-0.05 0.21,-0.05 0.12,0 0.23,0.03 0.32,0.09 0.09,0.06 0.17,0.14 0.24,0.24 0.06,0.1 0.12,0.2 0.16,0.31 0.04,0.12 0.07,0.22 0.09,0.33 0.02,0.06 0.03,0.14 0.05,0.22 0.01,0.09 0.03,0.18 0.04,0.27 0.01,0.09 0.03,0.19 0.04,0.28 0.01,0.09 0.02,0.18 0.03,0.26 0.01,0.08 0.02,0.14 0.02,0.2 0.01,0.06 0.01,0.1 0.01,0.13zm-1.33 -0.72c0.09,-0.02 0.19,-0.03 0.29,-0.04 0.1,-0.01 0.2,-0.01 0.3,-0.02 -0.01,-0.05 -0.02,-0.1 -0.03,-0.16 -0.01,-0.06 -0.02,-0.12 -0.03,-0.18 -0.01,-0.06 -0.03,-0.12 -0.05,-0.18 -0.02,-0.06 -0.04,-0.11 -0.06,-0.16 -0.04,-0.07 -0.07,-0.1 -0.1,-0.09 -0.03,0 -0.06,0.03 -0.09,0.08 -0.05,0.11 -0.09,0.23 -0.13,0.35 -0.03,0.12 -0.06,0.25 -0.1,0.4zm2.76 -0.02c0.02,-0.05 0.04,-0.08 0.08,-0.1 0.04,-0.02 0.08,-0.03 0.13,-0.03 0.04,0.01 0.09,0.02 0.13,0.05 0.05,0.02 0.09,0.05 0.12,0.1 0.03,0.04 0.05,0.09 0.06,0.15 0.01,0.06 0.01,0.12 -0.01,0.19 -0.07,0.17 -0.16,0.31 -0.3,0.42 -0.14,0.11 -0.29,0.17 -0.47,0.18 -0.12,0.01 -0.22,-0.01 -0.32,-0.04 -0.1,-0.04 -0.19,-0.09 -0.27,-0.16 -0.08,-0.06 -0.16,-0.14 -0.22,-0.23 -0.06,-0.08 -0.11,-0.18 -0.15,-0.28 -0.04,-0.1 -0.08,-0.2 -0.1,-0.31 -0.02,-0.1 -0.03,-0.2 -0.03,-0.3 0,-0.15 0.02,-0.29 0.06,-0.43 0.05,-0.15 0.11,-0.27 0.19,-0.39 0.08,-0.11 0.18,-0.2 0.3,-0.28 0.12,-0.08 0.25,-0.13 0.39,-0.14 0.14,-0.02 0.26,-0.01 0.37,0.02 0.12,0.04 0.22,0.1 0.3,0.17 0.08,0.07 0.14,0.16 0.19,0.26 0.04,0.11 0.06,0.22 0.05,0.33 0,0.06 -0.02,0.11 -0.05,0.15 -0.02,0.04 -0.06,0.07 -0.09,0.09 -0.04,0.02 -0.08,0.03 -0.13,0.04 -0.04,0 -0.08,0 -0.12,-0.01 -0.04,-0.01 -0.07,-0.03 -0.1,-0.05 -0.02,-0.03 -0.03,-0.06 -0.04,-0.1 0,-0.11 -0.03,-0.19 -0.08,-0.24 -0.06,-0.05 -0.13,-0.07 -0.21,-0.06 -0.09,0 -0.17,0.04 -0.23,0.11 -0.06,0.07 -0.1,0.16 -0.13,0.26 -0.03,0.1 -0.04,0.2 -0.04,0.31 0,0.11 0.02,0.22 0.05,0.31 0.03,0.1 0.08,0.17 0.14,0.23 0.06,0.06 0.13,0.08 0.22,0.08 0.06,-0.01 0.12,-0.04 0.18,-0.08 0.05,-0.05 0.1,-0.13 0.13,-0.22zm1.73 -0.43c0.07,0.06 0.14,0.13 0.22,0.2 0.07,0.08 0.14,0.16 0.21,0.24 0.07,0.09 0.13,0.18 0.19,0.27 0.06,0.09 0.11,0.18 0.15,0.27 0.02,0.06 0.02,0.11 0,0.15 -0.03,0.04 -0.07,0.07 -0.12,0.11 -0.06,0.03 -0.11,0.06 -0.17,0.07 -0.06,0.02 -0.12,0.03 -0.17,0.02 -0.06,0 -0.09,-0.02 -0.11,-0.05 -0.07,-0.12 -0.15,-0.25 -0.25,-0.37 -0.09,-0.13 -0.19,-0.27 -0.3,-0.41 0,0.09 0.01,0.17 0.02,0.25 0,0.08 0.01,0.15 0.02,0.22 0,0.06 0.01,0.11 0.01,0.15 0.01,0.04 0.01,0.06 0.01,0.06 0.01,0.03 0,0.05 -0.02,0.08 -0.03,0.02 -0.06,0.04 -0.1,0.06 -0.04,0.02 -0.09,0.03 -0.14,0.04 -0.06,0.01 -0.11,0.01 -0.16,0 -0.05,-0.01 -0.09,-0.02 -0.13,-0.04 -0.04,-0.03 -0.07,-0.06 -0.08,-0.1 -0.03,-0.06 -0.05,-0.14 -0.06,-0.26 -0.02,-0.12 -0.03,-0.26 -0.04,-0.41 -0.01,-0.15 -0.01,-0.31 -0.01,-0.48 0,-0.17 0,-0.33 0.01,-0.48 0,-0.15 0.01,-0.29 0.02,-0.4 0.01,-0.12 0.02,-0.21 0.03,-0.26 0.01,-0.03 0.03,-0.07 0.07,-0.1 0.03,-0.04 0.09,-0.06 0.17,-0.06 0.03,0 0.07,0 0.11,0.01 0.03,0 0.07,0.01 0.1,0.03 0.03,0.02 0.06,0.04 0.08,0.07 0.02,0.03 0.03,0.07 0.03,0.11 0,0.03 0,0.06 0,0.09 0,0.03 0,0.06 0,0.1 0,0.05 0,0.09 0,0.15 0,0.06 0.01,0.13 0.01,0.21 0.09,-0.1 0.18,-0.2 0.25,-0.31 0.08,-0.12 0.15,-0.24 0.21,-0.36 0.01,-0.03 0.02,-0.06 0.03,-0.08 0,-0.02 0.01,-0.03 0.03,-0.04 0.01,-0.01 0.03,-0.02 0.05,-0.01 0.02,0 0.06,0 0.1,0.01 0.05,0.02 0.1,0.03 0.15,0.05 0.05,0.01 0.1,0.03 0.14,0.06 0.04,0.03 0.07,0.07 0.09,0.11 0.02,0.04 0.02,0.09 0.01,0.16 -0.02,0.08 -0.05,0.16 -0.1,0.24 -0.05,0.08 -0.1,0.16 -0.16,0.24 -0.06,0.07 -0.13,0.14 -0.2,0.21 -0.07,0.06 -0.14,0.12 -0.2,0.18zm3.91 0.99c0,0.08 -0.02,0.14 -0.07,0.18 -0.05,0.03 -0.11,0.05 -0.19,0.06 -0.04,0.01 -0.08,0.01 -0.11,0.01 -0.04,0 -0.08,-0.01 -0.11,-0.02 -0.03,-0.02 -0.06,-0.04 -0.08,-0.07 -0.03,-0.04 -0.05,-0.09 -0.06,-0.15 0,0 0,-0.01 0,-0.03 -0.01,-0.01 -0.01,-0.03 -0.01,-0.05 -0.01,-0.01 -0.01,-0.03 -0.01,-0.05 -0.01,-0.01 -0.01,-0.02 -0.01,-0.03 -0.12,0.01 -0.25,0.01 -0.37,0.02 -0.13,0 -0.26,0 -0.39,-0.01 0,0.02 0,0.03 0,0.06 -0.01,0.02 -0.01,0.04 -0.01,0.07 -0.01,0.02 -0.01,0.04 -0.02,0.07 0,0.02 0,0.04 0,0.06 -0.02,0.05 -0.05,0.09 -0.09,0.11 -0.05,0.03 -0.1,0.05 -0.16,0.05 -0.05,0.01 -0.11,0 -0.16,-0.02 -0.05,-0.03 -0.08,-0.06 -0.11,-0.11 -0.01,-0.04 -0.02,-0.11 -0.02,-0.22 0,-0.1 0.01,-0.23 0.03,-0.37 0.01,-0.14 0.04,-0.29 0.07,-0.46 0.03,-0.16 0.07,-0.33 0.12,-0.48 0.04,-0.16 0.1,-0.3 0.16,-0.44 0.06,-0.13 0.13,-0.24 0.21,-0.32 0.05,-0.05 0.11,-0.1 0.17,-0.13 0.07,-0.04 0.14,-0.06 0.22,-0.06 0.12,0 0.22,0.03 0.32,0.09 0.09,0.06 0.17,0.14 0.23,0.24 0.07,0.1 0.12,0.2 0.16,0.32 0.05,0.11 0.08,0.22 0.1,0.32 0.01,0.06 0.03,0.14 0.04,0.22 0.02,0.09 0.03,0.18 0.05,0.27 0.01,0.1 0.02,0.19 0.03,0.28 0.02,0.09 0.03,0.18 0.04,0.26 0.01,0.08 0.01,0.15 0.02,0.2 0,0.06 0.01,0.1 0.01,0.13zm-1.33 -0.72c0.09,-0.02 0.19,-0.03 0.29,-0.04 0.09,0 0.19,-0.01 0.3,-0.02 -0.01,-0.05 -0.02,-0.1 -0.03,-0.16 -0.01,-0.06 -0.02,-0.12 -0.04,-0.18 -0.01,-0.06 -0.02,-0.12 -0.04,-0.18 -0.02,-0.05 -0.04,-0.11 -0.07,-0.16 -0.03,-0.07 -0.06,-0.1 -0.09,-0.09 -0.03,0.01 -0.06,0.03 -0.09,0.09 -0.05,0.1 -0.1,0.22 -0.13,0.34 -0.03,0.12 -0.07,0.25 -0.1,0.4zm1.83 -1.61c0.14,-0.01 0.3,0 0.45,0.03 0.15,0.03 0.29,0.08 0.4,0.15 0.11,0.08 0.2,0.17 0.27,0.27 0.07,0.1 0.11,0.22 0.13,0.34 0.02,0.12 0.02,0.24 -0.01,0.37 -0.03,0.12 -0.09,0.23 -0.18,0.35 -0.08,0.11 -0.19,0.2 -0.34,0.28 0.03,0.04 0.06,0.07 0.1,0.1 0.04,0.03 0.09,0.06 0.13,0.08 0.05,0.03 0.1,0.05 0.15,0.07 0.06,0.02 0.11,0.04 0.15,0.05 0.04,0 0.06,0.03 0.06,0.07 0.01,0.05 0,0.1 -0.01,0.16 -0.02,0.05 -0.05,0.1 -0.08,0.15 -0.03,0.05 -0.07,0.07 -0.12,0.08 -0.06,0 -0.13,-0.02 -0.21,-0.05 -0.07,-0.03 -0.15,-0.07 -0.22,-0.11 -0.08,-0.05 -0.15,-0.1 -0.22,-0.15 -0.06,-0.05 -0.12,-0.1 -0.17,-0.14 0,0.04 0,0.08 0,0.12 0,0.04 0.01,0.07 0.01,0.11 0,0.03 0,0.05 0,0.07 0,0.02 0,0.03 0,0.04 0.01,0.02 0,0.05 -0.03,0.07 -0.03,0.02 -0.06,0.04 -0.1,0.06 -0.05,0.01 -0.1,0.02 -0.15,0.02 -0.05,0 -0.1,0 -0.15,-0.01 -0.05,-0.01 -0.09,-0.03 -0.13,-0.05 -0.04,-0.03 -0.07,-0.06 -0.08,-0.11 -0.01,-0.04 -0.03,-0.12 -0.04,-0.23 -0.01,-0.12 -0.01,-0.25 -0.02,-0.4 0,-0.14 -0.01,-0.3 -0.01,-0.47 -0.01,-0.16 -0.01,-0.32 -0.01,-0.47 0,-0.15 0,-0.28 0,-0.39 0,-0.12 0,-0.2 0,-0.24 -0.01,-0.05 0,-0.09 0.03,-0.12 0.02,-0.03 0.05,-0.05 0.09,-0.07 0.03,-0.02 0.08,-0.03 0.13,-0.04 0.06,0 0.12,0 0.18,0.01zm0.18 0.52c0.02,0.14 0.03,0.29 0.03,0.44 0.01,0.16 0.01,0.31 0.02,0.45 0.1,-0.01 0.18,-0.04 0.26,-0.08 0.07,-0.05 0.12,-0.11 0.16,-0.18 0.04,-0.06 0.07,-0.13 0.07,-0.21 0.01,-0.07 -0.01,-0.14 -0.04,-0.2 -0.04,-0.06 -0.1,-0.12 -0.18,-0.16 -0.08,-0.04 -0.19,-0.06 -0.32,-0.06zm2.9 -0.59c0.02,-0.01 0.03,0.01 0.05,0.03 0.01,0.03 0.02,0.07 0.03,0.11 0.01,0.04 0.01,0.09 0.01,0.14 0.01,0.06 0,0.11 -0.01,0.16 -0.01,0.05 -0.02,0.09 -0.04,0.13 -0.02,0.04 -0.05,0.06 -0.08,0.07 -0.04,0.02 -0.11,0.03 -0.19,0.03 -0.09,0 -0.18,0 -0.28,0 0,0.05 0,0.13 0,0.23 0,0.1 0,0.22 0.01,0.34 0,0.12 0.01,0.25 0.02,0.39 0,0.13 0.01,0.25 0.02,0.36 0.01,0.12 0.01,0.21 0.02,0.29 0.01,0.08 0.01,0.13 0.02,0.15 0.01,0.02 0,0.05 -0.03,0.07 -0.02,0.02 -0.05,0.04 -0.1,0.05 -0.04,0.02 -0.09,0.03 -0.14,0.04 -0.05,0 -0.1,0 -0.15,0 -0.05,-0.01 -0.1,-0.02 -0.14,-0.04 -0.04,-0.02 -0.06,-0.05 -0.08,-0.09 -0.02,-0.05 -0.03,-0.12 -0.05,-0.22 -0.01,-0.09 -0.02,-0.19 -0.02,-0.3 -0.01,-0.11 -0.01,-0.23 -0.01,-0.35 0,-0.13 0,-0.25 0,-0.37 0.01,-0.12 0.01,-0.23 0.02,-0.33 0,-0.1 0.01,-0.19 0.02,-0.26 -0.11,-0.01 -0.2,-0.02 -0.28,-0.02 -0.07,-0.01 -0.12,-0.02 -0.13,-0.02 -0.01,0 -0.02,-0.01 -0.04,-0.01 -0.01,0 -0.03,0 -0.05,-0.02 -0.02,-0.01 -0.04,-0.04 -0.06,-0.07 -0.02,-0.03 -0.02,-0.08 -0.03,-0.14 0,-0.09 0,-0.15 0.02,-0.2 0.01,-0.04 0.03,-0.08 0.05,-0.1 0.03,-0.02 0.06,-0.03 0.09,-0.03 0,0 0.04,0 0.12,0 0.08,0 0.17,-0.01 0.28,-0.01 0.11,0 0.24,0 0.37,0 0.13,0 0.25,0 0.36,-0.01 0.11,0 0.21,0 0.28,0 0.08,0 0.12,0 0.12,0zm1.25 0.98c0.05,0.02 0.11,0.04 0.16,0.06 0.06,0.02 0.11,0.03 0.16,0.05 0.05,0.02 0.1,0.03 0.14,0.04 0.05,0.01 0.08,0.03 0.11,0.03 0.1,0.04 0.21,0.08 0.3,0.13 0.1,0.05 0.18,0.11 0.25,0.2 0.06,0.08 0.1,0.17 0.11,0.26 0,0.09 -0.01,0.18 -0.05,0.26 -0.03,0.09 -0.09,0.17 -0.17,0.24 -0.08,0.07 -0.17,0.13 -0.29,0.18 -0.09,0.04 -0.19,0.06 -0.29,0.08 -0.11,0.02 -0.22,0.03 -0.33,0.03 -0.1,0 -0.21,-0.01 -0.31,-0.03 -0.1,-0.02 -0.2,-0.06 -0.28,-0.1 -0.05,-0.02 -0.08,-0.05 -0.12,-0.08 -0.03,-0.03 -0.06,-0.07 -0.08,-0.12 -0.02,-0.08 -0.02,-0.15 0,-0.22 0.01,-0.06 0.05,-0.1 0.09,-0.14 0.05,-0.04 0.1,-0.06 0.16,-0.06 0.07,0 0.13,0.01 0.19,0.04 0.04,0.01 0.07,0.02 0.11,0.04 0.04,0.01 0.08,0.02 0.13,0.03 0.04,0.01 0.08,0.02 0.12,0.03 0.05,0 0.09,0.01 0.13,0 0.09,-0.01 0.15,-0.02 0.18,-0.05 0.03,-0.02 0.04,-0.04 0.03,-0.07 -0.01,-0.03 -0.04,-0.06 -0.08,-0.09 -0.03,-0.03 -0.08,-0.05 -0.13,-0.07 -0.1,-0.04 -0.21,-0.07 -0.31,-0.09 -0.1,-0.02 -0.2,-0.05 -0.3,-0.08 -0.16,-0.05 -0.29,-0.13 -0.39,-0.23 -0.1,-0.11 -0.16,-0.22 -0.19,-0.34 -0.04,-0.13 -0.03,-0.25 0.02,-0.38 0.04,-0.13 0.13,-0.24 0.27,-0.34 0.06,-0.05 0.15,-0.09 0.24,-0.13 0.1,-0.03 0.2,-0.05 0.31,-0.07 0.11,-0.02 0.23,-0.02 0.34,-0.01 0.12,0.01 0.22,0.02 0.32,0.05 0.1,0.04 0.19,0.08 0.27,0.14 0.08,0.06 0.13,0.13 0.17,0.21 0.02,0.07 0.03,0.13 0.01,0.2 -0.01,0.06 -0.03,0.11 -0.06,0.14 -0.03,0.03 -0.05,0.05 -0.08,0.06 -0.03,0.01 -0.06,0.01 -0.09,0.01 -0.02,0 -0.05,-0.01 -0.08,-0.03 -0.02,-0.01 -0.04,-0.03 -0.07,-0.05 -0.04,-0.04 -0.1,-0.08 -0.19,-0.11 -0.08,-0.04 -0.17,-0.06 -0.26,-0.06 -0.09,-0.01 -0.17,-0.01 -0.25,0.01 -0.08,0.02 -0.13,0.06 -0.17,0.12 -0.03,0.05 -0.02,0.1 0.01,0.15 0.03,0.05 0.11,0.11 0.24,0.16zm3.75 0.5c0.02,-0.05 0.05,-0.08 0.09,-0.1 0.04,-0.02 0.08,-0.03 0.12,-0.03 0.05,0.01 0.09,0.02 0.14,0.05 0.04,0.02 0.08,0.06 0.11,0.1 0.03,0.04 0.05,0.09 0.07,0.15 0.01,0.06 0,0.12 -0.02,0.19 -0.06,0.17 -0.16,0.31 -0.29,0.42 -0.14,0.11 -0.3,0.17 -0.47,0.18 -0.12,0.01 -0.23,-0.01 -0.33,-0.04 -0.09,-0.04 -0.18,-0.09 -0.27,-0.16 -0.08,-0.06 -0.15,-0.14 -0.21,-0.23 -0.06,-0.08 -0.11,-0.18 -0.16,-0.28 -0.04,-0.1 -0.07,-0.2 -0.09,-0.31 -0.02,-0.1 -0.03,-0.2 -0.04,-0.3 0,-0.15 0.02,-0.29 0.07,-0.43 0.04,-0.14 0.1,-0.27 0.19,-0.39 0.08,-0.11 0.18,-0.2 0.29,-0.28 0.12,-0.08 0.25,-0.13 0.4,-0.14 0.13,-0.02 0.26,-0.01 0.37,0.03 0.11,0.03 0.21,0.09 0.29,0.16 0.09,0.07 0.15,0.16 0.19,0.26 0.04,0.11 0.06,0.22 0.06,0.34 -0.01,0.05 -0.02,0.1 -0.05,0.14 -0.03,0.04 -0.06,0.07 -0.1,0.09 -0.03,0.02 -0.08,0.03 -0.12,0.04 -0.04,0 -0.09,0 -0.12,-0.01 -0.04,-0.01 -0.07,-0.03 -0.1,-0.05 -0.03,-0.02 -0.04,-0.06 -0.04,-0.1 0,-0.11 -0.03,-0.19 -0.09,-0.24 -0.06,-0.05 -0.12,-0.07 -0.2,-0.06 -0.09,0.01 -0.17,0.04 -0.23,0.12 -0.06,0.07 -0.11,0.15 -0.13,0.25 -0.03,0.1 -0.05,0.2 -0.05,0.31 0.01,0.12 0.02,0.22 0.05,0.31 0.04,0.1 0.08,0.17 0.14,0.23 0.06,0.06 0.14,0.09 0.23,0.08 0.06,-0.01 0.12,-0.03 0.17,-0.08 0.06,-0.05 0.1,-0.12 0.13,-0.22zm1.59 -1.64c0.14,-0.01 0.28,0.02 0.39,0.09 0.11,0.07 0.21,0.16 0.29,0.28 0.08,0.11 0.15,0.25 0.19,0.4 0.04,0.15 0.07,0.3 0.07,0.46 0.01,0.16 0,0.32 -0.03,0.47 -0.04,0.15 -0.09,0.29 -0.16,0.42 -0.07,0.12 -0.16,0.22 -0.27,0.3 -0.11,0.08 -0.25,0.12 -0.4,0.13 -0.16,0.01 -0.3,-0.02 -0.43,-0.09 -0.12,-0.07 -0.22,-0.16 -0.31,-0.27 -0.08,-0.12 -0.14,-0.25 -0.19,-0.4 -0.04,-0.15 -0.06,-0.31 -0.06,-0.47 -0.01,-0.16 0.01,-0.32 0.05,-0.47 0.03,-0.16 0.09,-0.3 0.16,-0.42 0.08,-0.13 0.18,-0.23 0.29,-0.31 0.11,-0.07 0.25,-0.12 0.41,-0.12zm0.39 1.21c-0.01,-0.15 -0.03,-0.27 -0.07,-0.36 -0.03,-0.1 -0.08,-0.17 -0.13,-0.21 -0.06,-0.04 -0.12,-0.06 -0.18,-0.06 -0.06,0.01 -0.12,0.04 -0.18,0.09 -0.05,0.06 -0.09,0.13 -0.13,0.23 -0.04,0.1 -0.06,0.22 -0.06,0.37 0,0.17 0.02,0.31 0.06,0.42 0.03,0.11 0.08,0.19 0.14,0.24 0.05,0.05 0.12,0.07 0.18,0.07 0.07,-0.01 0.13,-0.04 0.19,-0.1 0.05,-0.06 0.1,-0.15 0.13,-0.27 0.04,-0.11 0.05,-0.25 0.05,-0.42zm3.17 -1.1c-0.04,0.34 -0.05,0.69 -0.03,1.05 0.01,0.35 0.04,0.7 0.09,1.06 0,0.03 0,0.06 0,0.09 -0.01,0.03 -0.02,0.05 -0.03,0.07 -0.02,0.02 -0.05,0.04 -0.09,0.06 -0.03,0.01 -0.08,0.03 -0.15,0.04 -0.08,0.01 -0.15,0.01 -0.22,-0.01 -0.08,-0.01 -0.12,-0.05 -0.15,-0.12 -0.01,-0.03 -0.02,-0.07 -0.03,-0.12 0,-0.06 -0.01,-0.12 -0.02,-0.19 -0.01,-0.07 -0.01,-0.15 -0.01,-0.23 -0.01,-0.08 -0.01,-0.16 -0.02,-0.24 0,-0.08 0,-0.15 -0.01,-0.22 0,-0.07 0,-0.13 0,-0.17 -0.01,0.01 -0.02,0.04 -0.05,0.09 -0.03,0.05 -0.06,0.1 -0.1,0.15 -0.04,0.05 -0.07,0.1 -0.11,0.15 -0.04,0.05 -0.07,0.08 -0.09,0.1 -0.05,0.05 -0.12,0.08 -0.2,0.08 -0.08,0 -0.14,-0.02 -0.19,-0.06 -0.07,-0.05 -0.13,-0.12 -0.2,-0.22 -0.08,-0.09 -0.14,-0.19 -0.21,-0.28 0.01,0.13 0.01,0.27 0.02,0.4 0,0.14 0,0.27 0.01,0.38 0,0.12 0,0.21 0,0.29 0,0.07 0,0.11 0,0.12 0.01,0.03 0,0.05 -0.03,0.07 -0.03,0.02 -0.06,0.04 -0.11,0.05 -0.04,0.02 -0.09,0.02 -0.14,0.02 -0.06,0 -0.11,0 -0.16,-0.01 -0.05,-0.02 -0.09,-0.04 -0.13,-0.06 -0.04,-0.03 -0.06,-0.06 -0.07,-0.11 -0.01,-0.04 -0.02,-0.12 -0.03,-0.23 0,-0.11 0,-0.24 -0.01,-0.38 0,-0.14 0,-0.29 0.01,-0.45 0,-0.16 0,-0.31 0,-0.45 0,-0.15 0,-0.27 0.01,-0.38 0,-0.11 0,-0.19 -0.01,-0.24 0,-0.01 0,-0.02 0,-0.05 0.01,-0.02 0.01,-0.05 0.02,-0.08 0.01,-0.03 0.03,-0.06 0.07,-0.09 0.03,-0.02 0.07,-0.04 0.13,-0.05 0.1,-0.01 0.16,-0.01 0.21,0.01 0.04,0.01 0.07,0.04 0.1,0.07 0.04,0.06 0.09,0.12 0.15,0.2 0.06,0.08 0.12,0.16 0.19,0.25 0.06,0.08 0.13,0.17 0.19,0.25 0.06,0.09 0.11,0.16 0.16,0.21 0.03,-0.04 0.06,-0.09 0.1,-0.15 0.04,-0.05 0.08,-0.11 0.13,-0.18 0.04,-0.06 0.08,-0.12 0.13,-0.18 0.04,-0.07 0.08,-0.12 0.12,-0.18 0.03,-0.05 0.07,-0.1 0.1,-0.14 0.02,-0.04 0.05,-0.07 0.06,-0.09 0.03,-0.04 0.08,-0.07 0.15,-0.09 0.07,-0.02 0.14,-0.03 0.21,-0.03 0.07,0 0.13,0.02 0.18,0.06 0.05,0.03 0.07,0.08 0.06,0.16z"/>
   <path class="fil0" d="M31.6 2.36c-0.01,0.12 -0.01,0.26 -0.02,0.4 0,0.14 0,0.29 0,0.43 0.01,0.15 0.01,0.29 0.02,0.43 0,0.14 0.01,0.26 0.02,0.38 0,0.12 0.01,0.22 0.02,0.3 0.01,0.08 0.02,0.14 0.03,0.18 0,0.03 0,0.06 -0.03,0.09 -0.02,0.03 -0.06,0.05 -0.1,0.07 -0.04,0.02 -0.09,0.04 -0.14,0.05 -0.05,0.01 -0.1,0.01 -0.15,0 -0.05,-0.01 -0.1,-0.02 -0.14,-0.05 -0.04,-0.02 -0.06,-0.06 -0.08,-0.11 -0.02,-0.08 -0.03,-0.18 -0.04,-0.3 -0.01,-0.12 -0.02,-0.26 -0.03,-0.4 0,-0.15 0,-0.29 0,-0.45 0,-0.15 0.01,-0.29 0.01,-0.43 0.01,-0.14 0.01,-0.26 0.02,-0.37 0.01,-0.11 0.02,-0.19 0.03,-0.25 0,-0.01 0.01,-0.03 0.02,-0.07 0,-0.03 0.03,-0.06 0.08,-0.1 0.04,-0.01 0.09,-0.03 0.15,-0.04 0.06,-0.01 0.12,0 0.17,0.01 0.08,0.01 0.13,0.04 0.14,0.08 0.02,0.03 0.02,0.08 0.02,0.15zm1.53 1.34c0.02,-0.05 0.05,-0.08 0.08,-0.1 0.04,-0.02 0.08,-0.03 0.13,-0.03 0.04,0.01 0.09,0.02 0.13,0.05 0.05,0.02 0.09,0.06 0.12,0.1 0.03,0.04 0.05,0.09 0.06,0.15 0.01,0.06 0.01,0.12 -0.01,0.19 -0.06,0.17 -0.16,0.31 -0.3,0.42 -0.13,0.11 -0.29,0.17 -0.47,0.18 -0.11,0.01 -0.22,-0.01 -0.32,-0.04 -0.1,-0.04 -0.19,-0.09 -0.27,-0.16 -0.08,-0.06 -0.15,-0.14 -0.21,-0.23 -0.07,-0.08 -0.12,-0.18 -0.16,-0.28 -0.04,-0.1 -0.07,-0.2 -0.09,-0.31 -0.03,-0.1 -0.04,-0.2 -0.04,-0.3 0,-0.15 0.02,-0.29 0.06,-0.43 0.05,-0.14 0.11,-0.27 0.19,-0.39 0.08,-0.11 0.18,-0.2 0.3,-0.28 0.12,-0.08 0.25,-0.13 0.4,-0.14 0.13,-0.02 0.25,-0.01 0.37,0.03 0.11,0.03 0.21,0.09 0.29,0.16 0.08,0.07 0.15,0.16 0.19,0.26 0.04,0.11 0.06,0.22 0.05,0.33 0,0.06 -0.02,0.11 -0.04,0.15 -0.03,0.04 -0.06,0.07 -0.1,0.09 -0.04,0.02 -0.08,0.03 -0.12,0.04 -0.05,0 -0.09,0 -0.13,-0.01 -0.04,-0.01 -0.07,-0.03 -0.09,-0.05 -0.03,-0.02 -0.04,-0.06 -0.04,-0.1 0,-0.11 -0.03,-0.19 -0.09,-0.24 -0.06,-0.05 -0.13,-0.07 -0.2,-0.06 -0.1,0.01 -0.17,0.04 -0.23,0.12 -0.06,0.07 -0.11,0.15 -0.14,0.25 -0.03,0.1 -0.04,0.2 -0.04,0.31 0,0.12 0.02,0.22 0.05,0.31 0.03,0.1 0.08,0.17 0.14,0.23 0.06,0.06 0.13,0.09 0.22,0.08 0.06,-0.01 0.12,-0.03 0.18,-0.08 0.06,-0.05 0.1,-0.12 0.13,-0.22z"/>
  </g>
  <polygon class="fil4" points="9.82,6.03 30.42,5.2 29.79,8.3 9.16,8.56 9.82,6.03 "/>
  <path class="fil3" d="M30.39 5.34l-20.57 0.69 -0.53 2.42 20 -0.31 1.1 -2.8 0 0zm-20.66 0.5l20.95 -0.82c-0.22,1.02 -0.62,2.52 -0.85,3.55 -6.94,0.09 -14.16,0.22 -21.1,0.31l0.92 -3.04 0.08 0 0 0z"/>
  <path class="fil5" d="M10.84 7.8c0.01,-0.02 0.01,-0.05 0.02,-0.07 0.01,-0.02 0.01,-0.05 0.02,-0.08 0.01,-0.02 0.02,-0.05 0.03,-0.08 0.01,-0.02 0.02,-0.05 0.04,-0.08 0.01,-0.03 0.02,-0.06 0.03,-0.09 0.01,-0.03 0.03,-0.05 0.04,-0.08 0.02,-0.03 0.03,-0.06 0.05,-0.09 0.01,-0.03 0.03,-0.06 0.04,-0.09 0.02,-0.02 0.03,-0.05 0.05,-0.08 0.01,-0.03 0.03,-0.05 0.05,-0.08 0.01,-0.02 0.03,-0.04 0.04,-0.07 0.02,-0.02 0.04,-0.04 0.05,-0.06l0.02 -0.02 0.02 -0.02c0,-0.01 0.01,-0.02 0.02,-0.03 0.01,0 0.02,-0.01 0.02,-0.02 0.01,-0.01 0.02,-0.02 0.03,-0.03 0.01,-0.01 0.02,-0.01 0.03,-0.02 0.01,-0.01 0.02,-0.02 0.03,-0.03 0.01,0 0.02,-0.01 0.03,-0.02 0.01,-0.01 0.01,-0.01 0.02,-0.02 0.01,0 0.02,-0.01 0.03,-0.01 0.01,-0.01 0.02,-0.01 0.03,-0.01 0.01,-0.01 0.02,-0.01 0.02,-0.01 0.02,0 0.03,0 0.04,0.01 0.01,0 0.02,0 0.02,0 0.01,0.01 0.02,0.01 0.03,0.02 0.01,0 0.02,0.01 0.02,0.01 0.01,0.01 0.01,0.02 0.02,0.03 0.01,0 0.01,0.01 0.01,0.02 0.01,0.01 0.01,0.02 0.01,0.03 0,0.01 0.01,0.02 0.01,0.04 0,0 0,0 0,0.01 0,0 0,0.01 -0.01,0.01l0 0.02c0,0 0,0.01 0,0.01l-0.08 0.46c0.01,-0.02 0.02,-0.03 0.03,-0.05 0.01,-0.02 0.03,-0.04 0.05,-0.07l0.02 -0.04 0.06 -0.09 0.03 -0.04 0.03 -0.04 0.05 -0.07 0.01 -0.02 0.02 -0.02c0,-0.01 0.01,-0.02 0.02,-0.02 0,-0.01 0.01,-0.02 0.01,-0.03 0.01,-0.01 0.02,-0.02 0.03,-0.03 0,-0.01 0.01,-0.02 0.02,-0.03 0.01,0 0.02,-0.01 0.03,-0.02 0.01,-0.01 0.02,-0.02 0.03,-0.03 0.01,-0.01 0.02,-0.02 0.02,-0.03 0.01,-0.01 0.02,-0.02 0.03,-0.02 0.01,-0.01 0.02,-0.02 0.03,-0.03 0.01,0 0.02,-0.01 0.03,-0.01 0.01,-0.01 0.02,-0.01 0.03,-0.01 0.01,-0.01 0.02,-0.01 0.03,-0.01 0.01,0 0.01,0 0.02,0 0.01,0.01 0.01,0.01 0.02,0.01 0,0 0.01,0.01 0.01,0.01 0,0.01 0.01,0.01 0.01,0.02 0,0 0.01,0.01 0.01,0.01 0,0.01 0,0.02 0,0.02 0,0.01 0.01,0.02 0.01,0.03 0,0 0,0.01 0,0.02 0,0.01 0,0.02 0,0.03 0,0.02 0,0.03 -0.01,0.04 0,0.01 0,0.02 0,0.03 0,0.02 -0.01,0.03 -0.01,0.04l0 0.01c0,0.02 0,0.03 -0.01,0.05l0 0.03c0,0.02 -0.01,0.05 -0.01,0.07l-0.02 0.13 -0.02 0.13 -0.02 0.14c0,0.03 0,0.05 -0.01,0.08l-0.01 0.1 -0.01 0.04 0 0.04 -0.01 0.03c0,0.01 0,0.02 0,0.03l-0.01 0.01c0,0 0,0.01 0,0.02 0,0 -0.01,0.01 -0.01,0.02 0,0 -0.01,0.01 -0.01,0.02 -0.01,0 -0.01,0.01 -0.02,0.01 0,0.01 -0.01,0.01 -0.02,0.01 -0.01,0.01 -0.01,0.01 -0.02,0.01 -0.01,0 -0.01,0 -0.02,0 0,0 -0.01,-0.01 -0.01,-0.01 -0.01,0 -0.01,-0.01 -0.01,-0.01 -0.01,0 -0.01,-0.01 -0.01,-0.01 -0.01,-0.01 -0.01,-0.01 -0.01,-0.02 -0.01,0 -0.01,-0.01 -0.01,-0.01 0,-0.01 0,-0.01 -0.01,-0.02 0,0 0,-0.01 0,-0.01 0,-0.04 0.14,-0.73 0.15,-0.83l0.01 -0.03c0,0 0,0 0,0 0,-0.01 0,-0.01 0,-0.01 0,-0.01 0,-0.01 0,-0.01 0,0 0,-0.01 0,-0.01 -0.01,0 -0.01,-0.01 -0.01,-0.01l0 -0.01c-0.01,0.01 -0.02,0.02 -0.04,0.03 -0.01,0.01 -0.02,0.03 -0.04,0.04 -0.01,0.02 -0.02,0.03 -0.04,0.05 -0.01,0.01 -0.03,0.03 -0.04,0.05 -0.01,0.02 -0.03,0.04 -0.04,0.06 -0.02,0.02 -0.03,0.04 -0.05,0.06 -0.01,0.02 -0.02,0.04 -0.04,0.06 -0.01,0.02 -0.02,0.04 -0.04,0.06 -0.01,0.02 -0.02,0.03 -0.03,0.05 -0.01,0.02 -0.02,0.04 -0.03,0.05l-0.07 0.11c-0.01,0.02 -0.02,0.04 -0.03,0.06 -0.01,0.01 -0.02,0.03 -0.04,0.05 -0.01,0.02 -0.02,0.04 -0.03,0.05 -0.01,0.02 -0.02,0.04 -0.02,0.05 -0.01,0.01 -0.01,0.02 -0.02,0.03 0,0.01 -0.01,0.02 -0.01,0.03 0,0.02 -0.01,0.03 -0.01,0.04 -0.01,0.01 -0.01,0.03 -0.02,0.04 0,0.01 -0.01,0.02 -0.02,0.03 0,0.01 -0.01,0.02 -0.01,0.03 -0.01,0.01 -0.02,0.02 -0.03,0.02 0,0.01 -0.01,0.01 -0.02,0.01 -0.01,0 -0.01,0 -0.02,0 -0.01,0 -0.01,-0.01 -0.02,-0.01 0,0 0,0 -0.01,0 0,-0.01 -0.01,-0.01 -0.01,-0.01 0,-0.01 0,-0.01 -0.01,-0.01 0,-0.01 0,-0.01 0,-0.02 0,0 0,-0.01 0,-0.01 0,-0.01 0,-0.01 0,-0.02 0,0 0,-0.01 0,-0.02 0,0 0,-0.01 0,-0.01 0,-0.01 0,-0.02 0,-0.02l0.01 -0.02c0,-0.03 0.01,-0.05 0.01,-0.08 0.01,-0.02 0.01,-0.05 0.02,-0.07 0.01,-0.04 0.02,-0.09 0.03,-0.14l0.04 -0.17c0.01,-0.03 0.01,-0.06 0.02,-0.08 0.01,-0.03 0.01,-0.06 0.02,-0.09l0.01 -0.02c0,-0.02 0,-0.03 0,-0.04l0 0c0.01,-0.03 0.01,-0.05 0.02,-0.07 0,-0.01 0,-0.02 0,-0.03 0,-0.01 0,-0.02 0,-0.03 0.01,-0.01 0.01,-0.02 0.01,-0.03 0,-0.01 0,-0.02 0,-0.03 0,-0.01 0,-0.01 0,-0.02 0,0 -0.01,-0.01 -0.01,-0.01 0,-0.01 0,-0.01 0,-0.01 0,0 0,0 -0.01,0 -0.01,0 -0.02,0 -0.03,0 -0.01,0.01 -0.02,0.01 -0.03,0.02 -0.01,0.01 -0.02,0.02 -0.03,0.03 -0.01,0.01 -0.03,0.02 -0.04,0.03 -0.01,0.02 -0.02,0.03 -0.03,0.05 -0.01,0.01 -0.02,0.03 -0.03,0.04 -0.01,0.02 -0.03,0.04 -0.04,0.05 -0.01,0.02 -0.02,0.04 -0.03,0.05 -0.01,0.02 -0.02,0.04 -0.02,0.06 -0.01,0.01 -0.02,0.03 -0.03,0.05 -0.01,0.01 -0.02,0.03 -0.02,0.05 -0.01,0.01 -0.02,0.03 -0.02,0.04l-0.01 0c0,0.01 0,0.01 -0.01,0.02l0 0.01c0,0.01 -0.01,0.02 -0.02,0.03l-0.01 0.03 -0.02 0.04c0,0.02 -0.01,0.03 -0.01,0.05 -0.01,0.02 -0.02,0.04 -0.03,0.06 -0.01,0.02 -0.01,0.04 -0.02,0.07 -0.01,0.02 -0.02,0.05 -0.03,0.08 -0.01,0.03 -0.02,0.06 -0.04,0.09 -0.01,0.04 -0.02,0.08 -0.03,0.12 0,0 -0.01,0.01 -0.01,0.02 -0.01,0 -0.01,0.01 -0.02,0.01 -0.01,0.01 -0.01,0.01 -0.02,0.01 -0.01,0 -0.01,0.01 -0.02,0.01 -0.01,0 -0.03,-0.01 -0.04,-0.01 -0.01,0 -0.02,-0.01 -0.03,-0.02 0,-0.01 -0.01,-0.01 -0.01,-0.02 -0.01,-0.01 -0.01,-0.03 -0.01,-0.04 0,0 0,-0.01 0,-0.01 0,-0.01 0,-0.02 0,-0.02zm0.89 -0.91l-0.03 0.21c0.01,-0.07 0.03,-0.14 0.03,-0.21zm0.76 0.51c0.01,-0.02 0.01,-0.04 0.02,-0.07 0,-0.02 0.01,-0.04 0.02,-0.06 0.01,-0.02 0.02,-0.05 0.03,-0.07 0.01,-0.02 0.02,-0.04 0.04,-0.07 0.01,-0.02 0.02,-0.04 0.03,-0.06 0.02,-0.02 0.03,-0.05 0.05,-0.07 0.01,-0.02 0.03,-0.04 0.05,-0.06 0.01,-0.02 0.03,-0.05 0.05,-0.07 0.01,-0.02 0.03,-0.04 0.05,-0.06 0.02,-0.02 0.03,-0.03 0.05,-0.05 0.02,-0.02 0.04,-0.04 0.06,-0.05 0.02,-0.02 0.03,-0.04 0.05,-0.05l0 0c0.01,-0.01 0.02,-0.02 0.03,-0.02 0.01,0 0.02,-0.01 0.02,-0.01 0.01,0 0.02,0 0.03,0 0.01,-0.01 0.01,-0.01 0.02,-0.01 0.01,0 0.02,0 0.03,0 0.01,0.01 0.01,0.01 0.02,0.01 0.01,0 0.02,0.01 0.02,0.01 0.01,0.01 0.02,0.01 0.03,0.02l0 0c0,0 0,0 0,0.01 0.01,0 0.01,0 0.01,0 0,0 0,0 0.01,0 0,0.01 0,0.01 0,0.01 0,0 0,-0.01 0,-0.01l0 0c0,0 0.01,0 0.01,0l0 -0.01 0.01 -0.01c0,0 0,0 0,0 0,0 0,0 0.01,-0.01 0,0 0.01,0 0.01,0 0.01,0 0.01,0 0.02,-0.01 0.01,0 0.01,0 0.02,0 0.01,0 0.01,0 0.02,0 0.01,0 0.03,0 0.04,0 0.01,0.01 0.02,0.01 0.04,0.01 0.01,0.01 0.02,0.01 0.03,0.02 0.01,0.01 0.02,0.01 0.03,0.02 0.02,0.02 0.04,0.04 0.06,0.07 0.02,0.02 0.03,0.04 0.04,0.07 0.01,0.03 0.02,0.06 0.03,0.09 0.01,0.03 0.01,0.06 0.01,0.09 0,0.03 0,0.06 0,0.09 -0.01,0.03 -0.01,0.06 -0.02,0.1 -0.01,0.03 -0.01,0.06 -0.02,0.08 -0.01,0.03 -0.02,0.06 -0.04,0.09 -0.01,0.03 -0.02,0.05 -0.04,0.08 -0.01,0.03 -0.03,0.05 -0.05,0.08 -0.02,0.02 -0.04,0.05 -0.06,0.07 -0.02,0.02 -0.04,0.04 -0.06,0.06 -0.02,0.02 -0.04,0.04 -0.07,0.06 -0.02,0.02 -0.05,0.03 -0.07,0.05 -0.03,0.01 -0.05,0.03 -0.08,0.04 -0.02,0.01 -0.05,0.02 -0.08,0.03 -0.03,0.01 -0.05,0.02 -0.08,0.02 -0.03,0.01 -0.06,0.01 -0.09,0.01 -0.02,0 -0.05,0 -0.07,0 -0.03,-0.01 -0.05,-0.01 -0.07,-0.02 -0.02,-0.01 -0.04,-0.02 -0.06,-0.03 -0.02,-0.01 -0.04,-0.02 -0.05,-0.04 -0.02,-0.01 -0.03,-0.03 -0.04,-0.05 -0.02,-0.01 -0.03,-0.03 -0.03,-0.05 -0.01,-0.02 -0.02,-0.04 -0.02,-0.07 -0.01,-0.02 -0.01,-0.04 -0.01,-0.07 0,-0.01 0,-0.02 0,-0.03 0,-0.01 0,-0.02 0,-0.03 0,-0.01 0,-0.03 0.01,-0.04 0,-0.01 0,-0.02 0,-0.03zm0.72 -0.72l0 0c0,0 0,0 0,0zm-0.57 0.77c0,0.02 0,0.03 0,0.04 0,0.02 -0.01,0.03 -0.01,0.04 0.01,0.03 0.01,0.06 0.02,0.08 0.01,0.01 0.02,0.02 0.02,0.03 0.01,0.01 0.02,0.02 0.03,0.03 0.01,0 0.02,0.01 0.03,0.02 0.01,0 0.03,0.01 0.04,0.01 0.01,0 0.03,0.01 0.04,0.01 0.02,0 0.03,0 0.05,0 0.02,0 0.04,0 0.06,-0.01 0.02,0 0.04,-0.01 0.06,-0.01 0.02,-0.01 0.04,-0.02 0.06,-0.03 0.02,-0.01 0.04,-0.02 0.06,-0.03 0.01,-0.01 0.03,-0.02 0.05,-0.04 0.02,-0.01 0.04,-0.03 0.05,-0.05 0.02,-0.01 0.04,-0.03 0.05,-0.05 0.02,-0.02 0.04,-0.04 0.05,-0.06 0.01,-0.02 0.03,-0.04 0.04,-0.07 0.01,-0.02 0.03,-0.04 0.04,-0.07 0.01,-0.02 0.02,-0.05 0.03,-0.08 0.01,-0.02 0.01,-0.05 0.02,-0.08 0,-0.01 0,-0.02 0.01,-0.03 0,-0.01 0,-0.02 0,-0.03 0,-0.01 0,-0.02 0,-0.03 0,-0.01 0,-0.02 0,-0.03 0,-0.02 0,-0.03 0,-0.05 0,-0.02 -0.01,-0.03 -0.01,-0.04 0,-0.02 -0.01,-0.03 -0.02,-0.05 0,-0.01 -0.01,-0.02 -0.02,-0.03 -0.01,-0.01 -0.02,-0.02 -0.03,-0.03 -0.01,-0.01 -0.02,-0.02 -0.03,-0.02 -0.02,-0.01 -0.03,-0.01 -0.05,-0.02 -0.02,0 -0.03,0 -0.05,0 -0.01,0 -0.01,0 -0.01,0 0,0 0,0 0,0.01 -0.01,0 -0.01,0 -0.01,0l0 0.01 -0.01 0.01 0 0.01c0,0.01 -0.01,0.01 -0.01,0.01 0,0.01 0,0.01 -0.01,0.01l0 0c0,0.01 0,0.01 -0.01,0.01 0,0 0,0 -0.01,0.01 0,0 -0.01,0 -0.01,0 -0.01,0 -0.02,0 -0.02,0 -0.01,0 -0.01,0 -0.02,0 0,0 -0.01,0 -0.01,0 0,-0.01 -0.01,-0.01 -0.01,-0.01 -0.01,0 -0.01,-0.01 -0.01,-0.01l-0.01 0c0,0 0,-0.01 0,-0.01l0 0c0,0 0,0 0,0 0,0 -0.01,0 -0.01,0 0,0 0,0 0,0 -0.01,0 -0.01,0 -0.01,0.01l0 0c-0.01,0 -0.01,0 -0.02,0l-0.01 0.01 -0.01 0.01 -0.01 0.01c-0.01,0.01 -0.01,0.01 -0.01,0.01 -0.01,0.01 -0.01,0.01 -0.01,0.01 -0.02,0.02 -0.04,0.04 -0.06,0.06 -0.02,0.03 -0.03,0.05 -0.05,0.07 -0.02,0.03 -0.04,0.05 -0.05,0.07 -0.02,0.03 -0.04,0.05 -0.05,0.08 -0.02,0.02 -0.03,0.05 -0.04,0.07 -0.02,0.03 -0.03,0.05 -0.04,0.08 -0.01,0.02 -0.02,0.05 -0.03,0.07 -0.01,0.03 -0.01,0.05 -0.02,0.07zm1.02 0.22c0.01,-0.01 0.02,-0.02 0.03,-0.03 0.02,0 0.03,-0.01 0.05,-0.01 0.01,0 0.02,-0.01 0.04,-0.01 0.01,0 0.02,0 0.04,0l0.18 -0.85 -0.01 0c-0.01,0 -0.01,0 -0.02,0 -0.01,0 -0.01,0 -0.02,0 0,0 -0.01,0 -0.02,-0.01 0,0 -0.01,0 -0.02,0 0,0 -0.01,0 -0.01,-0.01 -0.01,0 -0.01,0 -0.02,0 0,0 0,-0.01 0,-0.01 0,0 0,-0.01 -0.01,-0.01 0,0 0,-0.01 0,-0.01 -0.01,0 -0.01,-0.01 -0.01,-0.01 0,0 0,-0.01 -0.01,-0.01 0,-0.01 0,-0.01 0,-0.01 0,-0.01 0,-0.01 0,-0.02 -0.01,0 -0.01,0 -0.01,-0.01 0,-0.01 0.01,-0.01 0.01,-0.02 0,0 0.01,-0.01 0.01,-0.01 0.01,-0.01 0.01,-0.01 0.02,-0.02 0.01,0 0.01,0 0.02,-0.01 0.01,0 0.02,0 0.03,0 0.01,-0.01 0.01,-0.01 0.02,-0.01 0.01,0 0.02,0 0.03,0 0.01,0 0.02,0 0.02,0 0.04,-0.01 0.07,-0.01 0.1,-0.01 0.04,0 0.07,0.01 0.1,0.01 0.03,0 0.06,0 0.09,0 0.03,0.01 0.05,0.01 0.08,0.02 0.03,0.01 0.05,0.01 0.08,0.02 0.02,0.01 0.05,0.02 0.07,0.03 0.02,0.02 0.05,0.03 0.07,0.05 0.02,0.02 0.05,0.03 0.07,0.05 0,0.01 0.01,0.02 0.02,0.03 0.01,0.01 0.02,0.02 0.02,0.03 0.01,0.01 0.02,0.02 0.02,0.03 0.01,0.01 0.02,0.02 0.02,0.03 0.01,0.02 0.01,0.03 0.02,0.04 0,0.01 0.01,0.03 0.01,0.04 0.01,0.01 0.01,0.03 0.01,0.04 0,0.02 0,0.03 0,0.05 0,0.01 0,0.01 0,0.02 0,0.01 0,0.02 0,0.03 0,0.01 0,0.02 0,0.02 0,0.01 0,0.02 0,0.03l0 0c-0.01,0.03 -0.02,0.06 -0.03,0.09 -0.01,0.03 -0.02,0.05 -0.04,0.08 -0.01,0.03 -0.03,0.05 -0.04,0.07 -0.02,0.03 -0.04,0.05 -0.06,0.07 -0.01,0.02 -0.03,0.04 -0.06,0.05 -0.02,0.02 -0.04,0.04 -0.06,0.05 -0.02,0.02 -0.05,0.03 -0.07,0.04 -0.02,0.02 -0.05,0.03 -0.07,0.04 -0.03,0.01 -0.05,0.02 -0.08,0.03 -0.02,0.01 -0.05,0.02 -0.07,0.03 -0.03,0.01 -0.06,0.02 -0.08,0.03 -0.02,0 -0.05,0.01 -0.07,0.02l0 0c-0.01,0 -0.02,0 -0.04,0.01 -0.01,0 -0.02,0 -0.03,0.01 -0.02,0 -0.03,0 -0.04,0 -0.01,0.01 -0.03,0.01 -0.04,0.01 -0.01,0 -0.02,0.01 -0.04,0.01 -0.01,0 -0.02,0 -0.04,0 -0.01,0 -0.02,0 -0.03,0 -0.01,0.01 -0.03,0.01 -0.04,0.01 -0.01,0 -0.02,0 -0.03,0 -0.01,0 -0.02,0 -0.03,-0.01 -0.01,0 -0.02,0 -0.02,0 -0.01,0 -0.02,-0.01 -0.02,-0.01 -0.01,0 -0.01,0 -0.02,-0.01 0,0 0,0 -0.01,-0.01 0,0 0,0 0,-0.01 0,0 0,-0.01 0,-0.01 0,-0.01 0,-0.01 0,-0.02 0,0 0,-0.01 0,-0.02 0.01,0 0.01,-0.01 0.02,-0.02 0,0 0.01,-0.01 0.02,-0.01zm0.36 -0.25l-0.01 0.09 -0.02 0.08 0.01 0 0.02 -0.01c0.01,0 0.02,0 0.03,-0.01 0.01,0 0.02,0 0.03,-0.01 0.02,0 0.03,0 0.04,-0.01 0.02,0 0.03,-0.01 0.05,-0.01 0.01,-0.01 0.02,-0.01 0.04,-0.02 0.01,-0.01 0.03,-0.01 0.04,-0.02 0.02,-0.01 0.04,-0.02 0.05,-0.03 0.02,0 0.04,-0.01 0.05,-0.02 0.02,-0.01 0.04,-0.02 0.05,-0.03 0.02,-0.02 0.03,-0.03 0.05,-0.04 0.01,-0.01 0.03,-0.02 0.04,-0.03 0.02,-0.02 0.03,-0.03 0.04,-0.04 0.02,-0.02 0.03,-0.03 0.04,-0.05 0.01,-0.01 0.02,-0.02 0.03,-0.04 0.01,-0.01 0.02,-0.03 0.02,-0.05 0.01,-0.01 0.01,-0.03 0.02,-0.04 0,-0.02 0,-0.03 0,-0.05 0,-0.02 0,-0.03 -0.01,-0.05 0,-0.02 -0.01,-0.03 -0.01,-0.05 -0.01,-0.01 -0.02,-0.03 -0.03,-0.04 -0.01,-0.01 -0.02,-0.03 -0.03,-0.04 -0.01,-0.01 -0.02,-0.02 -0.04,-0.03 -0.01,-0.02 -0.02,-0.03 -0.04,-0.04 -0.01,-0.01 -0.03,-0.01 -0.04,-0.02 -0.02,-0.01 -0.04,-0.02 -0.05,-0.03 -0.02,0 -0.03,-0.01 -0.05,-0.01 -0.02,-0.01 -0.03,-0.01 -0.05,-0.02 -0.02,0 -0.03,0 -0.05,0 -0.01,0 -0.03,0 -0.04,0 -0.02,0.05 -0.04,0.1 -0.05,0.16 -0.02,0.05 -0.04,0.11 -0.05,0.17 -0.01,0.05 -0.03,0.11 -0.04,0.17 -0.01,0.05 -0.02,0.11 -0.04,0.17zm0.89 0.28c-0.01,-0.01 0,-0.02 0,-0.03 0,-0.01 0,-0.02 0,-0.03 0.01,-0.04 0.02,-0.08 0.03,-0.12 0.01,-0.04 0.02,-0.07 0.03,-0.11 0.01,-0.04 0.03,-0.07 0.04,-0.11 0.01,-0.04 0.02,-0.07 0.03,-0.11l0.02 -0.1 0.02 -0.08c0.01,-0.03 0.01,-0.05 0.02,-0.07 0.01,-0.02 0.01,-0.04 0.02,-0.06 0,-0.02 0,-0.04 0.01,-0.05 0,-0.02 0.01,-0.03 0.01,-0.04 0.01,-0.02 0.01,-0.03 0.02,-0.04 0,-0.02 0,-0.03 0.01,-0.04 0,-0.01 0.01,-0.02 0.01,-0.03l0.01 -0.02c0,-0.01 0.01,-0.02 0.01,-0.02 0.01,-0.01 0.01,-0.02 0.02,-0.03 0,0 0.01,-0.01 0.01,-0.01 0.01,-0.01 0.01,-0.02 0.02,-0.02l0 0c0,-0.01 0.01,-0.01 0.01,-0.01 0.01,0 0.01,-0.01 0.02,-0.01 0.01,0 0.02,0 0.03,0.01 0.01,0 0.02,0 0.02,0.01 0.01,0 0.02,0 0.02,0.01 0,0 0.01,0 0.01,0.01 0,0 0.01,0.02 0.01,0.03 0,0 0,0 0.01,0 0,0 0.01,-0.01 0.02,-0.01 0,0 0.01,0 0.02,0l0.02 -0.01 0.02 0 0.01 -0.01 0.02 0c0,0 0.01,0 0.01,0l0 0c0.02,-0.01 0.04,-0.01 0.05,-0.02 0.02,0 0.04,-0.01 0.05,-0.01 0.02,-0.01 0.03,-0.01 0.05,-0.01 0.01,-0.01 0.03,-0.01 0.04,-0.01 0.02,-0.01 0.03,-0.01 0.04,-0.01 0.02,0 0.03,0 0.04,-0.01 0.02,0 0.03,0 0.04,0 0.01,0 0.03,0 0.04,0 0.01,0 0.02,0 0.03,0 0.02,0 0.03,0 0.03,0 0.01,0 0.02,0 0.03,0.01 0,0 0.01,0 0.01,0 0.01,0 0.01,0.01 0.02,0.01 0,0 0,0.01 0.01,0.01 0,0 0,0.01 0,0.01 0,0 0,0.01 0,0.01 0,0.01 0,0.01 0,0.01 0,0.01 0,0.01 0,0.01l0 0c0,0.01 -0.01,0.01 -0.01,0.02 0,0 -0.01,0 -0.01,0.01l0 0c-0.01,0 -0.01,0.01 -0.02,0.01 0,0 -0.01,0 -0.01,0.01 -0.01,0 -0.02,0 -0.03,0 -0.01,0.01 -0.02,0.01 -0.03,0.01 0,0 0,0 -0.01,0l-0.02 0.01 -0.06 0.01 -0.03 0 -0.03 0.01 0.04 0 -0.08 0.01c0,0 -0.01,0 -0.02,0l-0.02 0.01 -0.03 0.01 -0.02 0.01 -0.1 0.03c-0.01,0 -0.03,0.01 -0.05,0.01 -0.01,0.01 -0.03,0.01 -0.04,0.02 -0.02,0.01 -0.03,0.01 -0.05,0.02 -0.01,0.01 -0.02,0.02 -0.03,0.03 -0.01,0.01 -0.02,0.03 -0.02,0.04 -0.01,0.01 -0.02,0.02 -0.02,0.04l0 0c0,0 -0.01,0 -0.01,0.01l-0.01 0.03 -0.01 0.03 0 0.02 -0.03 0.07c0,0.02 -0.01,0.03 -0.01,0.05l0 0c-0.01,0.01 -0.01,0.02 -0.01,0.03l0 0c0,0.01 0,0.01 0,0.01l0 0.01 0 0 0 0c0,0 0.01,0 0.01,0 0.01,0 0.02,-0.01 0.04,-0.01 0.01,0 0.02,-0.01 0.04,-0.01 0.02,-0.01 0.03,-0.01 0.05,-0.02l0.11 -0.04 0.06 -0.02 0.06 -0.02c0.02,-0.01 0.03,-0.01 0.05,-0.02 0.02,0 0.03,-0.01 0.05,-0.01 0.01,0 0.02,-0.01 0.03,-0.01 0.01,0 0.02,0 0.03,0 0.01,0 0.02,0 0.03,0 0,0 0.01,0 0.01,0.01 0.01,0 0.01,0 0.01,0.01 0,0 0,0.01 0,0.01 0,0.01 0,0.02 0,0.03 0,0.01 -0.01,0.02 -0.02,0.03 0,0 -0.01,0.01 -0.02,0.02 -0.01,0 -0.02,0.01 -0.03,0.02 0,0 -0.01,0 -0.01,0 -0.01,0.01 -0.02,0.01 -0.03,0.01 -0.01,0.01 -0.02,0.01 -0.03,0.01 0,0.01 -0.01,0.01 -0.03,0.01l-0.1 0.04 -0.07 0.03 -0.06 0.03 -0.08 0.03 -0.03 0.01 -0.02 0.01c0,0.01 -0.01,0.01 -0.02,0.01l-0.01 0.01c-0.01,0 -0.01,0 -0.02,0l-0.01 0.01 -0.02 0 -0.03 0.01c0,0 0,0.01 -0.01,0.02 0,0.01 0,0.02 0,0.03 -0.01,0.01 -0.01,0.02 -0.01,0.04l-0.01 0.03c0,0.02 -0.01,0.03 -0.01,0.04 0,0.01 0,0.02 -0.01,0.03 0,0.02 0,0.02 0,0.03 0,0.01 0,0.02 0,0.02 0,0 0,0.01 0,0.01 0,0 0,0.01 0,0.01l0 0c0.01,0 0.01,0 0.01,0 0,0.01 0,0.01 0,0.01 0,0 0.01,0 0.01,0 0,0 0,0 0,0l0.01 0c0.02,0 0.03,0 0.05,-0.01 0.01,0 0.03,0 0.05,-0.01 0.02,0 0.04,0 0.05,-0.01 0.02,-0.01 0.04,-0.01 0.06,-0.02 0.02,-0.01 0.03,-0.01 0.05,-0.02 0.01,-0.01 0.03,-0.01 0.04,-0.02l0.07 -0.04c0.01,-0.01 0.03,-0.02 0.04,-0.02 0.01,-0.01 0.02,-0.01 0.03,-0.02 0.01,0 0.02,-0.01 0.03,-0.01 0.02,0 0.03,0 0.04,0 0.01,0 0.01,0 0.01,0l0.01 0c0.01,0 0.01,0 0.01,0 0.01,0 0.01,0 0.02,0 0,0 0,0.01 0.01,0.01 0,0 0,0 0,0.01 0.01,0 0.01,0 0.01,0.01 0,0 0,0 0,0.01l0 0c0,0.01 0,0.01 -0.01,0.02 0,0.01 -0.01,0.02 -0.01,0.03 -0.01,0.01 -0.02,0.01 -0.03,0.02 -0.01,0.01 -0.02,0.02 -0.03,0.03 -0.01,0 -0.02,0.01 -0.03,0.02 -0.01,0.01 -0.02,0.01 -0.04,0.02 -0.01,0.01 -0.02,0.01 -0.04,0.02 -0.01,0.01 -0.02,0.01 -0.04,0.02 -0.01,0.01 -0.02,0.01 -0.04,0.02 -0.01,0 -0.02,0.01 -0.04,0.01 -0.02,0.01 -0.04,0.02 -0.06,0.03l-0.01 0c-0.02,0.01 -0.05,0.02 -0.07,0.03 -0.03,0 -0.05,0.01 -0.08,0.02 -0.02,0 -0.04,0 -0.06,0.01 -0.03,0 -0.05,0 -0.07,0 -0.02,0 -0.04,0 -0.05,0 -0.02,-0.01 -0.04,-0.01 -0.05,-0.02 -0.01,-0.01 -0.02,-0.02 -0.02,-0.03 -0.01,-0.02 -0.01,-0.03 -0.01,-0.05zm1.11 -0.4l0.04 -0.12 0.03 -0.11c0.01,-0.03 0.02,-0.07 0.03,-0.1 0.01,-0.03 0.02,-0.07 0.02,-0.1 0.01,-0.03 0.02,-0.06 0.03,-0.08 0,-0.03 0.01,-0.05 0.01,-0.08 0.01,-0.02 0.01,-0.04 0.01,-0.06 0,-0.02 0.01,-0.03 0.01,-0.05l0 0c0,-0.01 0,-0.02 0.01,-0.04 0.01,-0.01 0.01,-0.02 0.02,-0.02 0.01,-0.01 0.02,-0.02 0.03,-0.02 0.01,-0.01 0.02,-0.01 0.03,-0.01 0.01,0 0.02,0 0.02,0 0.01,0 0.01,0 0.02,0.01 0,0 0.01,0 0.01,0.01 0.01,0 0.01,0.01 0.01,0.01 0.01,0.01 0.01,0.01 0.01,0.02 0,0 0.01,0.01 0.01,0.02 0,0 0,0.01 0,0.02 0,0 0,0.01 0,0.02 0,0 0,0.01 0,0.01 0,0 0,0.01 0,0.01 0,0.01 0,0.01 0,0.01l0 0.02c-0.01,0.02 -0.01,0.05 -0.02,0.08 -0.01,0.02 -0.01,0.05 -0.02,0.08l-0.03 0.08 -0.02 0.08 -0.05 0.18c-0.01,0.02 -0.02,0.05 -0.03,0.08 -0.01,0.03 -0.01,0.06 -0.02,0.08l-0.01 0.06c-0.01,0.01 -0.01,0.03 -0.01,0.04 -0.01,0.02 -0.01,0.03 -0.01,0.04 0,0.02 0,0.03 -0.01,0.04 0,0.01 0,0.02 0,0.03 0,0 0,0 0,0.01 0,0 0.01,0 0.01,0.01 0,0 0,0 0,0 0.01,0 0.01,0 0.01,0 0.02,0 0.03,0 0.04,0 0.01,0 0.03,-0.01 0.04,-0.01 0.02,-0.01 0.03,-0.01 0.05,-0.02 0.02,0 0.03,-0.01 0.05,-0.01 0.01,-0.01 0.03,-0.01 0.05,-0.02 0.01,-0.01 0.03,-0.01 0.05,-0.02l0.04 -0.02c0.02,-0.01 0.03,-0.01 0.04,-0.02l0.08 -0.03 0.11 -0.05c0.02,-0.01 0.04,-0.02 0.07,-0.03 0,0 0,-0.01 0.01,-0.01 0,0 0,0 0.01,0 0,0 0,0 0,0 0.01,0 0.01,0 0.02,0 0,0 0.01,0 0.01,0 0,0.01 0.01,0.01 0.01,0.01 0,0 0,0.01 0.01,0.01 0,0 0,0 0,0.01 0,0 0,0 0,0.01 0.01,0 0.01,0.01 0.01,0.01 0,0 0,0.01 0,0.01 0,0.01 0,0.01 0,0.02 0,0 0,0.01 0,0.01 -0.01,0.01 -0.01,0.01 -0.01,0.02 0,0 0,0 0,0.01l0 0c0,0 -0.01,0.01 -0.01,0.01 -0.01,0.01 -0.01,0.01 -0.02,0.02 0,0 -0.01,0.01 -0.01,0.01 -0.01,0.01 -0.01,0.01 -0.02,0.01 -0.01,0.01 -0.01,0.01 -0.02,0.01 0,0.01 -0.01,0.01 -0.01,0.01 -0.01,0 -0.01,0.01 -0.02,0.01l-0.01 0c-0.04,0.02 -0.07,0.03 -0.11,0.05l-0.1 0.04 -0.09 0.03 -0.08 0.04c-0.02,0 -0.03,0.01 -0.04,0.01 -0.02,0.01 -0.03,0.01 -0.05,0.02 -0.01,0 -0.02,0.01 -0.04,0.01 -0.01,0.01 -0.02,0.01 -0.03,0.01 -0.01,0 -0.02,0 -0.03,0 -0.01,0 -0.02,0 -0.03,0 -0.01,0 -0.02,0 -0.02,0 -0.01,0 -0.02,0 -0.02,-0.01 -0.01,0 -0.01,0 -0.02,0 0,-0.01 -0.01,-0.01 -0.01,-0.01 -0.01,-0.01 -0.01,-0.01 -0.02,-0.01 0,-0.01 -0.01,-0.01 -0.01,-0.02 -0.01,0 -0.02,-0.01 -0.03,-0.01 0,-0.01 -0.01,-0.01 -0.02,-0.02 0,0 -0.01,-0.01 -0.01,-0.02 0,-0.01 -0.01,-0.01 -0.01,-0.02 0,-0.01 0,-0.02 0,-0.03 0,0 0,-0.01 0,-0.01 0,-0.01 0,-0.02 0,-0.02 0,-0.01 0,-0.02 0,-0.03l0 -0.01 0.01 -0.02 0 -0.02c0,0 0,-0.01 0.01,-0.01 0,-0.01 0,-0.02 0,-0.02l0.04 -0.14zm0.96 -0.02c0,-0.03 0.01,-0.05 0.01,-0.07 0.01,-0.02 0.02,-0.04 0.03,-0.06 0.01,-0.03 0.02,-0.05 0.03,-0.07 0.01,-0.02 0.02,-0.05 0.03,-0.07 0.01,-0.02 0.03,-0.04 0.04,-0.07 0.01,-0.02 0.03,-0.04 0.04,-0.06 0.02,-0.02 0.04,-0.05 0.05,-0.07 0.02,-0.02 0.03,-0.04 0.05,-0.06 0.02,-0.02 0.04,-0.04 0.05,-0.06 0.02,-0.02 0.04,-0.04 0.06,-0.06 0.02,-0.01 0.04,-0.03 0.05,-0.05 0.02,-0.01 0.04,-0.03 0.06,-0.05l0 0c0.01,0 0.02,-0.01 0.03,-0.01 0,-0.01 0.01,-0.01 0.02,-0.01 0.01,-0.01 0.02,-0.01 0.02,-0.01 0.01,0 0.02,0 0.03,0 0.01,0 0.02,0 0.02,0 0.01,0 0.02,0 0.03,0.01 0.01,0 0.01,0 0.02,0.01 0.01,0 0.01,0.01 0.02,0.02l0 0c0,0 0.01,0 0.01,0 0,0 0,0.01 0.01,0.01 0,0 0,0 0,0 0,0 0.01,0 0.01,0l0 0c0,0 0,0 0,0l0.01 -0.01 0 -0.01c0,0 0,0 0.01,0 0,-0.01 0,-0.01 0,-0.01 0.01,0 0.01,0 0.02,-0.01 0,0 0.01,0 0.02,0 0,0 0.01,0 0.02,0 0,0 0.01,0 0.02,0 0.01,0 0.02,0 0.04,0 0.01,0 0.02,0.01 0.03,0.01 0.01,0 0.03,0.01 0.04,0.02 0.01,0 0.02,0.01 0.03,0.02 0.02,0.02 0.04,0.04 0.06,0.06 0.01,0.03 0.03,0.05 0.04,0.08 0.01,0.03 0.02,0.06 0.03,0.09 0,0.03 0.01,0.06 0.01,0.09 0,0.03 0,0.06 -0.01,0.09 0,0.03 -0.01,0.06 -0.01,0.09 -0.01,0.03 -0.02,0.06 -0.03,0.09 -0.01,0.03 -0.02,0.06 -0.03,0.09 -0.01,0.02 -0.03,0.05 -0.04,0.08 -0.02,0.02 -0.04,0.05 -0.05,0.07 -0.02,0.03 -0.04,0.05 -0.06,0.07 -0.02,0.03 -0.04,0.05 -0.06,0.07 -0.02,0.02 -0.05,0.04 -0.07,0.06 -0.02,0.01 -0.05,0.03 -0.07,0.05 -0.03,0.01 -0.06,0.02 -0.08,0.04 -0.03,0.01 -0.05,0.02 -0.08,0.03 -0.03,0.01 -0.06,0.01 -0.09,0.02 -0.02,0 -0.05,0.01 -0.08,0.01 -0.03,0 -0.05,0 -0.08,-0.01 -0.02,0 -0.04,-0.01 -0.07,-0.01 -0.02,-0.01 -0.04,-0.02 -0.06,-0.03 -0.01,-0.01 -0.03,-0.03 -0.05,-0.04 -0.01,-0.02 -0.03,-0.03 -0.04,-0.05 -0.01,-0.02 -0.02,-0.04 -0.03,-0.06 -0.01,-0.02 -0.01,-0.04 -0.02,-0.06 0,-0.02 0,-0.05 0,-0.07 -0.01,-0.01 -0.01,-0.02 0,-0.03 0,-0.02 0,-0.03 0,-0.04 0,-0.01 0,-0.02 0,-0.03 0,-0.01 0.01,-0.02 0.01,-0.03zm0.72 -0.73l0 0c0,0 0,0 0,0zm-0.57 0.78c0,0.01 -0.01,0.03 -0.01,0.04 0,0.01 0,0.02 0,0.03 0,0.02 0,0.03 0.01,0.05 0,0.01 0,0.02 0.01,0.04 0,0.01 0.01,0.02 0.02,0.03 0.01,0.01 0.02,0.01 0.03,0.02 0.02,0.02 0.04,0.03 0.07,0.04 0.01,0 0.03,0 0.04,0 0.02,0.01 0.03,0.01 0.05,0.01 0.02,0 0.04,-0.01 0.06,-0.01 0.02,0 0.04,-0.01 0.06,-0.02 0.02,0 0.03,-0.01 0.05,-0.02 0.02,-0.01 0.04,-0.02 0.06,-0.03 0.02,-0.01 0.04,-0.03 0.06,-0.04 0.02,-0.02 0.03,-0.03 0.05,-0.05 0.02,-0.02 0.03,-0.03 0.05,-0.05 0.02,-0.02 0.03,-0.04 0.05,-0.06 0.01,-0.03 0.02,-0.05 0.04,-0.07 0.01,-0.02 0.02,-0.05 0.03,-0.07 0.01,-0.03 0.02,-0.05 0.03,-0.08 0.01,-0.03 0.02,-0.05 0.03,-0.08 0,-0.01 0,-0.02 0,-0.03 0,-0.01 0.01,-0.02 0.01,-0.03 0,-0.01 0,-0.02 0,-0.04 0,-0.01 0,-0.02 0,-0.03 0,-0.01 0,-0.03 -0.01,-0.04 0,-0.02 0,-0.03 0,-0.05 -0.01,-0.01 -0.01,-0.03 -0.02,-0.04 -0.01,-0.01 -0.01,-0.02 -0.02,-0.03 -0.01,-0.02 -0.02,-0.03 -0.03,-0.03 -0.01,-0.01 -0.02,-0.02 -0.04,-0.03 -0.01,0 -0.03,-0.01 -0.04,-0.01 -0.02,0 -0.04,0 -0.06,0 0,0 0,0 0,0 -0.01,0 -0.01,0 -0.01,0 0,0 0,0.01 0,0.01l-0.01 0.01 0 0.01 -0.01 0.01c0,0 0,0.01 0,0.01 0,0 -0.01,0.01 -0.01,0.01l0 0c0,0 -0.01,0 -0.01,0.01 0,0 -0.01,0 -0.01,0 -0.01,0.01 -0.01,0.01 -0.02,0.01 0,0 -0.01,0 -0.02,0 0,0 -0.01,0 -0.01,0 -0.01,0 -0.01,0 -0.01,-0.01 -0.01,0 -0.01,0 -0.02,0 0,-0.01 0,-0.01 -0.01,-0.01l0 -0.01c0,0 0,0 -0.01,0l0 0c0,0 0,0 0,0 0,0 0,0 0,0 0,0 -0.01,0 -0.01,0 0,0 0,0 -0.01,0l0 0c0,0.01 -0.01,0.01 -0.01,0.01l-0.01 0.01 -0.02 0.01c0,0 0,0.01 -0.01,0.01 0,0 0,0.01 -0.01,0.01 0,0 0,0 -0.01,0.01 -0.01,0.02 -0.03,0.04 -0.05,0.06 -0.02,0.02 -0.04,0.05 -0.06,0.07 -0.01,0.02 -0.03,0.05 -0.05,0.07 -0.01,0.02 -0.03,0.05 -0.05,0.07 -0.01,0.03 -0.02,0.05 -0.04,0.08 -0.01,0.02 -0.02,0.05 -0.03,0.07 -0.02,0.03 -0.03,0.05 -0.03,0.08 -0.01,0.02 -0.02,0.05 -0.02,0.07zm1.06 0.14c0.01,0.01 0.02,0.01 0.03,0.01 0.01,0.01 0.02,0.01 0.03,0.02 0.01,0 0.02,0 0.03,0.01 0.01,0 0.02,0.01 0.03,0.01 0.01,0 0.02,0.01 0.04,0.01 0.01,0 0.02,0.01 0.03,0.01 0.01,0 0.02,0 0.04,0 0.01,0 0.02,0 0.03,0 0.02,0 0.03,0 0.05,0 0.01,0 0.03,-0.01 0.05,-0.01 0.01,0 0.03,-0.01 0.04,-0.01 0.02,-0.01 0.03,-0.02 0.05,-0.02 0.01,-0.01 0.02,-0.02 0.04,-0.03 0.01,-0.01 0.03,-0.02 0.04,-0.03 0.01,-0.01 0.03,-0.02 0.04,-0.03 0.01,-0.01 0.02,-0.03 0.03,-0.04 0.01,-0.01 0.03,-0.03 0.04,-0.04 0.01,-0.01 0.01,-0.03 0.02,-0.04 0.01,-0.01 0.02,-0.02 0.02,-0.03 0.01,-0.01 0.02,-0.02 0.02,-0.03 0.01,-0.01 0.01,-0.02 0.01,-0.03 0.01,-0.01 0.01,-0.01 0.01,-0.02 0,-0.01 0.01,-0.01 0.01,-0.02 0,0 0,-0.01 0,-0.01 0,-0.01 0,-0.01 -0.01,-0.02 0,-0.01 0,-0.01 -0.01,-0.02 0,0 -0.01,0 -0.01,-0.01 -0.01,0 -0.02,-0.01 -0.02,-0.01 -0.01,0 -0.02,0 -0.03,-0.01 -0.01,0 -0.02,0 -0.03,0 -0.01,0 -0.02,0 -0.03,0 -0.01,-0.01 -0.02,-0.01 -0.03,-0.01l-0.02 0.01c-0.01,0 -0.02,0 -0.02,0l-0.06 0c-0.01,0 -0.03,0 -0.05,0l-0.02 0.01 -0.02 0c-0.01,0 -0.02,0 -0.03,0 -0.01,0 -0.02,-0.01 -0.03,-0.01 -0.01,0 -0.02,0 -0.03,-0.01 -0.01,0 -0.02,0 -0.03,-0.01 -0.01,0 -0.02,-0.01 -0.03,-0.01 -0.01,-0.01 -0.02,-0.02 -0.03,-0.02 -0.01,-0.01 -0.01,-0.02 -0.02,-0.03 -0.01,-0.01 -0.01,-0.02 -0.02,-0.04 0,0 0,0 0,-0.01 -0.01,0 -0.01,-0.01 -0.01,-0.01 0,-0.01 0,-0.01 0,-0.02 0,-0.01 0,-0.01 0,-0.02 0,-0.01 0,-0.01 0,-0.02 0,0 0,-0.01 0,-0.02 0,0 0,-0.01 0,-0.02 0,0 0,-0.01 0,-0.01 0.01,-0.02 0.01,-0.03 0.02,-0.05 0,-0.01 0.01,-0.02 0.02,-0.04 0.01,-0.01 0.02,-0.03 0.03,-0.04 0.01,-0.02 0.02,-0.03 0.03,-0.05 0.02,-0.01 0.03,-0.02 0.04,-0.04 0.02,-0.01 0.03,-0.03 0.05,-0.04 0.01,-0.01 0.02,-0.02 0.04,-0.04 0.01,-0.01 0.03,-0.02 0.05,-0.03 0.01,-0.02 0.03,-0.03 0.04,-0.04 0.02,-0.01 0.03,-0.02 0.05,-0.03 0.01,-0.01 0.03,-0.02 0.04,-0.02 0.01,-0.01 0.03,-0.02 0.04,-0.03 0.02,-0.01 0.04,-0.01 0.06,-0.02 0.02,-0.01 0.03,-0.01 0.05,-0.02 0.02,0 0.04,-0.01 0.06,-0.01 0.02,0 0.04,0 0.06,0 0.01,0 0.02,0 0.03,0 0.01,0 0.02,0 0.03,0 0.01,0.01 0.02,0.01 0.03,0.01 0.01,0.01 0.02,0.01 0.03,0.02 0.01,0 0.01,0.01 0.02,0.02 0.01,0 0.01,0.01 0.02,0.02 0,0.01 0.01,0.02 0.01,0.03 0,0.01 0,0.02 0,0.03 0,0 0,0.01 0,0.01 0,0.01 0,0.01 0,0.02 0,0 0,0.01 -0.01,0.01 0,0 0,0.01 0,0.01l0 0c0,0 -0.01,0.01 -0.01,0.01 0,0 0,0 -0.01,0 0,0.01 0,0.01 -0.01,0.01 0,0 0,0 -0.01,0 0,0 -0.01,0 -0.02,0 0,0 -0.01,0 -0.02,-0.01 0,0 -0.01,0 -0.02,0 0,0 -0.01,0 -0.02,-0.01l-0.01 0c-0.01,0 -0.01,-0.01 -0.02,-0.01 -0.01,0 -0.01,0 -0.02,0 0,0 -0.01,0 -0.02,0 -0.02,0 -0.04,0 -0.06,0.01 -0.02,0 -0.04,0.01 -0.06,0.02 -0.02,0.01 -0.04,0.02 -0.07,0.03 -0.02,0.01 -0.04,0.02 -0.05,0.03 -0.02,0.02 -0.04,0.03 -0.06,0.04 -0.02,0.02 -0.04,0.03 -0.06,0.05 -0.01,0.02 -0.03,0.03 -0.05,0.05 -0.01,0.01 -0.03,0.03 -0.04,0.04 -0.01,0.01 -0.01,0.02 -0.02,0.03 0,0.01 -0.01,0.01 -0.01,0.02 -0.01,0.01 -0.01,0.02 -0.01,0.02 0,0.01 0,0.02 0,0.02 0,0.01 0,0.02 0.01,0.03 0,0.01 0.01,0.01 0.01,0.02 0.01,0 0.02,0.01 0.03,0.01 0.01,0 0.03,0 0.04,0l0.02 0 0.03 0c0.02,0 0.04,0 0.06,0l0.06 -0.01c0.01,0 0.01,0 0.02,0l0.03 0c0.01,0 0.03,0 0.05,0 0.01,0.01 0.03,0.01 0.05,0.01 0.01,0.01 0.03,0.01 0.04,0.02 0.02,0.01 0.03,0.02 0.04,0.03 0.02,0 0.03,0.02 0.04,0.03 0.01,0.01 0.02,0.02 0.03,0.04 0,0.01 0.01,0.03 0.01,0.04 0.01,0.02 0.01,0.04 0.01,0.05 0,0.02 0,0.03 0,0.04 0,0.01 0,0.02 -0.01,0.03 0,0.01 0,0.03 -0.01,0.04 0,0.01 -0.01,0.02 -0.01,0.03 -0.01,0.02 -0.01,0.03 -0.02,0.04 -0.01,0.01 -0.01,0.02 -0.02,0.03 -0.01,0.02 -0.02,0.03 -0.02,0.04 -0.01,0.01 -0.02,0.02 -0.03,0.03 -0.01,0.02 -0.03,0.04 -0.04,0.06 -0.02,0.02 -0.04,0.04 -0.06,0.06 -0.01,0.01 -0.03,0.03 -0.05,0.05 -0.02,0.01 -0.04,0.03 -0.06,0.04 -0.02,0.01 -0.04,0.03 -0.07,0.04 -0.02,0.01 -0.04,0.02 -0.06,0.03 -0.03,0 -0.05,0.01 -0.08,0.01 -0.02,0.01 -0.04,0.01 -0.07,0.01 -0.01,0 -0.02,0 -0.03,0 -0.01,0 -0.02,0 -0.04,0 -0.01,0 -0.02,-0.01 -0.03,-0.01 -0.01,0 -0.02,0 -0.03,-0.01 -0.01,0 -0.02,0 -0.03,-0.01 -0.02,0 -0.03,-0.01 -0.04,-0.01 -0.01,-0.01 -0.01,-0.02 -0.02,-0.02 -0.01,-0.01 -0.02,-0.02 -0.03,-0.02 -0.01,-0.01 -0.01,-0.02 -0.02,-0.03 0,0 -0.01,-0.01 -0.01,-0.02 -0.01,-0.01 -0.01,-0.02 -0.02,-0.03 0,-0.01 0,-0.02 0,-0.03 0,0 0,-0.01 0,-0.01 0,-0.01 0,-0.01 0,-0.02 0.01,0 0.01,-0.01 0.01,-0.01 0.01,-0.01 0.01,-0.01 0.02,-0.01l0 0 0 0zm1.9 0.09c0,-0.01 0,-0.02 0,-0.03 0,-0.01 0,-0.03 0,-0.04 0.01,-0.03 0.02,-0.07 0.03,-0.11 0.01,-0.04 0.02,-0.08 0.03,-0.11 0.02,-0.04 0.03,-0.08 0.04,-0.11 0.01,-0.04 0.02,-0.08 0.03,-0.11l0.02 -0.1 0.02 -0.09c0.01,-0.02 0.02,-0.04 0.02,-0.06 0.01,-0.03 0.01,-0.05 0.02,-0.06 0,-0.02 0.01,-0.04 0.01,-0.05 0.01,-0.02 0.01,-0.03 0.01,-0.05 0.01,-0.01 0.01,-0.02 0.02,-0.04 0,-0.01 0.01,-0.02 0.01,-0.03 0.01,-0.01 0.01,-0.02 0.01,-0.03l0.01 -0.02c0.01,-0.01 0.01,-0.02 0.02,-0.03 0,0 0,-0.01 0.01,-0.02 0,0 0.01,-0.01 0.01,-0.02 0.01,0 0.01,-0.01 0.02,-0.01l0 0c0,-0.01 0.01,-0.01 0.01,-0.01 0.01,-0.01 0.02,-0.01 0.02,-0.01 0.01,0 0.02,0 0.03,0 0.01,0.01 0.02,0.01 0.03,0.01 0,0.01 0.01,0.01 0.01,0.01 0.01,0.01 0.01,0.01 0.01,0.01 0,0.01 0.01,0.03 0.01,0.04 0,0 0.01,-0.01 0.01,-0.01 0.01,0 0.01,0 0.02,0 0.01,0 0.02,0 0.02,0l0.02 -0.01 0.02 0 0.02 -0.01 0.01 0c0.01,0 0.01,0 0.01,-0.01l0 0c0.02,0 0.04,-0.01 0.06,-0.01 0.01,-0.01 0.03,-0.01 0.04,-0.01 0.02,-0.01 0.04,-0.01 0.05,-0.02 0.01,0 0.03,0 0.04,-0.01 0.02,0 0.03,0 0.04,0 0.02,0 0.03,-0.01 0.04,-0.01 0.02,0 0.03,0 0.04,0 0.02,0 0.03,0 0.04,0 0.02,0 0.03,0 0.04,0 0.01,0 0.02,0 0.03,0 0,0 0.01,0 0.02,0 0.01,0 0.01,0.01 0.02,0.01 0,0 0.01,0 0.01,0.01 0,0 0.01,0 0.01,0.01 0,0 0,0 0,0.01 0,0 0,0.01 0,0.01 0,0 0,0.01 0,0.01 0,0 0,0.01 0,0.01l0 0c0,0.01 0,0.01 -0.01,0.01 0,0.01 0,0.01 -0.01,0.02l0 0c0,0 -0.01,0 -0.01,0.01 -0.01,0 -0.02,0 -0.02,0 -0.01,0.01 -0.02,0.01 -0.03,0.01 0,0 -0.01,0.01 -0.02,0.01 -0.01,0 -0.01,0 -0.02,0l-0.02 0 -0.06 0.02 -0.03 0 -0.03 0.01 0.05 0 -0.09 0.01c0,0 0,0 -0.01,0l-0.03 0.01 -0.02 0.01 -0.03 0.01 -0.09 0.02c-0.02,0.01 -0.04,0.02 -0.05,0.02 -0.02,0.01 -0.03,0.01 -0.05,0.02 -0.02,0 -0.03,0.01 -0.04,0.02 -0.02,0.01 -0.03,0.02 -0.04,0.03 -0.01,0.01 -0.02,0.02 -0.02,0.04 -0.01,0.01 -0.02,0.02 -0.02,0.04l0 0c0,0 0,0 0,0.01l-0.02 0.03 0 0.02 -0.01 0.03 -0.03 0.07c0,0.02 -0.01,0.03 -0.01,0.04l0 0.01c0,0.01 -0.01,0.02 -0.01,0.02l0 0.01c0,0 0,0.01 0,0.01l0 0 0 0.01 0 0c0,0 0.01,0 0.02,0 0.01,-0.01 0.02,-0.01 0.03,-0.01 0.01,-0.01 0.03,-0.01 0.04,-0.02 0.02,0 0.03,-0.01 0.05,-0.01l0.11 -0.04 0.06 -0.02 0.06 -0.02c0.02,-0.01 0.04,-0.01 0.05,-0.02 0.02,0 0.03,-0.01 0.05,-0.01 0.01,-0.01 0.03,-0.01 0.04,-0.01 0.01,0 0.02,-0.01 0.02,-0.01 0.01,0 0.02,0 0.03,0.01 0.01,0 0.01,0 0.01,0 0.01,0.01 0.01,0.01 0.01,0.01 0.01,0.01 0.01,0.01 0.01,0.02 0,0.01 0,0.02 -0.01,0.03 0,0.01 -0.01,0.02 -0.01,0.02 -0.01,0.01 -0.02,0.02 -0.03,0.03 -0.01,0 -0.02,0.01 -0.03,0.01 0,0.01 -0.01,0.01 -0.01,0.01 -0.01,0 -0.02,0.01 -0.02,0.01 -0.01,0 -0.02,0.01 -0.03,0.01 -0.01,0 -0.02,0.01 -0.03,0.01l-0.1 0.04 -0.08 0.03 -0.06 0.02 -0.08 0.04 -0.03 0.01c0,0.01 -0.01,0.01 -0.02,0.01 0,0 -0.01,0.01 -0.01,0.01l-0.02 0c0,0 -0.01,0.01 -0.01,0.01l-0.02 0 -0.02 0.01 -0.03 0.01c0,0 0,0.01 0,0.02 -0.01,0 -0.01,0.02 -0.01,0.03 -0.01,0.01 -0.01,0.02 -0.01,0.03l-0.01 0.04c0,0.01 0,0.03 -0.01,0.04 0,0.01 0,0.02 0,0.03 0,0.01 -0.01,0.02 -0.01,0.03 0,0.01 0,0.01 0,0.02 0,0 0,0.01 0,0.01 0,0 0.01,0.01 0.01,0.01l0 0c0,0 0,0 0,0 0,0 0,0 0,0.01 0.01,0 0.01,0 0.01,0 0,0 0,0 0.01,0l0 0c0.02,0 0.03,-0.01 0.05,-0.01 0.01,0 0.03,0 0.05,-0.01 0.02,0 0.04,-0.01 0.06,-0.01 0.01,-0.01 0.03,-0.01 0.05,-0.02 0.02,-0.01 0.03,-0.02 0.05,-0.02 0.01,-0.01 0.03,-0.02 0.04,-0.02l0.07 -0.05c0.02,0 0.03,-0.01 0.04,-0.02 0.01,0 0.02,-0.01 0.03,-0.01 0.01,-0.01 0.02,-0.01 0.04,-0.01 0.01,0 0.02,-0.01 0.04,-0.01 0,0 0,0 0,0l0.02 0c0,0 0,0.01 0.01,0.01 0,0 0,0 0.01,0 0,0 0.01,0 0.01,0.01 0,0 0,0 0.01,0 0,0.01 0,0.01 0,0.01 0,0.01 0,0.01 0,0.01l0 0c0,0.01 0,0.02 0,0.03 -0.01,0.01 -0.01,0.02 -0.02,0.03 -0.01,0 -0.02,0.01 -0.02,0.02 -0.01,0.01 -0.02,0.02 -0.03,0.02 -0.01,0.01 -0.03,0.02 -0.04,0.03 -0.01,0 -0.02,0.01 -0.03,0.02 -0.02,0 -0.03,0.01 -0.04,0.02 -0.02,0 -0.03,0.01 -0.04,0.02 -0.02,0 -0.03,0.01 -0.04,0.02 -0.02,0 -0.03,0.01 -0.04,0.01 -0.03,0.01 -0.05,0.02 -0.07,0.03l0 0c-0.03,0.01 -0.05,0.02 -0.08,0.03 -0.02,0 -0.05,0.01 -0.07,0.01 -0.03,0.01 -0.05,0.01 -0.07,0.02 -0.02,0 -0.04,0 -0.06,0 -0.03,0 -0.04,0 -0.06,0 -0.02,-0.01 -0.03,-0.01 -0.04,-0.02 -0.02,-0.01 -0.03,-0.02 -0.03,-0.03 -0.01,-0.02 -0.01,-0.03 -0.01,-0.05zm0.98 -0.1c0.01,-0.01 0.02,-0.01 0.04,-0.02 0.01,-0.01 0.02,-0.01 0.04,-0.01 0.01,-0.01 0.02,-0.01 0.04,-0.01 0.01,0 0.02,-0.01 0.04,-0.01l0.18 -0.85 -0.01 0c-0.01,0 -0.01,0 -0.02,0 0,0 -0.01,0 -0.02,0 0,0 -0.01,0 -0.02,0 0,0 -0.01,0 -0.01,0 -0.01,0 -0.02,-0.01 -0.02,-0.01 -0.01,0 -0.01,0 -0.01,-0.01 -0.01,0 -0.01,0 -0.01,0 0,-0.01 0,-0.01 -0.01,-0.01 0,-0.01 0,-0.01 0,-0.01 0,-0.01 -0.01,-0.01 -0.01,-0.01 0,-0.01 0,-0.01 0,-0.02 -0.01,0 -0.01,0 -0.01,-0.01 0,0 0,-0.01 0,-0.01 0,0 0,-0.01 0,-0.01 -0.01,-0.01 0,-0.02 0,-0.02 0,-0.01 0.01,-0.01 0.01,-0.02 0.01,0 0.01,-0.01 0.02,-0.01 0.01,0 0.01,-0.01 0.02,-0.01 0.01,0 0.02,-0.01 0.03,-0.01 0.01,0 0.02,0 0.02,0 0.01,0 0.02,-0.01 0.03,-0.01 0.01,0 0.02,0 0.03,0 0.03,0 0.06,0 0.1,0 0.03,0 0.06,0 0.09,0 0.03,0 0.06,0.01 0.09,0.01 0.03,0 0.06,0.01 0.08,0.02 0.03,0 0.05,0.01 0.08,0.02 0.02,0.01 0.05,0.02 0.07,0.03 0.03,0.01 0.05,0.03 0.07,0.04 0.02,0.02 0.05,0.04 0.07,0.06 0.01,0.01 0.01,0.02 0.02,0.03 0.01,0.01 0.02,0.02 0.02,0.02 0.01,0.01 0.02,0.03 0.03,0.04 0,0.01 0.01,0.02 0.01,0.03 0.01,0.01 0.02,0.02 0.02,0.04 0.01,0.01 0.01,0.02 0.01,0.04 0.01,0.01 0.01,0.02 0.01,0.04 0,0.01 0.01,0.03 0.01,0.04 0,0.01 0,0.02 0,0.03 0,0.01 -0.01,0.02 -0.01,0.02 0,0.01 0,0.02 0,0.03 0,0.01 0,0.02 0,0.02l0 0c-0.01,0.03 -0.02,0.07 -0.03,0.09 -0.01,0.03 -0.02,0.06 -0.04,0.09 -0.01,0.02 -0.02,0.05 -0.04,0.07 -0.02,0.02 -0.04,0.04 -0.05,0.06 -0.02,0.02 -0.04,0.04 -0.06,0.06 -0.03,0.02 -0.05,0.03 -0.07,0.05 -0.02,0.01 -0.05,0.03 -0.07,0.04 -0.02,0.01 -0.05,0.03 -0.07,0.04 -0.03,0.01 -0.05,0.02 -0.08,0.03 -0.02,0.01 -0.05,0.02 -0.07,0.03 -0.03,0.01 -0.05,0.01 -0.08,0.02 -0.02,0.01 -0.05,0.02 -0.07,0.02l0 0c-0.01,0.01 -0.02,0.01 -0.04,0.01 -0.01,0.01 -0.02,0.01 -0.03,0.01 -0.01,0.01 -0.03,0.01 -0.04,0.01 -0.01,0 -0.03,0.01 -0.04,0.01 -0.01,0 -0.02,0 -0.04,0 -0.01,0.01 -0.02,0.01 -0.03,0.01 -0.02,0 -0.03,0 -0.04,0 -0.01,0 -0.03,0 -0.04,0 -0.01,0 -0.02,0 -0.03,0 -0.01,0 -0.02,0 -0.03,0 -0.01,0 -0.02,0 -0.02,0 -0.01,-0.01 -0.02,-0.01 -0.02,-0.01 -0.01,0 -0.01,-0.01 -0.02,-0.01 0,0 0,-0.01 -0.01,-0.01 0,0 0,-0.01 0,-0.01 0,-0.01 0,-0.01 0,-0.01 0,-0.01 0,-0.02 0,-0.02 0,-0.01 0,-0.01 0.01,-0.02 0,-0.01 0,-0.01 0.01,-0.02 0,-0.01 0.01,-0.01 0.02,-0.02zm0.37 -0.24l-0.02 0.08 -0.02 0.09 0.01 -0.01 0.02 0c0.01,0 0.02,-0.01 0.03,-0.01 0.01,0 0.02,-0.01 0.04,-0.01 0.01,0 0.02,-0.01 0.03,-0.01 0.02,-0.01 0.03,-0.01 0.05,-0.02 0.01,0 0.02,-0.01 0.04,-0.01 0.01,-0.01 0.03,-0.02 0.05,-0.02 0.01,-0.01 0.03,-0.02 0.04,-0.03 0.02,-0.01 0.04,-0.02 0.05,-0.03 0.02,-0.01 0.04,-0.02 0.05,-0.03 0.02,-0.01 0.03,-0.02 0.05,-0.03 0.02,-0.01 0.03,-0.03 0.04,-0.04 0.02,-0.01 0.03,-0.02 0.05,-0.04 0.01,-0.01 0.02,-0.03 0.03,-0.04 0.01,-0.01 0.02,-0.03 0.03,-0.04 0.01,-0.02 0.02,-0.03 0.02,-0.05 0.01,-0.01 0.01,-0.03 0.02,-0.05 0,-0.01 0,-0.03 0,-0.05 0,-0.01 0,-0.03 0,-0.04 -0.01,-0.02 -0.01,-0.04 -0.02,-0.05 -0.01,-0.01 -0.02,-0.03 -0.03,-0.04 0,-0.02 -0.02,-0.03 -0.03,-0.04 -0.01,-0.01 -0.02,-0.03 -0.03,-0.04 -0.02,-0.01 -0.03,-0.02 -0.05,-0.03 -0.01,-0.01 -0.03,-0.02 -0.04,-0.03 -0.02,0 -0.03,-0.01 -0.05,-0.02 -0.02,-0.01 -0.03,-0.01 -0.05,-0.02 -0.02,0 -0.03,-0.01 -0.05,-0.01 -0.02,0 -0.03,0 -0.05,-0.01 -0.01,0 -0.03,0 -0.04,0 -0.02,0.06 -0.04,0.11 -0.05,0.16 -0.02,0.06 -0.04,0.12 -0.05,0.17 -0.01,0.06 -0.03,0.12 -0.04,0.17 -0.01,0.06 -0.02,0.12 -0.03,0.18zm0.97 -0.15c0,-0.01 0.01,-0.02 0.01,-0.03 0,-0.01 0.01,-0.03 0.01,-0.04 0,-0.03 0.01,-0.05 0.02,-0.08 0.01,-0.03 0.01,-0.06 0.02,-0.09l0.03 -0.13 0.02 -0.04c0,-0.02 0.01,-0.04 0.01,-0.05 0.01,-0.02 0.01,-0.04 0.01,-0.06 0.01,-0.01 0.01,-0.03 0.02,-0.05 0,-0.02 0.01,-0.04 0.01,-0.06 0,-0.02 0.01,-0.04 0.01,-0.06l0 0c0.01,-0.01 0.01,-0.02 0.02,-0.03 0.01,-0.01 0.02,-0.01 0.03,-0.02 0.01,0 0.02,-0.01 0.03,-0.01 0.01,0 0.02,0 0.03,0l0 0 0 0c0.01,0 0.02,0.01 0.03,0.01 0.01,0.01 0.01,0.02 0.02,0.03 0,0 0.01,0.01 0.01,0.02 0,0.01 0,0.02 0.01,0.03 0,0.01 0,0.02 -0.01,0.03 0,0.01 0,0.01 0,0.02 0,0.01 -0.01,0.02 -0.01,0.03 0,0.01 0,0.02 -0.01,0.04 0,0.01 0,0.02 -0.01,0.03 0,0.01 -0.01,0.02 -0.01,0.03 0,0.02 -0.01,0.03 -0.01,0.04 -0.01,0.01 -0.01,0.02 -0.01,0.04 -0.02,0.05 -0.03,0.09 -0.05,0.14 0,0.02 -0.01,0.04 -0.02,0.07 0,0.02 -0.01,0.05 -0.02,0.07 0,0.01 0,0.02 0,0.02l-0.01 0.02c0,0.02 -0.01,0.03 -0.01,0.05l-0.01 0.02c0,0.01 0,0.02 -0.01,0.03 0,0.01 0,0.02 0,0.03 -0.01,0.01 -0.01,0.02 -0.01,0.04 0,0.01 -0.01,0.03 -0.01,0.04 0,0.02 0,0.03 -0.01,0.05 0,0.01 0,0.03 0,0.04l-0.01 0.09c-0.01,0.02 -0.01,0.03 -0.01,0.05 0,0.01 -0.01,0.03 -0.01,0.05 0,0.01 -0.01,0.03 -0.01,0.04 0,0.01 0,0.02 0,0.02 -0.01,0.01 -0.01,0.01 -0.01,0.02l0 0c-0.01,0 -0.01,0 -0.01,0.01 -0.01,0 -0.01,0.01 -0.02,0.01 0,0 -0.01,0 -0.01,0.01 -0.01,0 -0.01,0 -0.02,0 0,0.01 -0.01,0.01 -0.01,0.01 -0.01,0 -0.01,0 -0.02,0 0,0 0,0 -0.01,0 0,0 -0.01,0 -0.01,0 -0.01,0 -0.01,0 -0.01,0 -0.01,-0.01 -0.01,-0.01 -0.01,-0.01 -0.01,-0.01 -0.01,-0.01 -0.01,-0.01 -0.01,-0.01 -0.01,-0.01 -0.01,-0.02 0,0 0,-0.01 -0.01,-0.01 0,-0.01 0,-0.01 0,-0.02l0 0 0 0c0.01,-0.13 0.07,-0.33 0.09,-0.46zm0.77 0.33c0.01,-0.05 0.02,-0.1 0.03,-0.14 0.01,-0.05 0.02,-0.1 0.03,-0.15 0.01,-0.04 0.03,-0.09 0.04,-0.14 0.01,-0.04 0.02,-0.09 0.03,-0.14l0.01 -0.05c0.01,-0.02 0.01,-0.04 0.02,-0.05 0,-0.02 0,-0.04 0.01,-0.05 0,-0.01 0,-0.03 0,-0.04 0.01,-0.01 0.01,-0.03 0.01,-0.04 0,-0.01 0,-0.02 0.01,-0.03 0,-0.01 0,-0.02 0,-0.03 0,-0.01 0,-0.02 0,-0.03l0 -0.01 0 -0.01c-0.01,0 -0.01,0 -0.01,0 -0.01,0 -0.02,0 -0.03,0.01 -0.01,0 -0.02,0.01 -0.03,0.01 -0.01,0 -0.02,0.01 -0.03,0.01 -0.02,0.01 -0.03,0.02 -0.04,0.02 -0.02,0.01 -0.03,0.01 -0.04,0.02 -0.02,0.01 -0.03,0.01 -0.05,0.02 -0.01,0.01 -0.02,0.01 -0.03,0.02l-0.05 0.03c-0.01,0 -0.01,0 -0.02,0.01 0,0 -0.01,0 -0.02,0 0,0.01 0,0.01 -0.01,0.01 0,0 -0.01,0 -0.01,0 -0.01,0 -0.01,0 -0.01,0 -0.01,0 -0.01,0 -0.02,0.01 -0.01,0 -0.01,-0.01 -0.02,-0.01 -0.01,0 -0.02,-0.01 -0.02,-0.01 -0.01,-0.01 -0.02,-0.02 -0.02,-0.03 0,-0.01 -0.01,-0.02 -0.01,-0.03 0,-0.01 0,-0.01 0,-0.02 0,0 0.01,-0.01 0.01,-0.01 0,-0.01 0,-0.01 0,-0.02 0,0 0.01,0 0.01,-0.01 0,0 0,-0.01 0.01,-0.01 0,0 0.01,-0.01 0.01,-0.01 0,0 0.01,-0.01 0.02,-0.01 0,0 0.01,-0.01 0.01,-0.01 0.07,-0.04 0.14,-0.07 0.21,-0.1 0.07,-0.03 0.15,-0.06 0.22,-0.08 0.07,-0.01 0.14,-0.03 0.22,-0.04 0.07,-0.01 0.14,-0.02 0.21,-0.02l0.02 0 0.03 0c0,0 0.01,0 0.02,0l0.03 0c0,0 0.01,0 0.02,0 0.01,0 0.02,0.01 0.03,0.01 0,0 0.01,0 0.02,0 0.01,0 0.01,0 0.02,0l0 0c0.01,0.01 0.01,0.01 0.02,0.01 0.01,0.01 0.01,0.01 0.02,0.02 0,0.01 0.01,0.01 0.01,0.02 0,0.01 0,0.01 0,0.02 0,0.01 0,0.01 0,0.02 0,0 0,0.01 0,0.01l0 0c0,0.01 0,0.01 0,0.02 -0.01,0 -0.01,0.01 -0.01,0.01 0,0.01 -0.01,0.01 -0.01,0.01 0,0.01 -0.01,0.01 -0.01,0.01 0,0.01 -0.01,0.01 -0.01,0.01 -0.01,0 -0.02,0 -0.02,0l0 0c-0.01,0 -0.02,0 -0.03,0l-0.04 0c-0.01,-0.01 -0.03,-0.01 -0.04,-0.01 -0.01,0 -0.03,0 -0.04,0 -0.03,0 -0.05,0 -0.08,0.01 -0.02,0 -0.05,0 -0.08,0 -0.02,0 -0.05,0.01 -0.08,0.01 -0.02,0 -0.05,0.01 -0.08,0.02 0,0 0,0 0,0 0,0 0,0 0,0l0 0.01 0 0.01c0,0.02 0,0.03 0,0.04 0,0.02 0,0.03 -0.01,0.04 0,0.01 0,0.02 0,0.04 0,0.01 0,0.02 -0.01,0.03 0,0.01 0,0.02 -0.01,0.04 0,0.01 0,0.02 -0.01,0.04l-0.01 0.04 -0.01 0.05 -0.02 0.06c-0.01,0.03 -0.01,0.05 -0.02,0.08 -0.01,0.02 -0.01,0.05 -0.02,0.08 -0.01,0.03 -0.01,0.07 -0.02,0.11l-0.04 0.16c0,0.02 -0.01,0.04 -0.01,0.05 0,0.02 -0.01,0.04 -0.01,0.05 0,0.02 0,0.03 0,0.04 -0.01,0.02 -0.01,0.03 -0.01,0.05l0 0c0,0 0,0.01 -0.01,0.01 0,0.01 -0.01,0.01 -0.02,0.02 0,0 -0.01,0.01 -0.02,0.01 -0.01,0 -0.02,0 -0.03,0 -0.01,0 -0.01,0 -0.02,0 0,0 -0.01,0 -0.01,-0.01 -0.01,0 -0.01,0 -0.02,-0.01 0,0 -0.01,-0.01 -0.01,-0.01 0,-0.01 -0.01,-0.01 -0.01,-0.02 0,0 0,-0.01 0,-0.01 0,-0.01 -0.01,-0.02 -0.01,-0.02 0,-0.01 0.01,-0.02 0.01,-0.02zm1.48 0.11c0,0 -0.01,0 -0.01,-0.01 -0.01,0 -0.02,0 -0.02,0 0,0 -0.01,0 -0.01,-0.01 -0.01,0 -0.01,0 -0.01,-0.01 -0.01,0 -0.01,-0.01 -0.01,-0.01 0,0 -0.01,-0.01 -0.01,-0.01 0,-0.01 0,-0.01 0,-0.02 0,0 0,-0.01 0,-0.01 0,-0.01 0,-0.01 0,-0.02 0,-0.01 0,-0.01 0,-0.02 0,-0.01 0.01,-0.02 0.01,-0.02 0,-0.01 0,-0.02 0.01,-0.03 0,-0.01 0,-0.02 0.01,-0.03l0.01 -0.03 0.02 -0.06c0.01,-0.01 0.01,-0.02 0.01,-0.02 0,-0.01 0.01,-0.02 0.01,-0.03 0,-0.01 0,-0.01 0.01,-0.02 0,-0.01 0,-0.01 0,-0.02l0 -0.01 0.02 -0.07 0 -0.02 0.01 -0.03c0,-0.02 0.01,-0.03 0.01,-0.05l-0.01 0 -0.01 0 -0.02 0.01 -0.02 0c-0.01,0 -0.02,0 -0.03,0 -0.01,0 -0.02,0.01 -0.02,0.01l-0.03 0c-0.01,0.01 -0.02,0.01 -0.03,0.01l-0.01 0c-0.01,0.01 -0.03,0.01 -0.05,0.02l-0.01 0c-0.02,0 -0.03,0.01 -0.05,0.01 -0.02,0.01 -0.03,0.01 -0.05,0.02 -0.02,0 -0.03,0 -0.05,0.01 -0.02,0 -0.03,0.01 -0.05,0.01 -0.02,0 -0.04,0.01 -0.06,0.01 0,0 -0.01,0 -0.01,-0.01 -0.01,0 -0.01,0 -0.02,0 0,-0.01 -0.01,-0.01 -0.01,-0.01 -0.01,0 -0.01,0 -0.02,0 0,0 -0.01,0.01 -0.01,0.02 -0.01,0.01 -0.01,0.02 -0.02,0.03 -0.01,0.02 -0.01,0.04 -0.02,0.06 -0.01,0.02 -0.01,0.03 -0.01,0.04 -0.01,0.01 -0.01,0.02 -0.01,0.03l-0.01 0.03c0,0.01 -0.01,0.02 -0.01,0.03 0,0 0,0.01 0,0.02 0,0 0,0.01 0,0.02l-0.01 0.02c0,0.01 0,0.02 0,0.03l0 0.04c0,0.01 0,0.02 0,0.02 -0.01,0.01 -0.01,0.02 -0.01,0.02 0,0 0,0.01 0,0.01 0,0.01 0,0.01 -0.01,0.02 0,0 0,0 0,0.01 -0.01,0 -0.01,0.01 -0.02,0.01 0,0 0,0.01 -0.01,0.01 0,0 -0.01,0.01 -0.01,0.01 0,0 -0.01,0 -0.01,0 -0.01,0 -0.01,0 -0.02,0 -0.01,0.01 -0.01,0 -0.02,0 -0.01,0 -0.01,0 -0.02,-0.01 0,0 -0.01,-0.01 -0.01,-0.01 -0.01,-0.01 -0.01,-0.02 -0.01,-0.02 -0.01,-0.01 -0.01,-0.02 -0.01,-0.03 -0.01,0 -0.01,-0.01 -0.01,-0.02 0,-0.01 0,-0.02 0,-0.02 0,-0.01 0,-0.02 0,-0.02 0,-0.02 0,-0.04 0,-0.06 0,-0.01 0,-0.03 0.01,-0.05 0,-0.02 0,-0.04 0.01,-0.06 0.01,-0.02 0.01,-0.04 0.02,-0.05 0,-0.02 0.01,-0.04 0.02,-0.06 0.01,-0.02 0.02,-0.04 0.03,-0.06 0,-0.02 0.01,-0.04 0.02,-0.06 0.01,-0.02 0.02,-0.04 0.03,-0.06 0.01,-0.01 0.02,-0.03 0.03,-0.05 0.02,-0.02 0.03,-0.04 0.04,-0.07 0.01,-0.02 0.03,-0.04 0.04,-0.07 0.02,-0.02 0.03,-0.04 0.05,-0.07 0.01,-0.02 0.03,-0.05 0.05,-0.07 0.02,-0.02 0.04,-0.05 0.05,-0.07 0.02,-0.02 0.04,-0.04 0.06,-0.07 0.02,-0.02 0.04,-0.04 0.06,-0.05 0.03,-0.02 0.05,-0.04 0.07,-0.05 0.02,-0.02 0.04,-0.03 0.06,-0.04 0.03,-0.02 0.05,-0.03 0.07,-0.03 0.02,-0.01 0.05,-0.01 0.07,-0.01 0.02,0 0.04,0 0.06,0 0.02,0.01 0.04,0.01 0.06,0.02 0.01,0.01 0.03,0.02 0.04,0.03 0.01,0.01 0.02,0.02 0.03,0.04 0.01,0.01 0.02,0.03 0.03,0.04 0.01,0.02 0.01,0.04 0.02,0.06 0,0.02 0,0.04 0.01,0.06 0,0.02 0,0.04 0,0.06 0,0.02 0,0.04 0,0.06 0,0.02 0,0.04 0,0.06 0,0.02 -0.01,0.04 -0.01,0.05 0,0.02 0,0.04 -0.01,0.06 0,0.02 0,0.04 -0.01,0.06 0,0.02 0,0.04 -0.01,0.05l-0.02 0.1c-0.01,0.04 -0.02,0.09 -0.03,0.14 0,0 0,0.01 0,0.01l-0.01 0.02c0,0.01 -0.01,0.03 -0.01,0.04l0 0.01c-0.01,0.02 -0.02,0.05 -0.03,0.07l-0.01 0.02c0,0.01 0,0.02 0,0.02l-0.01 0.01 0 0c0,0.02 -0.01,0.03 -0.01,0.05 0,0.01 0,0.01 -0.01,0.02 0,0.01 0,0.02 -0.01,0.02 0,0.01 -0.01,0.01 -0.01,0.02 -0.01,0 -0.01,0.01 -0.02,0.01 0,0.01 -0.01,0.01 -0.02,0.01 -0.01,0 -0.02,0.01 -0.03,0.01zm0.02 -1.06c-0.02,0.01 -0.03,0.01 -0.04,0.01 -0.01,0 -0.02,0.01 -0.04,0.01 -0.01,0.01 -0.02,0.01 -0.03,0.02 -0.01,0.01 -0.03,0.02 -0.04,0.02 -0.01,0.01 -0.02,0.02 -0.03,0.03 -0.01,0.01 -0.03,0.02 -0.04,0.03 -0.01,0.02 -0.02,0.03 -0.03,0.04 -0.01,0.01 -0.02,0.02 -0.03,0.03 -0.01,0.02 -0.02,0.03 -0.03,0.04 -0.01,0.01 -0.02,0.02 -0.02,0.04l-0.03 0.03 -0.02 0.03 -0.01 0.02 0 0.01 -0.01 0 0 0.01c0,0 -0.01,0.01 -0.01,0.02 0,0 0,0 -0.01,0.01l0.09 0c0.01,0 0.03,0 0.05,-0.01 0.01,0 0.03,0 0.05,0 0.02,-0.01 0.04,-0.01 0.06,-0.01 0.02,0 0.04,-0.01 0.06,-0.01 0.02,-0.01 0.04,-0.01 0.06,-0.01 0.02,-0.01 0.03,-0.01 0.05,-0.01l0.07 -0.02c0,0 0,-0.01 0,-0.01 0,-0.01 0.01,-0.01 0.01,-0.02 0,0 0,-0.01 0,-0.02l0 -0.02c0,-0.01 0,-0.01 0,-0.02 0,-0.01 0,-0.02 0,-0.03 0,0 0,-0.01 0,-0.02 0,-0.01 0,-0.02 0,-0.03 0,-0.01 0,-0.01 0,-0.02l0 -0.03c0,-0.01 0,-0.02 0,-0.02 -0.01,-0.01 -0.01,-0.02 -0.01,-0.03 0,-0.01 -0.01,-0.02 -0.01,-0.02 -0.01,-0.01 -0.01,-0.02 -0.02,-0.02 0,-0.01 -0.01,-0.01 -0.02,-0.01 0,0 -0.01,-0.01 -0.02,-0.01zm0.33 -0.55c-0.01,0.01 -0.01,0.03 -0.02,0.04 0,0.01 -0.01,0.02 -0.01,0.02 -0.01,0.01 -0.02,0.02 -0.03,0.03 -0.01,0 -0.02,0.01 -0.03,0.01l-0.26 0.14c0,0.01 -0.01,0.01 -0.02,0.01 0,0 -0.01,0 -0.02,0 -0.01,0 -0.01,0 -0.02,0 0,0 -0.01,0 -0.01,-0.01l0 0c0,0 -0.01,0 -0.01,-0.01 0,0 0,-0.01 0,-0.01 0,-0.01 0,-0.01 0,-0.02 0,0 0,-0.01 0.01,-0.02 0,0 0,-0.01 0,-0.01 0.01,0 0.01,-0.01 0.01,-0.01 0.01,-0.01 0.01,-0.01 0.01,-0.01 0.01,-0.01 0.01,-0.01 0.02,-0.01l0 0c0.01,-0.01 0.01,-0.02 0.02,-0.02l0.06 -0.04c0.02,-0.01 0.03,-0.02 0.04,-0.02 0.01,-0.01 0.03,-0.02 0.04,-0.03 0.01,-0.01 0.02,-0.02 0.04,-0.02 0.01,-0.01 0.02,-0.02 0.03,-0.02 0.01,-0.01 0.02,-0.02 0.03,-0.02 0.01,-0.01 0.02,-0.01 0.03,-0.02 0.01,0 0.02,-0.01 0.02,-0.01 0.01,0 0.02,0 0.02,0 0.01,0 0.02,0 0.02,0 0.01,0 0.01,0.01 0.01,0.01 0.01,0 0.01,0.01 0.01,0.02 0.01,0 0.01,0.01 0.01,0.01l0 0.01c0,0 0,0.01 0,0.01 0,0 0,0 0,0zm0.23 0.63c0,-0.01 0,-0.02 -0.01,-0.02 0,-0.01 0,-0.01 0,-0.02l0 -0.01 0 -0.02c0,-0.01 -0.01,-0.02 -0.01,-0.02 0,-0.01 0,-0.01 0,-0.02 0,0 0,-0.01 0,-0.01 0,-0.01 0,-0.02 0,-0.03 0,0 0,-0.01 0,-0.02 0,0 0,-0.01 0.01,-0.01 0,-0.01 0,-0.02 0,-0.02 0.01,-0.01 0.01,-0.01 0.01,-0.02 0.01,0 0.01,-0.01 0.02,-0.01 0,0 0.01,-0.01 0.02,-0.01 0,0 0.01,0 0.02,0 0.01,0 0.02,0 0.03,0 0.01,0 0.02,0.01 0.02,0.01 0.01,0.01 0.02,0.01 0.02,0.02 0.01,0.01 0.01,0.01 0.02,0.02 0,0.01 0.01,0.02 0.01,0.02 0,0.01 0,0.02 0,0.03 0.01,0.01 0.01,0.02 0.01,0.03 0,0.01 0,0.02 0,0.03 0,0.01 0,0.02 0,0.03 0,0.01 0,0.03 0,0.04 0,0.02 0,0.04 -0.01,0.06l0 0.07c0,0.03 0,0.05 0,0.08 0,0.03 0,0.06 0,0.1 0,0.03 0,0.07 0,0.11 0,0.03 0,0.07 0,0.11 0,0.01 0,0.03 0,0.04 0,0.01 0,0.03 0,0.05 0,0.01 0.01,0.03 0.01,0.04 0,0.02 0.01,0.03 0.01,0.04 0,0.02 0.01,0.03 0.01,0.04 0.01,0.02 0.01,0.03 0.02,0.04 0.01,0.01 0.01,0.02 0.02,0.02 0.01,0.01 0.02,0.01 0.03,0.02 0.02,-0.03 0.04,-0.05 0.07,-0.08 0.02,-0.03 0.04,-0.05 0.06,-0.08 0.02,-0.03 0.04,-0.06 0.06,-0.09 0.02,-0.03 0.04,-0.06 0.05,-0.08 0.02,-0.03 0.03,-0.06 0.05,-0.09 0.01,-0.03 0.03,-0.06 0.04,-0.08 0.02,-0.03 0.03,-0.06 0.04,-0.08 0.01,-0.03 0.02,-0.05 0.03,-0.08l0.03 -0.06 0.03 -0.06c0,-0.02 0.01,-0.03 0.02,-0.05 0.01,-0.02 0.01,-0.03 0.02,-0.05 0.01,-0.02 0.01,-0.03 0.02,-0.04 0,-0.02 0.01,-0.03 0.01,-0.05 0.01,-0.01 0.01,-0.02 0.02,-0.04 0,-0.01 0.01,-0.02 0.01,-0.03 0,-0.01 0,-0.01 0,-0.01l0.01 -0.02c0,0 0.01,-0.01 0.01,-0.02 0,0 0.01,0 0.02,-0.01 0,0 0.01,-0.01 0.02,-0.01 0.02,-0.01 0.03,-0.01 0.05,-0.01 0.01,0 0.02,0 0.02,0.01 0.01,0 0.02,0 0.02,0.01 0.01,0 0.01,0.01 0.01,0.01 0.01,0.01 0.01,0.02 0.01,0.02l0 0.01 0 0.01c0,0.01 0,0.01 0,0.02 0,0 -0.01,0 -0.01,0.01 0,0.01 -0.01,0.03 -0.02,0.05 -0.01,0.02 -0.01,0.04 -0.02,0.06l-0.04 0.07c-0.01,0.03 -0.02,0.05 -0.03,0.08l-0.03 0.07 -0.03 0.07c-0.01,0.02 -0.02,0.05 -0.03,0.07 -0.02,0.03 -0.03,0.05 -0.04,0.07 -0.01,0.03 -0.02,0.05 -0.03,0.07 -0.02,0.03 -0.03,0.05 -0.04,0.07 -0.01,0.02 -0.02,0.04 -0.04,0.06 -0.01,0.02 -0.02,0.04 -0.03,0.06 -0.01,0.02 -0.02,0.04 -0.04,0.06 -0.01,0.02 -0.03,0.04 -0.04,0.07 -0.02,0.02 -0.04,0.05 -0.07,0.08 -0.02,0.03 -0.05,0.06 -0.08,0.1l-0.01 0.02c0,0 -0.01,0.01 -0.01,0.01 -0.01,0.01 -0.01,0.01 -0.02,0.02 0,0 -0.01,0.01 -0.01,0.01 -0.01,0 -0.01,0.01 -0.02,0.01 -0.01,0 -0.01,0.01 -0.02,0.01 0,0 -0.01,0 -0.02,0.01 -0.01,0 -0.01,0 -0.02,0 -0.01,0 -0.02,0 -0.03,0 -0.01,-0.01 -0.02,-0.01 -0.03,-0.01 -0.01,-0.01 -0.02,-0.01 -0.03,-0.02 0,-0.01 -0.01,-0.01 -0.02,-0.02 0,-0.01 -0.01,-0.01 -0.02,-0.02 0,-0.01 -0.01,-0.02 -0.01,-0.03 -0.01,-0.01 -0.01,-0.01 -0.02,-0.02 0,-0.01 -0.01,-0.02 -0.01,-0.03 -0.01,-0.01 -0.01,-0.02 -0.02,-0.03 0,-0.01 0,-0.02 -0.01,-0.03 0,-0.01 -0.01,-0.03 -0.01,-0.04 0,-0.01 -0.01,-0.02 -0.01,-0.04 0,-0.01 0,-0.02 0,-0.04 -0.01,-0.01 -0.01,-0.02 -0.01,-0.04 0,-0.01 0,-0.02 0,-0.04 0,-0.01 -0.01,-0.02 -0.01,-0.04l0 0c0,0 0,-0.01 0,-0.03l0 -0.06 0 -0.25 0 -0.05 0 -0.06 0 -0.09zm0.98 0.86c0,-0.01 0.01,-0.02 0.01,-0.03 0,-0.01 0,-0.02 0,-0.04 0.01,-0.03 0.02,-0.07 0.03,-0.11 0.01,-0.04 0.02,-0.07 0.03,-0.11 0.01,-0.04 0.03,-0.07 0.04,-0.11 0.01,-0.04 0.02,-0.07 0.03,-0.11l0.02 -0.1 0.02 -0.08c0.01,-0.03 0.01,-0.05 0.02,-0.07 0,-0.02 0.01,-0.04 0.02,-0.06 0,-0.02 0,-0.04 0.01,-0.05 0,-0.02 0.01,-0.03 0.01,-0.05 0.01,-0.01 0.01,-0.02 0.01,-0.03 0.01,-0.02 0.01,-0.03 0.02,-0.04 0,-0.01 0.01,-0.02 0.01,-0.03l0.01 -0.02c0,-0.01 0.01,-0.02 0.01,-0.02 0.01,-0.01 0.01,-0.02 0.02,-0.03 0,0 0.01,-0.01 0.01,-0.02 0,0 0.01,-0.01 0.01,-0.01l0 0c0.01,-0.01 0.02,-0.01 0.02,-0.01 0.01,0 0.01,-0.01 0.02,-0.01 0.01,0 0.02,0 0.03,0.01 0.01,0 0.02,0 0.02,0 0.01,0.01 0.02,0.01 0.02,0.01 0,0.01 0.01,0.01 0.01,0.02 0,0 0,0.02 0.01,0.03 0,0 0,0 0.01,0 0,-0.01 0.01,-0.01 0.02,-0.01 0,0 0.01,0 0.02,0l0.02 -0.01 0.02 0 0.01 -0.01 0.02 0c0,0 0.01,0 0.01,0l0 0c0.02,-0.01 0.04,-0.02 0.05,-0.02 0.02,-0.01 0.04,-0.01 0.05,-0.01 0.02,-0.01 0.03,-0.01 0.05,-0.01 0.01,-0.01 0.03,-0.01 0.04,-0.01 0.01,-0.01 0.03,-0.01 0.04,-0.01 0.02,0 0.03,-0.01 0.04,-0.01 0.01,0 0.03,0 0.04,0 0.01,0 0.03,0 0.04,0 0.01,0 0.02,0 0.03,0 0.02,0 0.03,0 0.03,0 0.01,0 0.02,0 0.03,0 0,0.01 0.01,0.01 0.01,0.01 0.01,0 0.01,0.01 0.02,0.01 0,0 0,0 0.01,0.01 0,0 0,0.01 0,0.01 0,0 0,0.01 0,0.01 0,0 0,0.01 0,0.01 0,0.01 0,0.01 0,0.01l0 0c-0.01,0.01 -0.01,0.01 -0.01,0.02 0,0 -0.01,0 -0.01,0.01l0 0c-0.01,0 -0.01,0 -0.02,0.01 0,0 -0.01,0 -0.01,0.01 -0.01,0 -0.02,0 -0.03,0 -0.01,0.01 -0.02,0.01 -0.03,0.01 0,0 0,0 -0.01,0l-0.02 0 -0.06 0.02 -0.03 0 -0.03 0.01 0.04 0 -0.08 0.01c0,0 -0.01,0 -0.02,0l-0.02 0.01 -0.03 0.01 -0.02 0.01 -0.1 0.03c-0.01,0 -0.03,0.01 -0.05,0.01 -0.01,0.01 -0.03,0.01 -0.04,0.02 -0.02,0.01 -0.03,0.01 -0.05,0.02 -0.01,0.01 -0.02,0.02 -0.03,0.03 -0.01,0.01 -0.02,0.03 -0.03,0.04 0,0.01 -0.01,0.02 -0.01,0.04l0 0c0,0 -0.01,0 -0.01,0.01l-0.01 0.03 -0.01 0.02 0 0.03c-0.01,0.03 -0.03,0.06 -0.04,0.1l0 0.02 0 0c-0.01,0.01 -0.01,0.02 -0.01,0.03l0 0c0,0.01 0,0.01 0,0.01l0 0.01 0 0 0 0c0,0 0.01,0 0.01,0 0.01,0 0.02,-0.01 0.04,-0.01 0.01,-0.01 0.02,-0.01 0.04,-0.02 0.01,0 0.03,-0.01 0.05,-0.01l0.11 -0.04c0.04,-0.02 0.08,-0.03 0.12,-0.04 0.02,-0.01 0.03,-0.01 0.05,-0.02 0.02,0 0.03,-0.01 0.05,-0.01 0.01,-0.01 0.02,-0.01 0.03,-0.01 0.01,0 0.02,0 0.03,0 0.01,0 0.02,0 0.03,0 0,0 0.01,0 0.01,0 0.01,0.01 0.01,0.01 0.01,0.02 0,0 0,0 0,0.01 0,0.01 0,0.02 0,0.03 0,0.01 -0.01,0.02 -0.02,0.02 0,0.01 -0.01,0.02 -0.02,0.03 -0.01,0 -0.02,0.01 -0.03,0.02 0,0 -0.01,0 -0.02,0 0,0.01 -0.01,0.01 -0.02,0.01 -0.01,0.01 -0.02,0.01 -0.03,0.01 -0.01,0.01 -0.02,0.01 -0.03,0.01l-0.1 0.04 -0.07 0.03 -0.06 0.02 -0.08 0.04 -0.03 0.01 -0.02 0.01c0,0 -0.01,0.01 -0.02,0.01l-0.01 0c-0.01,0.01 -0.01,0.01 -0.02,0.01l-0.01 0 -0.02 0.01 -0.03 0.01c0,0 0,0.01 -0.01,0.02 0,0.01 0,0.02 -0.01,0.03 0,0.01 0,0.02 0,0.03l-0.01 0.04c0,0.01 -0.01,0.03 -0.01,0.04 0,0.01 0,0.02 -0.01,0.03 0,0.01 0,0.02 0,0.03 0,0.01 0,0.01 0,0.02 0,0 0,0.01 0,0.01 0,0 0,0.01 0,0.01l0 0c0,0 0.01,0 0.01,0 0,0 0,0.01 0,0.01 0,0 0.01,0 0.01,0 0,0 0,0 0,0l0.01 0c0.02,0 0.03,0 0.05,-0.01 0.01,0 0.03,0 0.05,-0.01 0.02,0 0.04,-0.01 0.05,-0.01 0.02,-0.01 0.04,-0.01 0.06,-0.02 0.02,-0.01 0.03,-0.01 0.05,-0.02 0.01,-0.01 0.03,-0.02 0.04,-0.02l0.07 -0.05c0.01,0 0.02,-0.01 0.04,-0.01 0.01,-0.01 0.02,-0.01 0.03,-0.02 0.01,0 0.02,-0.01 0.03,-0.01 0.02,0 0.03,0 0.04,-0.01 0.01,0 0.01,0 0.01,0l0.01 0.01c0.01,0 0.01,0 0.01,0 0.01,0 0.01,0 0.02,0 0,0 0,0 0.01,0.01 0,0 0,0 0,0 0.01,0.01 0.01,0.01 0.01,0.01 0,0.01 0,0.01 0,0.02l0 0c0,0 0,0.01 -0.01,0.02 0,0.01 -0.01,0.02 -0.01,0.03 -0.01,0 -0.02,0.01 -0.03,0.02 -0.01,0.01 -0.02,0.02 -0.03,0.02 -0.01,0.01 -0.02,0.02 -0.03,0.03 -0.01,0 -0.02,0.01 -0.04,0.02 -0.01,0.01 -0.02,0.01 -0.04,0.02 -0.01,0.01 -0.02,0.01 -0.04,0.02 -0.01,0.01 -0.02,0.01 -0.04,0.02 -0.01,0 -0.02,0.01 -0.04,0.01 -0.02,0.01 -0.04,0.02 -0.06,0.03l-0.01 0c-0.02,0.01 -0.05,0.02 -0.07,0.03 -0.03,0 -0.05,0.01 -0.08,0.02 -0.02,0 -0.04,0 -0.06,0.01 -0.03,0 -0.05,0 -0.07,0 -0.02,0 -0.04,0 -0.05,0 -0.02,-0.01 -0.04,-0.01 -0.05,-0.02 -0.01,-0.01 -0.02,-0.02 -0.02,-0.03 -0.01,-0.02 -0.01,-0.03 -0.02,-0.05zm1.14 -0.45c0,-0.01 0,-0.03 0,-0.04 0.01,-0.01 0.01,-0.02 0.01,-0.04 0.01,-0.02 0.01,-0.05 0.02,-0.07 0.02,-0.08 0.04,-0.15 0.06,-0.22l0.01 -0.05c0.01,-0.02 0.01,-0.03 0.01,-0.05 0.01,-0.02 0.01,-0.03 0.02,-0.05 0,-0.02 0.01,-0.04 0.01,-0.06 0.01,-0.02 0.01,-0.03 0.01,-0.05 0.01,-0.02 0.01,-0.04 0.02,-0.06l0 0c0,-0.02 0.01,-0.03 0.02,-0.03 0,-0.01 0.01,-0.02 0.02,-0.02 0.01,-0.01 0.02,-0.01 0.03,-0.01 0.01,-0.01 0.02,-0.01 0.03,-0.01l0.01 0 0 0c0.01,0.01 0.01,0.01 0.02,0.02 0.01,0 0.02,0.01 0.02,0.02 0.01,0.02 0.02,0.04 0.02,0.06 0,0.01 0,0.01 0,0.02 0,0.01 0,0.02 -0.01,0.03 0,0.01 0,0.02 0,0.03 -0.01,0.01 -0.01,0.02 -0.01,0.03 -0.01,0.01 -0.01,0.02 -0.01,0.03 -0.01,0.01 -0.01,0.03 -0.02,0.04 0,0.01 0,0.02 -0.01,0.03 0,0.02 -0.01,0.03 -0.01,0.04l0 0c-0.01,0.05 -0.03,0.1 -0.04,0.14 -0.01,0.02 -0.02,0.05 -0.02,0.07 -0.01,0.03 -0.02,0.05 -0.03,0.08 0,0 0,0.01 0,0.02l-0.01 0.02c0,0.01 -0.01,0.03 -0.01,0.04l0 0.02c-0.01,0.01 -0.01,0.02 -0.01,0.03 -0.01,0.01 -0.01,0.02 -0.01,0.04 0,0.01 -0.01,0.02 -0.01,0.03 0,0.02 0,0.03 -0.01,0.05 0,0.01 0,0.03 0,0.04 -0.01,0.02 -0.01,0.03 -0.01,0.05l0 0.04c-0.01,0.02 -0.01,0.03 -0.01,0.05 0,0.01 -0.01,0.03 -0.01,0.04 0,0.02 0,0.03 -0.01,0.05 0,0.02 0,0.03 -0.01,0.05 0,0 0,0.01 0,0.01 0,0.01 -0.01,0.01 -0.01,0.02l0 0c0,0 -0.01,0.01 -0.01,0.01 -0.01,0.01 -0.01,0.01 -0.01,0.01 -0.01,0.01 -0.01,0.01 -0.02,0.01 0,0 -0.01,0.01 -0.01,0.01 -0.01,0 -0.01,0 -0.02,0 0,0 -0.01,0 -0.01,0 -0.01,0 -0.01,0 -0.02,0 0,0 0,0 -0.01,0 0,0 -0.01,0 -0.01,0 0,0 -0.01,0 -0.01,-0.01 0,0 -0.01,0 -0.01,-0.01 0,0 -0.01,-0.01 -0.01,-0.01 0,-0.01 0,-0.01 0,-0.02 0,0 0,-0.01 0,-0.01l0 -0.01 0 0c0.01,-0.13 0.06,-0.32 0.09,-0.45zm0.4 0.27c0.01,0 0.02,0.01 0.03,0.01 0,0 0.01,0.01 0.02,0.01 0.02,0.01 0.03,0.01 0.04,0.01 0.01,0.01 0.02,0.01 0.03,0.02 0.01,0 0.02,0 0.03,0.01 0.01,0 0.02,0 0.03,0.01 0.02,0 0.03,0 0.04,0 0.01,0 0.02,0 0.04,0 0.01,0 0.03,0 0.04,0 0.02,0 0.03,-0.01 0.05,-0.01 0.01,-0.01 0.03,-0.01 0.05,-0.02 0.01,0 0.03,-0.01 0.04,-0.02 0.01,0 0.03,-0.01 0.04,-0.02 0.02,-0.01 0.03,-0.02 0.04,-0.03 0.02,-0.01 0.03,-0.02 0.04,-0.03 0.01,-0.02 0.03,-0.03 0.04,-0.04 0.01,-0.02 0.02,-0.03 0.03,-0.04 0.01,-0.02 0.02,-0.03 0.03,-0.04 0,-0.01 0.01,-0.02 0.02,-0.03 0,-0.01 0.01,-0.03 0.02,-0.03 0,-0.01 0.01,-0.02 0.01,-0.03 0,-0.01 0,-0.02 0.01,-0.02 0,-0.01 0,-0.01 0,-0.02 0,-0.01 0,-0.01 0,-0.01 0,-0.01 0,-0.02 0,-0.02 0,-0.01 -0.01,-0.01 -0.01,-0.02 -0.01,0 -0.01,-0.01 -0.02,-0.01 0,-0.01 -0.01,-0.01 -0.02,-0.01 -0.01,0 -0.02,-0.01 -0.02,-0.01 -0.01,0 -0.02,0 -0.03,0 -0.01,-0.01 -0.02,-0.01 -0.03,-0.01 -0.01,0 -0.02,0 -0.04,0l-0.02 0c0,0 -0.01,0 -0.02,0l-0.05 0.01c-0.02,0 -0.04,0 -0.05,0l-0.03 0 -0.02 0c-0.01,0 -0.02,0 -0.03,0 -0.01,0 -0.02,0 -0.03,0 -0.01,0 -0.02,0 -0.03,-0.01 -0.01,0 -0.02,-0.01 -0.03,-0.01 -0.01,0 -0.02,-0.01 -0.03,-0.02 0,0 -0.01,-0.01 -0.02,-0.02 -0.01,-0.01 -0.02,-0.01 -0.03,-0.02 0,-0.01 -0.01,-0.03 -0.01,-0.04 -0.01,0 -0.01,-0.01 -0.01,-0.01 0,-0.01 0,-0.01 -0.01,-0.02 0,0 0,-0.01 0,-0.01 0,-0.01 0,-0.01 0,-0.02 0,-0.01 0,-0.01 0,-0.02 0,-0.01 0,-0.01 0,-0.02 0,-0.01 0,-0.01 0,-0.02 0.01,0 0.01,-0.01 0.01,-0.02 0,-0.01 0.01,-0.02 0.01,-0.04 0.01,-0.01 0.02,-0.03 0.02,-0.04 0.01,-0.02 0.02,-0.03 0.03,-0.05 0.01,-0.01 0.03,-0.02 0.04,-0.04 0.01,-0.01 0.02,-0.03 0.04,-0.04 0.01,-0.01 0.02,-0.03 0.04,-0.04 0.01,-0.01 0.03,-0.03 0.04,-0.04 0.02,-0.01 0.03,-0.02 0.05,-0.04 0.02,-0.01 0.03,-0.02 0.05,-0.03 0.01,-0.01 0.03,-0.02 0.04,-0.03 0.02,-0.01 0.03,-0.02 0.04,-0.03 0.02,-0.01 0.03,-0.01 0.05,-0.02 0.01,-0.01 0.03,-0.02 0.05,-0.02 0.02,-0.01 0.04,-0.02 0.06,-0.02 0.02,-0.01 0.04,-0.01 0.06,-0.01 0.01,-0.01 0.03,-0.01 0.05,-0.01 0.01,0 0.02,0 0.04,0 0.01,0.01 0.02,0.01 0.03,0.01 0.01,0 0.02,0.01 0.03,0.01 0.01,0 0.01,0.01 0.02,0.01 0.01,0.01 0.02,0.02 0.02,0.02 0.01,0.01 0.02,0.02 0.02,0.03 0.01,0 0.01,0.01 0.01,0.02 0,0.01 0.01,0.02 0.01,0.03 0,0.01 0,0.02 0,0.02 0,0.01 -0.01,0.01 -0.01,0.02 0,0 0,0 0,0.01 0,0 -0.01,0.01 -0.01,0.01l0 0c0,0 0,0 -0.01,0.01 0,0 0,0 0,0 -0.01,0 -0.01,0 -0.01,0 -0.01,0 -0.01,0.01 -0.01,0.01 -0.01,0 -0.02,0 -0.02,-0.01 -0.01,0 -0.02,0 -0.02,0 -0.01,0 -0.02,0 -0.02,0 -0.01,-0.01 -0.01,-0.01 -0.02,-0.01l-0.02 0c0,-0.01 -0.01,-0.01 -0.02,-0.01 0,0 -0.01,0 -0.01,0 -0.01,0 -0.02,0 -0.02,0 -0.02,0 -0.05,0 -0.07,0 -0.02,0.01 -0.04,0.02 -0.06,0.02 -0.02,0.01 -0.04,0.02 -0.06,0.03 -0.02,0.01 -0.04,0.03 -0.06,0.04 -0.02,0.01 -0.04,0.03 -0.06,0.04 -0.02,0.02 -0.04,0.03 -0.05,0.05 -0.02,0.01 -0.04,0.03 -0.05,0.05 -0.02,0.01 -0.03,0.03 -0.05,0.04 0,0.01 -0.01,0.02 -0.02,0.02 0,0.01 0,0.02 -0.01,0.03 0,0.01 0,0.01 -0.01,0.02 0,0.01 0,0.02 0,0.02 0,0.01 0.01,0.02 0.01,0.03 0,0 0.01,0.01 0.02,0.02 0.01,0 0.02,0.01 0.03,0.01 0.01,0 0.02,0 0.03,0l0.03 0 0.03 0c0.02,0 0.03,0 0.05,0l0.06 -0.01c0.01,0 0.02,0 0.03,0l0.02 0c0.02,0 0.04,0 0.05,0 0.02,0 0.04,0.01 0.05,0.01 0.02,0.01 0.03,0.01 0.05,0.02 0.01,0.01 0.03,0.01 0.04,0.02 0.01,0.01 0.02,0.02 0.03,0.03 0.01,0.02 0.02,0.03 0.03,0.04 0.01,0.02 0.01,0.03 0.02,0.05 0,0.02 0.01,0.03 0.01,0.05 0,0.01 0,0.02 -0.01,0.04 0,0.01 0,0.02 0,0.03 -0.01,0.01 -0.01,0.02 -0.01,0.03 -0.01,0.02 -0.01,0.03 -0.02,0.04 0,0.01 -0.01,0.02 -0.02,0.04 0,0.01 -0.01,0.02 -0.02,0.03 0,0.01 -0.01,0.02 -0.02,0.04 -0.01,0.01 -0.01,0.02 -0.02,0.03 -0.02,0.02 -0.03,0.04 -0.05,0.06 -0.02,0.02 -0.03,0.04 -0.05,0.05 -0.02,0.02 -0.04,0.04 -0.06,0.05 -0.02,0.02 -0.04,0.03 -0.06,0.05 -0.02,0.01 -0.04,0.02 -0.06,0.03 -0.02,0.01 -0.05,0.02 -0.07,0.03 -0.02,0.01 -0.05,0.02 -0.07,0.02 -0.03,0.01 -0.05,0.01 -0.07,0.01 -0.02,0 -0.03,0 -0.04,0 -0.01,0 -0.02,0 -0.03,0 -0.01,-0.01 -0.02,-0.01 -0.03,-0.01 -0.02,0 -0.03,-0.01 -0.04,-0.01 -0.01,0 -0.02,-0.01 -0.03,-0.01 -0.01,-0.01 -0.02,-0.01 -0.03,-0.02 -0.01,0 -0.02,-0.01 -0.03,-0.01 -0.01,-0.01 -0.02,-0.02 -0.02,-0.03 -0.01,0 -0.02,-0.01 -0.02,-0.02 -0.01,-0.01 -0.02,-0.01 -0.02,-0.02 -0.01,-0.01 -0.01,-0.02 -0.01,-0.03 0,-0.01 -0.01,-0.02 -0.01,-0.03 0,-0.01 0,-0.01 0.01,-0.02 0,0 0,-0.01 0,-0.01 0,-0.01 0,-0.01 0.01,-0.01 0,-0.01 0.01,-0.01 0.01,-0.01l0.01 0 0 0z"/>
 </g>
</svg>
