<?xml version="1.0" encoding="UTF-8"?>
<!DOCTYPE svg PUBLIC "-//W3C//DTD SVG 1.1//EN" "http://www.w3.org/Graphics/SVG/1.1/DTD/svg11.dtd">
<!-- Creator: CorelDRAW 2021.5 -->
<svg xmlns="http://www.w3.org/2000/svg" xml:space="preserve" width="285px" height="285px" version="1.1" style="shape-rendering:geometricPrecision; text-rendering:geometricPrecision; image-rendering:optimizeQuality; fill-rule:evenodd; clip-rule:evenodd"
viewBox="0 0 163.41 163.41"
 xmlns:xlink="http://www.w3.org/1999/xlink"
 xmlns:xodm="http://www.corel.com/coreldraw/odm/2003">
 <defs>
  <style type="text/css">
   <![CDATA[
    .str0 {stroke:#193423;stroke-width:5.73;stroke-miterlimit:22.9256}
    .str1 {stroke:#193423;stroke-width:2.86;stroke-miterlimit:22.9256}
    .fil3 {fill:none}
    .fil1 {fill:#0D1218}
    .fil2 {fill:#193423}
    .fil4 {fill:#F7F2F2}
    .fil0 {fill:#25D366;fill-rule:nonzero}
   ]]>
  </style>
    <clipPath id="id0">
     <path d="M49.05 40.7c-2.09,-4.64 -4.29,-4.73 -6.26,-4.73 -1.63,-0.07 -3.48,-0.07 -5.34,-0.07 -1.86,0 -4.87,0.7 -7.42,3.48 -2.56,2.78 -9.74,9.51 -9.74,23.18 0,13.68 9.97,26.91 11.36,28.76 1.39,1.86 19.25,30.84 47.54,41.98 23.54,9.28 28.3,7.42 33.4,6.95 5.1,-0.46 16.46,-6.73 18.78,-13.22 2.32,-6.49 2.32,-12.05 1.63,-13.22 -0.7,-1.16 -2.56,-1.85 -5.34,-3.24 -2.79,-1.39 -16.47,-8.12 -19.02,-9.05 -2.55,-0.92 -4.41,-1.39 -6.26,1.39 -1.85,2.78 -7.19,9.05 -8.81,10.9 -1.62,1.86 -3.25,2.09 -6.03,0.7 -2.79,-1.39 -11.6,-4.29 -22.04,-13.57 -8.12,-7.3 -13.56,-16.34 -15.18,-19.13 -1.63,-2.78 -0.18,-4.29 1.21,-5.68 1.25,-1.25 2.79,-3.25 4.18,-4.87 1.39,-1.62 1.85,-2.78 2.78,-4.64 0.92,-1.86 0.46,-3.48 -0.23,-4.87 -0.7,-1.39 -6.03,-15.07 -8.53,-20.64l-0.68 -0.41z"/>
    </clipPath>
    <clipPath id="id1">
     <path d="M46 43.97c-2.09,-4.64 -4.29,-4.73 -6.26,-4.73 -1.63,-0.07 -3.48,-0.07 -5.34,-0.07 -1.86,0 -4.87,0.69 -7.42,3.48 -2.56,2.78 -9.74,9.51 -9.74,23.18 0,13.68 9.97,26.91 11.36,28.76 1.39,1.86 19.25,30.84 47.54,41.98 23.54,9.28 28.3,7.42 33.4,6.95 5.1,-0.46 16.46,-6.73 18.78,-13.22 2.32,-6.49 2.32,-12.06 1.63,-13.22 -0.7,-1.16 -2.56,-1.85 -5.34,-3.24 -2.79,-1.4 -16.47,-8.12 -19.01,-9.05 -2.56,-0.93 -4.42,-1.39 -6.26,1.39 -1.86,2.78 -7.2,9.05 -8.82,10.9 -1.62,1.86 -3.25,2.09 -6.03,0.7 -2.79,-1.39 -11.6,-4.29 -22.04,-13.57 -8.12,-7.3 -13.56,-16.35 -15.18,-19.13 -1.63,-2.78 -0.18,-4.29 1.21,-5.68 1.25,-1.25 2.79,-3.25 4.18,-4.87 1.39,-1.62 1.85,-2.78 2.78,-4.64 0.92,-1.86 0.46,-3.48 -0.23,-4.87 -0.7,-1.39 -6.03,-15.08 -8.52,-20.64l-0.69 -0.41z"/>
    </clipPath>
 </defs>
 <g id="Camada_x0020_1">
  <metadata id="CorelCorpID_0Corel-Layer"/>
  <path class="fil0 str0" d="M81.71 2.86c-43.56,0 -78.85,35.29 -78.85,78.85 0,14.75 3.95,29.22 11.45,41.88l1.6 2.67 -7.22 26.37 27.04 -7.09 2.59 1.53c12.81,8.66 27.91,13.37 43.39,13.48 43.55,0 78.84,-35.3 78.84,-78.85 0,-43.55 -35.29,-78.84 -78.84,-78.84z"/>
  <path class="fil1" d="M61.56 5.47c-0.48,0.12 -0.96,0.25 -1.43,0.38 -0.17,0.37 -0.09,0.83 0.23,1.12 0.39,0.36 1,0.33 1.36,-0.07 0.36,-0.39 0.33,-1 -0.07,-1.36 -0.03,-0.03 -0.06,-0.05 -0.09,-0.07zm-21.33 9.17c-0.7,0.44 -1.39,0.88 -2.08,1.34 0.06,0.24 0.19,0.46 0.39,0.64 0.54,0.48 1.36,0.44 1.84,-0.09 0.48,-0.53 0.44,-1.36 -0.09,-1.84l-0.06 -0.05zm-25.82 25.96c-0.29,0.47 -0.57,0.95 -0.85,1.43 -0.04,0.55 0.17,1.12 0.61,1.52 0.77,0.7 1.94,0.64 2.63,-0.13 0.7,-0.76 0.64,-1.94 -0.13,-2.63 -0.64,-0.58 -1.57,-0.63 -2.26,-0.19zm-2.87 5.12c-0.61,1.17 -1.18,2.36 -1.72,3.56 0.76,0.34 1.68,0.17 2.27,-0.48 0.73,-0.81 0.67,-2.06 -0.14,-2.79 -0.13,-0.12 -0.27,-0.22 -0.41,-0.29zm-7.43 21.96c-0.27,1.5 -0.49,3.01 -0.68,4.53 0.63,0 1.26,-0.26 1.71,-0.76 0.86,-0.95 0.79,-2.41 -0.16,-3.27 -0.26,-0.24 -0.56,-0.4 -0.87,-0.5zm-1.17 17.66c0.05,1.03 0.11,2.06 0.2,3.09 0.63,-0.95 0.56,-2.22 -0.2,-3.09zm1.22 10.93c0.27,1.55 0.59,3.08 0.96,4.6 0.09,-0.08 0.18,-0.17 0.27,-0.26 0.98,-1.09 0.9,-2.77 -0.19,-3.75 -0.31,-0.28 -0.67,-0.48 -1.04,-0.59zm3.1 12.01c0.37,1.09 0.76,2.17 1.18,3.24 0.34,-1.01 0.08,-2.17 -0.77,-2.93 -0.13,-0.12 -0.27,-0.22 -0.41,-0.31zm3.16 7.9c0.56,1.22 1.15,2.42 1.78,3.62 0.99,0.3 2.12,0.03 2.87,-0.79 1.02,-1.14 0.93,-2.88 -0.2,-3.91 -1.13,-1.03 -2.88,-0.94 -3.91,0.19 -0.24,0.27 -0.42,0.57 -0.54,0.89zm5.4 9.93l0.09 0.15 -1.48 5.41c1.07,0.39 2.31,0.12 3.12,-0.77 1.06,-1.18 0.97,-3 -0.21,-4.07 -0.44,-0.4 -0.97,-0.64 -1.52,-0.72zm-4.65 17.46l-1.02 3.74c0.17,0.4 0.43,0.77 0.77,1.08 1.28,1.15 3.24,1.05 4.39,-0.22 1.15,-1.28 1.05,-3.24 -0.22,-4.39 -1.11,-1.01 -2.75,-1.06 -3.92,-0.21zm-1.37 5.02l-1.11 4.04 2.69 -0.7c0.18,-1.05 -0.16,-2.17 -1.01,-2.93 -0.18,-0.16 -0.37,-0.3 -0.57,-0.41zm8.55 1.51l2.24 -0.59c-0.78,-0.1 -1.58,0.1 -2.24,0.59zm4.19 -1.1l5.44 -1.43c0.09,-0.91 -0.24,-1.84 -0.97,-2.5 -1.23,-1.11 -3.12,-1.02 -4.23,0.21 -0.95,1.05 -1.02,2.6 -0.24,3.72zm13.56 -3.24l2.22 1.31c0.51,0.34 1.01,0.67 1.53,1 -0.1,-0.64 -0.41,-1.25 -0.92,-1.71 -0.79,-0.72 -1.88,-0.91 -2.83,-0.6zm17.54 9.37c1.71,0.67 3.45,1.28 5.21,1.83 0.28,-0.98 0,-2.07 -0.81,-2.8 -1.13,-1.02 -2.88,-0.94 -3.91,0.19 -0.21,0.24 -0.38,0.5 -0.49,0.78zm12.28 3.69c1.28,0.28 2.56,0.52 3.85,0.72 0.14,-0.1 0.26,-0.21 0.38,-0.34 0.98,-1.09 0.9,-2.77 -0.19,-3.75 -1.09,-0.98 -2.77,-0.9 -3.75,0.19 -0.81,0.9 -0.9,2.2 -0.29,3.18zm12.48 1.63c1.1,0.06 2.2,0.09 3.31,0.1l0.13 -0.01c0.08,-0.06 0.15,-0.13 0.22,-0.21 0.94,-1.04 0.86,-2.65 -0.18,-3.59 -1.04,-0.94 -2.65,-0.86 -3.59,0.18 -0.93,1.02 -0.87,2.58 0.11,3.53zm11.36 -0.31c1.62,-0.16 3.22,-0.38 4.81,-0.64 -0.07,-0.55 -0.33,-1.07 -0.77,-1.47 -1,-0.9 -2.53,-0.82 -3.43,0.17 -0.5,0.55 -0.7,1.26 -0.61,1.94zm17.11 -3.7c1.4,-0.47 2.78,-0.97 4.14,-1.52 -0.12,-0.3 -0.31,-0.58 -0.57,-0.82 -0.91,-0.81 -2.3,-0.74 -3.11,0.16 -0.56,0.61 -0.71,1.45 -0.46,2.18zm26.73 -15.37c0.66,-0.58 1.31,-1.17 1.95,-1.78 -0.54,-0.06 -1.11,0.13 -1.5,0.57 -0.31,0.34 -0.46,0.78 -0.45,1.21zm5 -4.78c0.67,-0.7 1.33,-1.42 1.98,-2.14 -0.58,-0.16 -1.22,0.01 -1.65,0.48 -0.42,0.47 -0.52,1.11 -0.33,1.66zm4.85 -5.55c0.48,-0.61 0.96,-1.22 1.42,-1.84 -0.39,0.02 -0.77,0.19 -1.06,0.5 -0.34,0.38 -0.45,0.88 -0.36,1.34zm14 -27.09c0.14,-0.49 0.28,-1 0.42,-1.5 -0.06,-0.09 -0.12,-0.17 -0.21,-0.24 -0.43,-0.4 -1.12,-0.37 -1.51,0.07 -0.4,0.44 -0.37,1.12 0.07,1.52 0.35,0.32 0.84,0.36 1.23,0.15zm-67.03 -100.31c-0.41,-0.04 -0.82,-0.08 -1.24,-0.12 -0.05,0.21 0.02,0.45 0.19,0.61 0.26,0.23 0.65,0.21 0.88,-0.04 0.12,-0.13 0.17,-0.29 0.17,-0.45zm-71.5 32.35c0.65,-0.72 1.76,-0.77 2.48,-0.12 0.71,0.65 0.77,1.76 0.12,2.47 -0.65,0.72 -1.76,0.78 -2.47,0.13 -0.72,-0.65 -0.78,-1.76 -0.13,-2.48zm4.88 -5.22c0.61,-0.68 1.65,-0.73 2.32,-0.12 0.67,0.61 0.72,1.64 0.12,2.32 -0.61,0.67 -1.65,0.72 -2.32,0.11 -0.67,-0.61 -0.72,-1.64 -0.12,-2.31zm4.89 -5.23c0.56,-0.63 1.53,-0.68 2.15,-0.11 0.63,0.57 0.68,1.53 0.11,2.16 -0.57,0.62 -1.53,0.67 -2.16,0.1 -0.62,-0.56 -0.67,-1.53 -0.1,-2.15zm4.88 -5.23c0.52,-0.58 1.42,-0.62 1.99,-0.1 0.58,0.52 0.63,1.42 0.11,2 -0.53,0.58 -1.42,0.62 -2,0.1 -0.58,-0.53 -0.63,-1.42 -0.1,-2zm-26.98 43.1c0.82,-0.9 2.21,-0.97 3.11,-0.15 0.91,0.82 0.97,2.21 0.16,3.11 -0.82,0.9 -2.21,0.97 -3.12,0.16 -0.9,-0.82 -0.97,-2.21 -0.15,-3.12zm4.88 -5.22c0.78,-0.86 2.1,-0.93 2.95,-0.15 0.86,0.77 0.93,2.09 0.15,2.95 -0.77,0.86 -2.1,0.93 -2.95,0.15 -0.86,-0.78 -0.92,-2.1 -0.15,-2.95zm4.88 -5.23c0.74,-0.81 1.99,-0.87 2.8,-0.14 0.81,0.73 0.87,1.98 0.14,2.79 -0.74,0.81 -1.99,0.88 -2.8,0.14 -0.81,-0.73 -0.87,-1.98 -0.14,-2.79zm4.88 -5.23c0.69,-0.76 1.88,-0.82 2.64,-0.13 0.76,0.69 0.82,1.87 0.13,2.63 -0.69,0.77 -1.87,0.83 -2.63,0.14 -0.77,-0.7 -0.83,-1.88 -0.14,-2.64zm4.89 -5.23c0.65,-0.71 1.75,-0.77 2.47,-0.12 0.72,0.65 0.78,1.76 0.12,2.47 -0.64,0.72 -1.75,0.78 -2.47,0.13 -0.72,-0.65 -0.77,-1.76 -0.12,-2.48zm4.88 -5.22c0.61,-0.68 1.64,-0.73 2.32,-0.12 0.67,0.61 0.72,1.64 0.11,2.32 -0.61,0.67 -1.64,0.72 -2.31,0.11 -0.68,-0.6 -0.73,-1.64 -0.12,-2.31zm4.88 -5.23c0.57,-0.63 1.53,-0.68 2.16,-0.11 0.62,0.57 0.67,1.53 0.11,2.16 -0.57,0.62 -1.54,0.67 -2.16,0.11 -0.63,-0.57 -0.67,-1.54 -0.11,-2.16zm4.88 -5.23c0.53,-0.58 1.42,-0.62 2,-0.1 0.58,0.52 0.62,1.42 0.1,2 -0.52,0.58 -1.42,0.62 -2,0.1 -0.58,-0.53 -0.62,-1.42 -0.1,-2zm4.89 -5.23c0.48,-0.53 1.3,-0.57 1.83,-0.09 0.53,0.48 0.58,1.31 0.09,1.84 -0.48,0.53 -1.3,0.57 -1.83,0.09 -0.54,-0.48 -0.58,-1.3 -0.09,-1.84zm4.88 -5.23c0.44,-0.48 1.19,-0.52 1.68,-0.08 0.48,0.44 0.52,1.19 0.08,1.68 -0.44,0.49 -1.19,0.52 -1.68,0.08 -0.48,-0.43 -0.52,-1.19 -0.08,-1.68zm4.88 -5.22c0.4,-0.44 1.08,-0.48 1.52,-0.08 0.44,0.4 0.47,1.08 0.07,1.52 -0.39,0.44 -1.07,0.48 -1.52,0.08 -0.44,-0.4 -0.47,-1.08 -0.07,-1.52zm-51.39 69.24c0.9,-1 2.44,-1.07 3.43,-0.17 1,0.9 1.07,2.44 0.17,3.43 -0.9,0.99 -2.43,1.07 -3.43,0.17 -0.99,-0.9 -1.07,-2.44 -0.17,-3.43zm4.88 -5.23c0.86,-0.95 2.33,-1.02 3.27,-0.16 0.95,0.85 1.03,2.32 0.17,3.27 -0.86,0.95 -2.33,1.02 -3.27,0.16 -0.95,-0.85 -1.03,-2.32 -0.17,-3.27zm4.88 -5.23c0.82,-0.9 2.21,-0.97 3.12,-0.15 0.9,0.81 0.97,2.21 0.15,3.11 -0.81,0.9 -2.21,0.97 -3.11,0.16 -0.9,-0.82 -0.97,-2.21 -0.16,-3.12zm4.89 -5.22c0.77,-0.86 2.09,-0.93 2.95,-0.15 0.86,0.77 0.92,2.1 0.15,2.95 -0.78,0.86 -2.1,0.92 -2.96,0.15 -0.85,-0.78 -0.92,-2.1 -0.14,-2.95zm4.88 -5.23c0.73,-0.81 1.98,-0.87 2.79,-0.14 0.81,0.73 0.88,1.98 0.14,2.79 -0.73,0.81 -1.98,0.88 -2.79,0.14 -0.81,-0.73 -0.87,-1.98 -0.14,-2.79zm4.88 -5.23c0.69,-0.76 1.87,-0.82 2.64,-0.13 0.76,0.69 0.82,1.87 0.13,2.64 -0.69,0.76 -1.87,0.82 -2.64,0.13 -0.76,-0.7 -0.82,-1.87 -0.13,-2.64zm4.88 -5.23c0.65,-0.71 1.76,-0.77 2.48,-0.12 0.71,0.65 0.77,1.76 0.12,2.48 -0.65,0.71 -1.75,0.77 -2.48,0.12 -0.71,-0.65 -0.77,-1.76 -0.12,-2.48zm4.88 -5.22c0.61,-0.68 1.65,-0.73 2.32,-0.12 0.67,0.61 0.72,1.64 0.12,2.32 -0.61,0.67 -1.65,0.72 -2.32,0.11 -0.67,-0.61 -0.72,-1.64 -0.12,-2.31zm4.89 -5.23c0.56,-0.63 1.53,-0.68 2.15,-0.11 0.63,0.56 0.68,1.53 0.11,2.16 -0.57,0.62 -1.53,0.67 -2.16,0.11 -0.62,-0.57 -0.67,-1.54 -0.1,-2.16zm4.88 -5.23c0.52,-0.58 1.42,-0.62 2,-0.1 0.57,0.52 0.62,1.42 0.1,2 -0.53,0.58 -1.42,0.62 -2,0.1 -0.58,-0.53 -0.63,-1.42 -0.1,-2zm4.88 -5.23c0.48,-0.53 1.31,-0.57 1.84,-0.09 0.53,0.48 0.57,1.31 0.09,1.84 -0.48,0.53 -1.3,0.57 -1.84,0.09 -0.53,-0.48 -0.57,-1.31 -0.09,-1.84zm4.88 -5.22c0.44,-0.49 1.2,-0.53 1.68,-0.09 0.49,0.44 0.52,1.19 0.08,1.68 -0.43,0.49 -1.19,0.52 -1.67,0.08 -0.49,-0.44 -0.53,-1.19 -0.09,-1.67zm4.88 -5.23c0.4,-0.44 1.08,-0.48 1.52,-0.08 0.44,0.4 0.48,1.08 0.08,1.52 -0.4,0.44 -1.08,0.47 -1.52,0.08 -0.44,-0.4 -0.47,-1.08 -0.08,-1.52zm4.89 -5.23c0.35,-0.39 0.96,-0.42 1.36,-0.07 0.39,0.36 0.42,0.97 0.06,1.36 -0.35,0.4 -0.96,0.43 -1.36,0.07 -0.39,-0.36 -0.42,-0.96 -0.06,-1.36zm4.88 -5.23c0.31,-0.35 0.85,-0.37 1.2,-0.06 0.35,0.32 0.37,0.85 0.06,1.2 -0.32,0.35 -0.85,0.38 -1.2,0.06 -0.35,-0.31 -0.38,-0.85 -0.06,-1.2zm-66.04 84.93c0.94,-1.04 2.55,-1.12 3.59,-0.18 1.05,0.94 1.13,2.55 0.18,3.59 -0.94,1.04 -2.55,1.12 -3.59,0.18 -1.04,-0.94 -1.12,-2.55 -0.18,-3.59zm4.89 -5.23c0.9,-1 2.43,-1.07 3.43,-0.17 0.99,0.9 1.07,2.44 0.17,3.43 -0.9,0.99 -2.44,1.07 -3.43,0.17 -1,-0.9 -1.07,-2.44 -0.17,-3.43zm4.88 -5.23c0.86,-0.95 2.32,-1.02 3.27,-0.16 0.95,0.86 1.02,2.32 0.16,3.27 -0.86,0.95 -2.32,1.02 -3.27,0.16 -0.95,-0.85 -1.02,-2.32 -0.16,-3.27zm4.88 -5.23c0.82,-0.9 2.21,-0.97 3.11,-0.15 0.9,0.82 0.97,2.21 0.16,3.11 -0.82,0.9 -2.21,0.97 -3.11,0.16 -0.91,-0.82 -0.98,-2.21 -0.16,-3.12zm4.88 -5.22c0.78,-0.86 2.1,-0.93 2.96,-0.15 0.85,0.77 0.92,2.09 0.14,2.95 -0.77,0.86 -2.09,0.93 -2.95,0.15 -0.86,-0.77 -0.92,-2.1 -0.15,-2.95zm4.88 -5.23c0.74,-0.81 1.99,-0.87 2.8,-0.14 0.81,0.73 0.87,1.98 0.14,2.79 -0.74,0.81 -1.99,0.88 -2.8,0.14 -0.81,-0.73 -0.87,-1.98 -0.14,-2.79zm4.89 -5.23c0.69,-0.76 1.87,-0.82 2.63,-0.13 0.77,0.69 0.82,1.87 0.13,2.63 -0.69,0.77 -1.87,0.83 -2.63,0.14 -0.77,-0.7 -0.83,-1.88 -0.13,-2.64zm4.88 -5.23c0.65,-0.71 1.75,-0.77 2.47,-0.12 0.72,0.65 0.78,1.76 0.13,2.48 -0.65,0.71 -1.76,0.77 -2.48,0.12 -0.72,-0.65 -0.77,-1.76 -0.12,-2.48zm4.88 -5.22c0.61,-0.68 1.65,-0.73 2.32,-0.12 0.67,0.61 0.72,1.64 0.11,2.32 -0.61,0.67 -1.64,0.72 -2.31,0.11 -0.68,-0.6 -0.73,-1.64 -0.12,-2.31zm4.88 -5.23c0.57,-0.63 1.53,-0.68 2.16,-0.11 0.62,0.57 0.67,1.53 0.11,2.16 -0.57,0.62 -1.53,0.67 -2.16,0.11 -0.63,-0.57 -0.67,-1.54 -0.11,-2.16zm4.88 -5.23c0.53,-0.58 1.42,-0.62 2,-0.1 0.58,0.53 0.62,1.42 0.1,2 -0.52,0.58 -1.42,0.62 -2,0.1 -0.58,-0.52 -0.62,-1.42 -0.1,-2zm4.89 -5.23c0.48,-0.53 1.3,-0.57 1.83,-0.09 0.54,0.48 0.58,1.31 0.1,1.84 -0.49,0.53 -1.31,0.57 -1.84,0.09 -0.54,-0.48 -0.58,-1.3 -0.09,-1.84zm4.88 -5.23c0.44,-0.48 1.19,-0.52 1.68,-0.08 0.48,0.44 0.52,1.19 0.08,1.68 -0.44,0.49 -1.19,0.53 -1.68,0.08 -0.48,-0.43 -0.52,-1.19 -0.08,-1.68zm4.88 -5.22c0.4,-0.44 1.08,-0.48 1.52,-0.08 0.44,0.4 0.47,1.08 0.07,1.52 -0.39,0.44 -1.07,0.48 -1.51,0.08 -0.44,-0.4 -0.48,-1.08 -0.08,-1.52zm4.88 -5.23c0.36,-0.39 0.97,-0.42 1.36,-0.07 0.4,0.36 0.43,0.97 0.07,1.36 -0.36,0.4 -0.97,0.43 -1.36,0.07 -0.39,-0.36 -0.42,-0.97 -0.07,-1.36zm4.88 -5.23c0.32,-0.34 0.86,-0.37 1.21,-0.06 0.34,0.32 0.37,0.85 0.05,1.2 -0.31,0.35 -0.85,0.38 -1.2,0.06 -0.34,-0.31 -0.37,-0.85 -0.06,-1.2zm4.89 -5.23c0.27,-0.3 0.74,-0.32 1.04,-0.05 0.3,0.28 0.32,0.74 0.05,1.04 -0.27,0.31 -0.74,0.33 -1.04,0.06 -0.3,-0.28 -0.33,-0.74 -0.05,-1.05zm12.07 1.29c0.24,-0.26 0.63,-0.28 0.89,-0.04 0.25,0.23 0.27,0.62 0.04,0.88 -0.23,0.25 -0.63,0.27 -0.88,0.04 -0.26,-0.23 -0.28,-0.63 -0.05,-0.88zm-87.87 94.1c0.98,-1.09 2.66,-1.18 3.75,-0.19 1.08,0.98 1.17,2.66 0.18,3.75 -0.98,1.09 -2.66,1.17 -3.75,0.18 -1.08,-0.98 -1.17,-2.66 -0.18,-3.74zm4.88 -5.23c0.94,-1.04 2.55,-1.12 3.59,-0.18 1.04,0.94 1.12,2.55 0.18,3.59 -0.94,1.04 -2.55,1.12 -3.59,0.18 -1.04,-0.94 -1.12,-2.55 -0.18,-3.59zm4.88 -5.23c0.9,-0.99 2.44,-1.07 3.43,-0.17 1,0.9 1.07,2.44 0.17,3.43 -0.9,1 -2.43,1.07 -3.43,0.17 -0.99,-0.9 -1.07,-2.44 -0.17,-3.43zm4.88 -5.23c0.86,-0.95 2.33,-1.02 3.28,-0.16 0.94,0.86 1.02,2.32 0.16,3.27 -0.86,0.95 -2.33,1.02 -3.27,0.16 -0.95,-0.85 -1.03,-2.32 -0.17,-3.27zm4.88 -5.23c0.82,-0.9 2.21,-0.97 3.12,-0.15 0.9,0.82 0.97,2.21 0.15,3.11 -0.81,0.9 -2.21,0.97 -3.11,0.16 -0.9,-0.82 -0.97,-2.21 -0.16,-3.12zm4.89 -5.22c0.77,-0.86 2.1,-0.93 2.95,-0.15 0.86,0.77 0.92,2.1 0.15,2.95 -0.78,0.86 -2.1,0.93 -2.96,0.15 -0.85,-0.77 -0.92,-2.1 -0.14,-2.95zm4.88 -5.23c0.73,-0.81 1.98,-0.87 2.8,-0.14 0.8,0.73 0.87,1.98 0.14,2.79 -0.74,0.81 -1.99,0.88 -2.8,0.14 -0.81,-0.73 -0.87,-1.98 -0.14,-2.79zm4.88 -5.23c0.69,-0.76 1.87,-0.82 2.63,-0.13 0.77,0.69 0.83,1.87 0.14,2.63 -0.69,0.77 -1.87,0.83 -2.64,0.14 -0.76,-0.69 -0.82,-1.87 -0.13,-2.64zm4.88 -5.22c0.65,-0.72 1.76,-0.78 2.48,-0.13 0.72,0.65 0.77,1.76 0.12,2.48 -0.65,0.71 -1.76,0.77 -2.47,0.12 -0.72,-0.65 -0.78,-1.76 -0.13,-2.47zm4.88 -5.23c0.61,-0.68 1.65,-0.73 2.32,-0.12 0.67,0.61 0.73,1.64 0.12,2.32 -0.61,0.67 -1.65,0.72 -2.32,0.11 -0.67,-0.6 -0.72,-1.64 -0.12,-2.31zm4.89 -5.23c0.56,-0.63 1.53,-0.67 2.15,-0.11 0.63,0.57 0.68,1.53 0.11,2.16 -0.56,0.62 -1.53,0.67 -2.16,0.1 -0.62,-0.56 -0.67,-1.53 -0.1,-2.15zm4.88 -5.23c0.52,-0.58 1.42,-0.62 2,-0.1 0.58,0.53 0.62,1.42 0.1,2 -0.53,0.58 -1.42,0.62 -2,0.1 -0.58,-0.52 -0.62,-1.42 -0.1,-2zm4.88 -5.23c0.48,-0.53 1.31,-0.57 1.84,-0.09 0.53,0.48 0.57,1.31 0.09,1.84 -0.48,0.53 -1.3,0.58 -1.84,0.09 -0.53,-0.48 -0.57,-1.3 -0.09,-1.84zm4.88 -5.22c0.44,-0.49 1.19,-0.53 1.68,-0.09 0.49,0.44 0.53,1.19 0.09,1.68 -0.45,0.49 -1.2,0.52 -1.68,0.08 -0.49,-0.44 -0.53,-1.19 -0.09,-1.67zm4.89 -5.23c0.39,-0.44 1.07,-0.47 1.51,-0.08 0.44,0.4 0.48,1.08 0.08,1.52 -0.4,0.44 -1.08,0.48 -1.52,0.08 -0.44,-0.4 -0.47,-1.08 -0.07,-1.52zm4.88 -5.23c0.35,-0.39 0.96,-0.42 1.36,-0.07 0.39,0.36 0.42,0.97 0.07,1.36 -0.36,0.4 -0.97,0.43 -1.37,0.07 -0.39,-0.36 -0.42,-0.96 -0.06,-1.36zm4.88 -5.23c0.31,-0.35 0.85,-0.37 1.2,-0.06 0.35,0.32 0.37,0.86 0.06,1.2 -0.32,0.35 -0.85,0.38 -1.2,0.06 -0.35,-0.31 -0.38,-0.85 -0.06,-1.2zm4.88 -5.22c0.27,-0.31 0.74,-0.33 1.04,-0.06 0.3,0.28 0.33,0.74 0.06,1.05 -0.28,0.3 -0.74,0.32 -1.05,0.05 -0.3,-0.28 -0.32,-0.74 -0.05,-1.04zm12.08 1.28c0.23,-0.26 0.62,-0.28 0.88,-0.04 0.26,0.23 0.28,0.62 0.05,0.88 -0.24,0.25 -0.63,0.27 -0.89,0.04 -0.25,-0.23 -0.27,-0.62 -0.04,-0.88zm-87.88 94.1c0.99,-1.09 2.67,-1.18 3.75,-0.19 1.09,0.98 1.17,2.66 0.19,3.75 -0.98,1.09 -2.66,1.17 -3.75,0.19 -1.09,-0.99 -1.17,-2.67 -0.19,-3.75zm4.88 -5.23c0.95,-1.04 2.55,-1.13 3.6,-0.18 1.04,0.94 1.12,2.55 0.17,3.59 -0.94,1.04 -2.55,1.12 -3.59,0.18 -1.04,-0.94 -1.12,-2.55 -0.18,-3.59zm4.89 -5.23c0.9,-1 2.43,-1.07 3.43,-0.17 0.99,0.9 1.07,2.43 0.17,3.43 -0.9,0.99 -2.44,1.07 -3.43,0.17 -1,-0.9 -1.07,-2.43 -0.17,-3.43zm4.88 -5.23c0.86,-0.95 2.32,-1.02 3.27,-0.16 0.95,0.86 1.02,2.32 0.16,3.27 -0.85,0.95 -2.32,1.03 -3.27,0.17 -0.95,-0.86 -1.02,-2.33 -0.16,-3.28zm4.88 -5.23c0.82,-0.9 2.21,-0.97 3.11,-0.15 0.91,0.82 0.98,2.21 0.16,3.11 -0.82,0.91 -2.21,0.97 -3.11,0.16 -0.91,-0.82 -0.98,-2.21 -0.16,-3.12zm4.88 -5.22c0.78,-0.86 2.1,-0.92 2.96,-0.15 0.85,0.78 0.92,2.1 0.14,2.95 -0.77,0.86 -2.09,0.93 -2.95,0.15 -0.86,-0.77 -0.92,-2.1 -0.15,-2.95zm4.88 -5.23c0.74,-0.81 1.99,-0.87 2.8,-0.14 0.81,0.73 0.87,1.98 0.14,2.79 -0.73,0.81 -1.98,0.88 -2.8,0.14 -0.81,-0.73 -0.87,-1.98 -0.14,-2.79zm4.89 -5.23c0.69,-0.76 1.87,-0.82 2.63,-0.13 0.77,0.69 0.82,1.87 0.13,2.64 -0.69,0.76 -1.87,0.82 -2.63,0.13 -0.77,-0.69 -0.82,-1.87 -0.13,-2.64zm4.88 -5.23c0.65,-0.71 1.76,-0.77 2.47,-0.12 0.72,0.65 0.78,1.76 0.13,2.48 -0.65,0.71 -1.76,0.77 -2.48,0.12 -0.71,-0.65 -0.77,-1.76 -0.12,-2.48zm4.88 -5.22c0.61,-0.68 1.65,-0.73 2.32,-0.12 0.67,0.61 0.72,1.65 0.11,2.32 -0.6,0.67 -1.64,0.72 -2.31,0.11 -0.67,-0.6 -0.73,-1.64 -0.12,-2.31zm4.88 -5.23c0.57,-0.62 1.53,-0.68 2.16,-0.11 0.62,0.57 0.67,1.53 0.11,2.16 -0.57,0.62 -1.53,0.67 -2.16,0.11 -0.63,-0.57 -0.67,-1.54 -0.11,-2.16zm4.89 -5.23c0.52,-0.58 1.41,-0.62 1.99,-0.1 0.58,0.53 0.62,1.42 0.1,2 -0.52,0.58 -1.42,0.62 -2,0.1 -0.57,-0.52 -0.62,-1.42 -0.09,-2zm4.88 -5.23c0.48,-0.53 1.3,-0.57 1.83,-0.09 0.54,0.48 0.58,1.31 0.1,1.84 -0.49,0.53 -1.31,0.58 -1.84,0.09 -0.53,-0.48 -0.58,-1.3 -0.09,-1.84zm4.88 -5.22c0.44,-0.49 1.19,-0.53 1.68,-0.09 0.48,0.44 0.52,1.2 0.08,1.68 -0.44,0.49 -1.19,0.53 -1.68,0.09 -0.48,-0.44 -0.52,-1.2 -0.08,-1.68zm4.88 -5.23c0.4,-0.44 1.08,-0.47 1.52,-0.08 0.44,0.4 0.47,1.08 0.08,1.52 -0.4,0.44 -1.08,0.48 -1.52,0.08 -0.44,-0.4 -0.48,-1.08 -0.08,-1.52zm4.88 -5.23c0.36,-0.39 0.97,-0.42 1.36,-0.07 0.4,0.36 0.43,0.97 0.07,1.36 -0.36,0.4 -0.96,0.43 -1.36,0.07 -0.39,-0.36 -0.42,-0.96 -0.07,-1.36zm4.89 -5.23c0.31,-0.34 0.85,-0.37 1.19,-0.06 0.35,0.32 0.38,0.86 0.07,1.2 -0.32,0.35 -0.86,0.38 -1.21,0.06 -0.34,-0.31 -0.37,-0.85 -0.05,-1.2zm4.88 -5.22c0.27,-0.31 0.74,-0.33 1.04,-0.05 0.3,0.27 0.32,0.73 0.05,1.04 -0.27,0.3 -0.74,0.32 -1.04,0.05 -0.3,-0.28 -0.33,-0.74 -0.05,-1.04zm12.08 1.28c0.23,-0.26 0.62,-0.28 0.88,-0.04 0.25,0.23 0.27,0.62 0.04,0.88 -0.23,0.25 -0.63,0.27 -0.88,0.04 -0.26,-0.23 -0.28,-0.63 -0.04,-0.88zm-92.76 99.32c1.02,-1.13 2.77,-1.22 3.91,-0.19 1.13,1.02 1.22,2.77 0.19,3.91 -1.02,1.13 -2.78,1.22 -3.91,0.19 -1.13,-1.02 -1.22,-2.77 -0.19,-3.91zm4.88 -5.22c0.98,-1.09 2.66,-1.18 3.75,-0.19 1.09,0.98 1.17,2.66 0.19,3.75 -0.99,1.09 -2.67,1.17 -3.76,0.19 -1.08,-0.99 -1.17,-2.67 -0.18,-3.75zm4.88 -5.23c0.94,-1.04 2.55,-1.12 3.59,-0.18 1.04,0.94 1.12,2.55 0.18,3.59 -0.94,1.04 -2.55,1.12 -3.59,0.18 -1.04,-0.94 -1.12,-2.55 -0.18,-3.59zm4.88 -5.23c0.9,-0.99 2.44,-1.07 3.43,-0.17 1,0.9 1.08,2.44 0.17,3.43 -0.9,1 -2.43,1.07 -3.43,0.17 -0.99,-0.9 -1.07,-2.43 -0.17,-3.43zm4.88 -5.23c0.86,-0.95 2.33,-1.02 3.28,-0.16 0.95,0.86 1.02,2.32 0.16,3.27 -0.86,0.95 -2.32,1.02 -3.27,0.16 -0.95,-0.85 -1.03,-2.32 -0.17,-3.27zm4.89 -5.23c0.81,-0.9 2.2,-0.97 3.11,-0.15 0.9,0.82 0.97,2.21 0.15,3.11 -0.81,0.91 -2.21,0.97 -3.11,0.16 -0.9,-0.82 -0.97,-2.21 -0.15,-3.12zm4.88 -5.22c0.77,-0.86 2.1,-0.92 2.95,-0.15 0.86,0.78 0.92,2.1 0.15,2.95 -0.78,0.86 -2.1,0.93 -2.96,0.15 -0.85,-0.77 -0.92,-2.1 -0.14,-2.95zm4.88 -5.23c0.73,-0.81 1.99,-0.87 2.79,-0.14 0.81,0.73 0.88,1.98 0.15,2.8 -0.74,0.81 -1.99,0.87 -2.8,0.13 -0.81,-0.73 -0.87,-1.98 -0.14,-2.79zm4.88 -5.23c0.69,-0.76 1.87,-0.82 2.64,-0.13 0.76,0.69 0.82,1.87 0.13,2.64 -0.69,0.76 -1.87,0.82 -2.64,0.13 -0.76,-0.69 -0.82,-1.87 -0.13,-2.64zm4.88 -5.22c0.65,-0.72 1.76,-0.78 2.48,-0.13 0.72,0.65 0.77,1.76 0.13,2.48 -0.66,0.72 -1.76,0.77 -2.48,0.12 -0.72,-0.65 -0.78,-1.76 -0.13,-2.47zm4.89 -5.23c0.6,-0.67 1.64,-0.73 2.31,-0.12 0.67,0.61 0.72,1.65 0.12,2.32 -0.61,0.67 -1.65,0.72 -2.32,0.11 -0.67,-0.6 -0.72,-1.64 -0.11,-2.31zm4.88 -5.23c0.56,-0.63 1.53,-0.67 2.16,-0.11 0.62,0.57 0.67,1.54 0.1,2.16 -0.56,0.62 -1.53,0.67 -2.15,0.11 -0.63,-0.57 -0.68,-1.54 -0.11,-2.16zm4.88 -5.23c0.52,-0.58 1.42,-0.62 2,-0.1 0.58,0.53 0.62,1.42 0.1,2 -0.53,0.58 -1.42,0.62 -2,0.1 -0.58,-0.52 -0.62,-1.42 -0.1,-2zm4.88 -5.22c0.49,-0.54 1.31,-0.58 1.84,-0.1 0.53,0.48 0.57,1.31 0.09,1.84 -0.48,0.53 -1.3,0.58 -1.84,0.09 -0.53,-0.48 -0.57,-1.3 -0.09,-1.83zm4.88 -5.23c0.44,-0.49 1.2,-0.53 1.68,-0.09 0.49,0.44 0.53,1.2 0.09,1.68 -0.44,0.49 -1.19,0.53 -1.68,0.09 -0.49,-0.45 -0.53,-1.2 -0.09,-1.68zm4.89 -5.23c0.4,-0.44 1.07,-0.48 1.52,-0.08 0.44,0.4 0.47,1.08 0.07,1.52 -0.4,0.44 -1.08,0.48 -1.52,0.08 -0.44,-0.4 -0.47,-1.08 -0.07,-1.52zm4.88 -5.23c0.36,-0.39 0.96,-0.42 1.36,-0.07 0.39,0.36 0.42,0.97 0.07,1.36 -0.36,0.4 -0.97,0.43 -1.36,0.07 -0.4,-0.36 -0.43,-0.96 -0.07,-1.36zm4.88 -5.23c0.32,-0.34 0.85,-0.37 1.2,-0.06 0.35,0.32 0.38,0.86 0.06,1.21 -0.32,0.34 -0.85,0.37 -1.2,0.05 -0.35,-0.31 -0.37,-0.85 -0.06,-1.2zm4.88 -5.22c0.28,-0.3 0.74,-0.33 1.04,-0.06 0.31,0.28 0.33,0.74 0.06,1.05 -0.28,0.3 -0.74,0.32 -1.05,0.05 -0.3,-0.28 -0.32,-0.74 -0.05,-1.04zm12.08 1.28c0.23,-0.26 0.63,-0.28 0.88,-0.04 0.26,0.23 0.28,0.62 0.04,0.88 -0.23,0.25 -0.62,0.27 -0.88,0.04 -0.25,-0.23 -0.27,-0.62 -0.04,-0.88zm-102.52 109.78c1.11,-1.23 3,-1.32 4.23,-0.21 1.22,1.11 1.32,3 0.21,4.22 -1.11,1.23 -3.01,1.33 -4.23,0.22 -1.23,-1.11 -1.32,-3 -0.21,-4.23zm4.88 -5.23c1.07,-1.18 2.89,-1.27 4.07,-0.2 1.18,1.06 1.27,2.89 0.2,4.07 -1.07,1.18 -2.89,1.27 -4.07,0.2 -1.18,-1.07 -1.27,-2.89 -0.2,-4.07zm4.88 -5.23c1.03,-1.13 2.78,-1.22 3.91,-0.19 1.14,1.03 1.22,2.78 0.2,3.91 -1.03,1.13 -2.78,1.22 -3.91,0.19 -1.14,-1.02 -1.23,-2.77 -0.2,-3.91zm4.88 -5.22c0.99,-1.09 2.67,-1.17 3.75,-0.19 1.09,0.98 1.18,2.66 0.19,3.75 -0.98,1.09 -2.66,1.17 -3.75,0.19 -1.09,-0.99 -1.17,-2.67 -0.19,-3.75zm4.88 -5.23c0.95,-1.04 2.56,-1.12 3.6,-0.18 1.04,0.94 1.12,2.55 0.18,3.59 -0.95,1.04 -2.55,1.12 -3.59,0.18 -1.05,-0.94 -1.13,-2.55 -0.19,-3.59zm4.89 -5.23c0.9,-0.99 2.44,-1.07 3.43,-0.17 0.99,0.9 1.07,2.44 0.17,3.43 -0.9,1 -2.44,1.07 -3.43,0.17 -1,-0.9 -1.07,-2.43 -0.17,-3.43zm4.88 -5.23c0.86,-0.95 2.32,-1.02 3.27,-0.16 0.95,0.86 1.02,2.32 0.17,3.27 -0.86,0.95 -2.33,1.02 -3.28,0.17 -0.95,-0.86 -1.02,-2.33 -0.16,-3.28zm4.88 -5.22c0.82,-0.91 2.21,-0.98 3.11,-0.16 0.91,0.82 0.98,2.21 0.16,3.11 -0.82,0.91 -2.21,0.98 -3.11,0.16 -0.91,-0.82 -0.98,-2.21 -0.16,-3.11zm4.88 -5.23c0.78,-0.86 2.1,-0.92 2.96,-0.15 0.85,0.78 0.92,2.1 0.14,2.95 -0.77,0.86 -2.09,0.93 -2.95,0.15 -0.86,-0.77 -0.92,-2.1 -0.15,-2.95zm4.89 -5.23c0.73,-0.81 1.98,-0.87 2.79,-0.14 0.81,0.73 0.87,1.99 0.14,2.8 -0.73,0.81 -1.99,0.87 -2.8,0.14 -0.8,-0.74 -0.87,-1.99 -0.13,-2.8zm4.88 -5.23c0.69,-0.76 1.87,-0.82 2.63,-0.13 0.77,0.69 0.83,1.87 0.13,2.64 -0.69,0.76 -1.87,0.82 -2.63,0.13 -0.77,-0.69 -0.82,-1.87 -0.13,-2.64zm4.88 -5.23c0.65,-0.71 1.76,-0.77 2.47,-0.12 0.72,0.65 0.78,1.76 0.13,2.48 -0.65,0.71 -1.76,0.77 -2.48,0.12 -0.72,-0.65 -0.77,-1.76 -0.12,-2.48zm4.88 -5.22c0.61,-0.67 1.65,-0.73 2.32,-0.12 0.67,0.61 0.72,1.65 0.11,2.32 -0.6,0.67 -1.64,0.72 -2.31,0.12 -0.68,-0.61 -0.73,-1.65 -0.12,-2.32zm4.88 -5.23c0.57,-0.62 1.53,-0.67 2.16,-0.11 0.63,0.57 0.67,1.53 0.11,2.16 -0.57,0.62 -1.53,0.67 -2.16,0.11 -0.62,-0.57 -0.67,-1.53 -0.11,-2.16zm4.89 -5.23c0.52,-0.58 1.42,-0.62 1.99,-0.1 0.58,0.53 0.63,1.42 0.1,2 -0.52,0.58 -1.41,0.62 -2,0.1 -0.57,-0.53 -0.62,-1.42 -0.09,-2zm4.88 -5.22c0.48,-0.54 1.3,-0.58 1.84,-0.09 0.53,0.48 0.57,1.3 0.09,1.83 -0.48,0.53 -1.31,0.57 -1.84,0.09 -0.53,-0.48 -0.57,-1.3 -0.09,-1.83zm4.88 -5.23c0.44,-0.49 1.19,-0.53 1.68,-0.09 0.49,0.44 0.52,1.19 0.08,1.68 -0.44,0.49 -1.19,0.53 -1.67,0.09 -0.49,-0.44 -0.53,-1.19 -0.09,-1.68zm4.88 -5.23c0.4,-0.44 1.08,-0.47 1.52,-0.08 0.44,0.4 0.48,1.08 0.08,1.52 -0.4,0.44 -1.08,0.48 -1.52,0.08 -0.44,-0.4 -0.48,-1.08 -0.08,-1.52zm4.88 -5.23c0.36,-0.39 0.97,-0.42 1.36,-0.07 0.4,0.36 0.43,0.97 0.07,1.37 -0.35,0.39 -0.96,0.42 -1.36,0.06 -0.39,-0.36 -0.42,-0.96 -0.07,-1.36zm4.89 -5.22c0.31,-0.35 0.85,-0.38 1.2,-0.06 0.35,0.31 0.37,0.85 0.06,1.2 -0.32,0.34 -0.85,0.37 -1.2,0.06 -0.35,-0.32 -0.38,-0.86 -0.06,-1.2zm4.88 -5.23c0.27,-0.3 0.74,-0.33 1.04,-0.05 0.3,0.27 0.32,0.74 0.05,1.04 -0.27,0.3 -0.74,0.32 -1.04,0.05 -0.3,-0.28 -0.32,-0.74 -0.05,-1.04zm12.08 1.28c0.23,-0.25 0.62,-0.28 0.88,-0.04 0.25,0.23 0.27,0.62 0.04,0.88 -0.23,0.25 -0.62,0.27 -0.88,0.04 -0.26,-0.23 -0.28,-0.62 -0.04,-0.88zm-97.65 104.55c1.07,-1.18 2.89,-1.27 4.07,-0.2 1.18,1.07 1.28,2.89 0.21,4.07 -1.07,1.18 -2.89,1.27 -4.07,0.2 -1.18,-1.07 -1.27,-2.89 -0.21,-4.07zm4.88 -5.23c1.03,-1.13 2.78,-1.22 3.92,-0.19 1.13,1.02 1.22,2.77 0.19,3.91 -1.02,1.13 -2.77,1.22 -3.91,0.19 -1.13,-1.02 -1.22,-2.77 -0.2,-3.91zm4.89 -5.22c0.98,-1.09 2.66,-1.18 3.75,-0.19 1.09,0.98 1.17,2.66 0.19,3.75 -0.99,1.09 -2.67,1.17 -3.76,0.19 -1.08,-0.99 -1.17,-2.67 -0.18,-3.75zm4.88 -5.23c0.94,-1.04 2.55,-1.12 3.59,-0.18 1.04,0.94 1.12,2.55 0.18,3.59 -0.94,1.04 -2.55,1.12 -3.59,0.18 -1.04,-0.94 -1.12,-2.55 -0.18,-3.59zm4.88 -5.23c0.9,-0.99 2.44,-1.07 3.43,-0.17 1,0.9 1.08,2.44 0.18,3.43 -0.91,1 -2.44,1.07 -3.44,0.17 -0.99,-0.9 -1.07,-2.43 -0.17,-3.43zm4.88 -5.23c0.86,-0.95 2.33,-1.02 3.28,-0.16 0.95,0.86 1.02,2.32 0.16,3.27 -0.86,0.95 -2.32,1.02 -3.27,0.17 -0.95,-0.86 -1.02,-2.33 -0.17,-3.28zm4.89 -5.22c0.81,-0.91 2.21,-0.98 3.11,-0.16 0.9,0.82 0.97,2.21 0.16,3.11 -0.82,0.91 -2.21,0.98 -3.12,0.16 -0.9,-0.82 -0.97,-2.21 -0.15,-3.11zm4.88 -5.23c0.77,-0.86 2.1,-0.92 2.95,-0.15 0.86,0.77 0.93,2.1 0.15,2.95 -0.77,0.86 -2.1,0.93 -2.95,0.15 -0.86,-0.77 -0.93,-2.09 -0.15,-2.95zm4.88 -5.23c0.73,-0.81 1.98,-0.87 2.8,-0.14 0.8,0.73 0.87,1.99 0.13,2.8 -0.73,0.81 -1.98,0.87 -2.79,0.13 -0.81,-0.73 -0.87,-1.98 -0.14,-2.79zm4.88 -5.23c0.69,-0.76 1.87,-0.82 2.64,-0.13 0.76,0.69 0.82,1.87 0.13,2.64 -0.69,0.76 -1.87,0.82 -2.64,0.13 -0.76,-0.69 -0.82,-1.87 -0.13,-2.64zm4.89 -5.22c0.64,-0.72 1.75,-0.78 2.47,-0.13 0.72,0.65 0.77,1.76 0.12,2.48 -0.65,0.71 -1.75,0.77 -2.47,0.12 -0.72,-0.65 -0.77,-1.75 -0.12,-2.47zm4.88 -5.23c0.6,-0.67 1.64,-0.72 2.31,-0.12 0.67,0.61 0.73,1.65 0.12,2.32 -0.61,0.67 -1.65,0.72 -2.32,0.11 -0.67,-0.6 -0.72,-1.64 -0.11,-2.31zm4.88 -5.23c0.56,-0.62 1.53,-0.67 2.16,-0.11 0.62,0.57 0.67,1.53 0.1,2.16 -0.56,0.62 -1.53,0.67 -2.15,0.11 -0.63,-0.57 -0.68,-1.53 -0.11,-2.16zm4.88 -5.23c0.52,-0.58 1.42,-0.62 2,-0.1 0.58,0.53 0.62,1.42 0.1,2 -0.53,0.58 -1.42,0.63 -2,0.1 -0.58,-0.52 -0.62,-1.42 -0.1,-2zm4.88 -5.22c0.48,-0.54 1.31,-0.58 1.84,-0.1 0.53,0.49 0.57,1.31 0.09,1.84 -0.48,0.54 -1.3,0.58 -1.84,0.09 -0.53,-0.48 -0.57,-1.3 -0.09,-1.83zm4.89 -5.23c0.43,-0.49 1.19,-0.53 1.67,-0.08 0.49,0.43 0.53,1.19 0.09,1.67 -0.44,0.49 -1.19,0.53 -1.68,0.09 -0.49,-0.45 -0.52,-1.19 -0.08,-1.68zm4.88 -5.23c0.4,-0.44 1.08,-0.47 1.52,-0.07 0.44,0.39 0.47,1.07 0.07,1.52 -0.4,0.44 -1.08,0.47 -1.52,0.07 -0.44,-0.4 -0.47,-1.08 -0.07,-1.52zm4.88 -5.23c0.35,-0.39 0.96,-0.42 1.36,-0.06 0.39,0.35 0.42,0.96 0.07,1.36 -0.36,0.39 -0.97,0.42 -1.36,0.06 -0.4,-0.35 -0.43,-0.96 -0.07,-1.36zm4.88 -5.22c0.31,-0.35 0.85,-0.38 1.2,-0.07 0.35,0.32 0.38,0.86 0.06,1.21 -0.31,0.34 -0.85,0.37 -1.2,0.05 -0.35,-0.31 -0.37,-0.85 -0.06,-1.19zm4.88 -5.23c0.28,-0.3 0.74,-0.33 1.04,-0.05 0.31,0.27 0.33,0.74 0.06,1.04 -0.28,0.3 -0.74,0.32 -1.04,0.05 -0.31,-0.27 -0.33,-0.74 -0.06,-1.04zm12.08 1.28c0.23,-0.25 0.63,-0.27 0.88,-0.04 0.26,0.23 0.28,0.62 0.05,0.88 -0.24,0.25 -0.63,0.27 -0.88,0.04 -0.26,-0.23 -0.28,-0.62 -0.05,-0.88zm-92.76 99.32c1.03,-1.13 2.78,-1.22 3.91,-0.19 1.13,1.03 1.22,2.78 0.2,3.91 -1.03,1.13 -2.78,1.22 -3.91,0.19 -1.14,-1.02 -1.22,-2.77 -0.2,-3.91zm4.88 -5.22c0.99,-1.09 2.67,-1.17 3.75,-0.19 1.09,0.98 1.18,2.66 0.19,3.75 -0.98,1.09 -2.66,1.17 -3.75,0.19 -1.09,-0.99 -1.17,-2.67 -0.19,-3.75zm4.88 -5.23c0.95,-1.04 2.56,-1.12 3.6,-0.18 1.04,0.94 1.12,2.55 0.18,3.59 -0.94,1.04 -2.55,1.12 -3.6,0.18 -1.04,-0.94 -1.12,-2.55 -0.18,-3.59zm4.89 -5.23c0.9,-0.99 2.43,-1.07 3.43,-0.17 0.99,0.9 1.07,2.44 0.17,3.43 -0.9,1 -2.44,1.07 -3.43,0.17 -1,-0.9 -1.07,-2.43 -0.17,-3.43zm4.88 -5.23c0.86,-0.95 2.32,-1.02 3.27,-0.16 0.95,0.86 1.02,2.32 0.17,3.27 -0.86,0.95 -2.33,1.03 -3.28,0.17 -0.95,-0.86 -1.02,-2.33 -0.16,-3.28zm4.88 -5.22c0.82,-0.91 2.21,-0.97 3.11,-0.16 0.91,0.82 0.98,2.21 0.16,3.11 -0.82,0.91 -2.21,0.98 -3.11,0.16 -0.9,-0.82 -0.97,-2.21 -0.16,-3.11zm4.88 -5.23c0.78,-0.86 2.1,-0.92 2.96,-0.15 0.85,0.78 0.92,2.1 0.15,2.96 -0.78,0.85 -2.1,0.92 -2.96,0.14 -0.86,-0.77 -0.92,-2.09 -0.15,-2.95zm4.89 -5.23c0.73,-0.81 1.98,-0.87 2.79,-0.14 0.81,0.74 0.87,1.99 0.14,2.8 -0.73,0.81 -1.98,0.87 -2.8,0.14 -0.8,-0.74 -0.87,-1.99 -0.13,-2.8zm4.88 -5.23c0.69,-0.76 1.87,-0.82 2.63,-0.13 0.77,0.69 0.83,1.87 0.13,2.64 -0.69,0.76 -1.87,0.82 -2.63,0.13 -0.76,-0.69 -0.82,-1.87 -0.13,-2.64zm4.88 -5.22c0.65,-0.72 1.76,-0.78 2.48,-0.13 0.71,0.65 0.77,1.76 0.12,2.48 -0.65,0.72 -1.76,0.77 -2.47,0.12 -0.72,-0.65 -0.78,-1.75 -0.13,-2.47zm4.88 -5.23c0.61,-0.67 1.65,-0.72 2.32,-0.12 0.67,0.61 0.72,1.65 0.11,2.32 -0.6,0.67 -1.64,0.72 -2.31,0.11 -0.67,-0.6 -0.73,-1.64 -0.12,-2.31zm4.88 -5.23c0.57,-0.62 1.54,-0.67 2.16,-0.11 0.63,0.57 0.68,1.53 0.11,2.16 -0.57,0.63 -1.53,0.67 -2.16,0.11 -0.62,-0.57 -0.67,-1.53 -0.11,-2.16zm4.89 -5.23c0.52,-0.58 1.41,-0.62 1.99,-0.1 0.58,0.53 0.63,1.42 0.1,2 -0.52,0.58 -1.41,0.62 -1.99,0.1 -0.58,-0.52 -0.63,-1.42 -0.1,-2zm4.88 -5.22c0.48,-0.54 1.3,-0.58 1.84,-0.1 0.53,0.49 0.57,1.31 0.09,1.84 -0.48,0.53 -1.31,0.58 -1.84,0.09 -0.53,-0.48 -0.57,-1.3 -0.09,-1.83zm4.88 -5.23c0.44,-0.49 1.19,-0.52 1.68,-0.09 0.48,0.45 0.52,1.2 0.08,1.68 -0.44,0.49 -1.19,0.53 -1.68,0.09 -0.48,-0.44 -0.52,-1.19 -0.08,-1.68zm4.88 -5.23c0.4,-0.44 1.08,-0.47 1.52,-0.08 0.44,0.4 0.48,1.08 0.08,1.53 -0.4,0.43 -1.08,0.47 -1.52,0.07 -0.44,-0.4 -0.47,-1.08 -0.08,-1.52zm4.89 -5.23c0.35,-0.39 0.96,-0.42 1.35,-0.06 0.4,0.35 0.43,0.96 0.07,1.36 -0.35,0.39 -0.96,0.42 -1.36,0.06 -0.39,-0.35 -0.42,-0.96 -0.06,-1.36zm4.88 -5.22c0.31,-0.35 0.85,-0.38 1.2,-0.06 0.34,0.31 0.37,0.85 0.06,1.2 -0.32,0.35 -0.86,0.37 -1.2,0.06 -0.35,-0.32 -0.38,-0.86 -0.06,-1.2zm4.88 -5.23c0.27,-0.3 0.74,-0.33 1.04,-0.05 0.3,0.27 0.33,0.74 0.05,1.04 -0.27,0.3 -0.74,0.32 -1.04,0.05 -0.3,-0.27 -0.32,-0.74 -0.05,-1.04zm12.08 1.28c0.23,-0.25 0.62,-0.27 0.88,-0.04 0.25,0.23 0.27,0.62 0.04,0.88 -0.23,0.25 -0.62,0.27 -0.88,0.04 -0.25,-0.23 -0.28,-0.62 -0.04,-0.88zm-92.76 99.32c1.02,-1.13 2.77,-1.22 3.91,-0.19 1.13,1.03 1.22,2.78 0.19,3.91 -1.02,1.13 -2.77,1.22 -3.91,0.19 -1.13,-1.02 -1.22,-2.77 -0.19,-3.91zm4.88 -5.22c0.98,-1.09 2.66,-1.17 3.75,-0.19 1.09,0.98 1.17,2.66 0.19,3.75 -0.99,1.09 -2.67,1.17 -3.75,0.19 -1.09,-0.99 -1.17,-2.66 -0.19,-3.75zm4.88 -5.23c0.94,-1.04 2.55,-1.12 3.59,-0.18 1.04,0.94 1.12,2.55 0.18,3.59 -0.94,1.04 -2.55,1.12 -3.59,0.18 -1.04,-0.94 -1.12,-2.55 -0.18,-3.59zm4.88 -5.23c0.9,-0.99 2.44,-1.07 3.44,-0.17 0.99,0.9 1.07,2.44 0.17,3.43 -0.9,1 -2.44,1.07 -3.44,0.17 -0.99,-0.9 -1.07,-2.43 -0.17,-3.43zm4.89 -5.22c0.85,-0.95 2.32,-1.03 3.27,-0.17 0.95,0.86 1.02,2.32 0.16,3.27 -0.86,0.95 -2.32,1.03 -3.27,0.17 -0.95,-0.86 -1.02,-2.33 -0.16,-3.27zm4.88 -5.23c0.81,-0.9 2.21,-0.98 3.11,-0.16 0.9,0.82 0.97,2.21 0.16,3.11 -0.82,0.91 -2.21,0.98 -3.12,0.16 -0.9,-0.82 -0.97,-2.21 -0.15,-3.11zm4.88 -5.23c0.77,-0.86 2.1,-0.92 2.95,-0.15 0.86,0.77 0.93,2.1 0.15,2.96 -0.77,0.85 -2.1,0.92 -2.95,0.14 -0.86,-0.77 -0.93,-2.09 -0.15,-2.95zm4.88 -5.23c0.73,-0.81 1.99,-0.87 2.8,-0.14 0.81,0.73 0.87,1.99 0.13,2.8 -0.73,0.81 -1.98,0.87 -2.79,0.13 -0.81,-0.73 -0.87,-1.98 -0.14,-2.79zm4.89 -5.23c0.69,-0.76 1.86,-0.82 2.63,-0.13 0.76,0.69 0.82,1.87 0.13,2.64 -0.69,0.76 -1.87,0.82 -2.64,0.13 -0.76,-0.69 -0.82,-1.87 -0.12,-2.64zm4.88 -5.22c0.65,-0.72 1.75,-0.78 2.47,-0.13 0.72,0.65 0.77,1.76 0.12,2.48 -0.64,0.72 -1.75,0.77 -2.47,0.12 -0.72,-0.65 -0.77,-1.76 -0.12,-2.47zm4.88 -5.23c0.6,-0.67 1.64,-0.73 2.31,-0.12 0.68,0.61 0.73,1.65 0.12,2.32 -0.61,0.67 -1.64,0.72 -2.32,0.12 -0.67,-0.61 -0.72,-1.65 -0.11,-2.32zm4.88 -5.23c0.56,-0.63 1.53,-0.67 2.16,-0.11 0.62,0.57 0.67,1.54 0.1,2.16 -0.56,0.63 -1.53,0.67 -2.15,0.11 -0.63,-0.57 -0.68,-1.53 -0.11,-2.16zm4.88 -5.23c0.53,-0.57 1.42,-0.62 2,-0.1 0.58,0.53 0.62,1.42 0.1,2 -0.53,0.58 -1.42,0.63 -2,0.1 -0.58,-0.52 -0.62,-1.42 -0.1,-2zm4.88 -5.22c0.49,-0.54 1.31,-0.58 1.84,-0.1 0.54,0.49 0.58,1.31 0.09,1.84 -0.48,0.54 -1.3,0.58 -1.84,0.09 -0.53,-0.48 -0.57,-1.3 -0.09,-1.83zm4.89 -5.23c0.44,-0.49 1.19,-0.52 1.67,-0.09 0.49,0.45 0.53,1.2 0.09,1.68 -0.44,0.49 -1.19,0.53 -1.68,0.09 -0.49,-0.44 -0.53,-1.2 -0.08,-1.68zm4.88 -5.23c0.4,-0.44 1.08,-0.47 1.52,-0.08 0.44,0.4 0.47,1.09 0.07,1.52 -0.39,0.45 -1.07,0.48 -1.52,0.08 -0.44,-0.4 -0.47,-1.08 -0.07,-1.52zm4.88 -5.23c0.36,-0.39 0.97,-0.42 1.36,-0.06 0.4,0.35 0.42,0.96 0.07,1.35 -0.36,0.4 -0.97,0.43 -1.36,0.07 -0.4,-0.35 -0.43,-0.96 -0.07,-1.36zm4.88 -5.22c0.32,-0.35 0.86,-0.38 1.2,-0.06 0.35,0.31 0.38,0.85 0.06,1.2 -0.31,0.34 -0.85,0.37 -1.2,0.06 -0.35,-0.32 -0.37,-0.86 -0.06,-1.2zm4.88 -5.23c0.28,-0.3 0.74,-0.33 1.05,-0.05 0.3,0.27 0.32,0.74 0.05,1.04 -0.28,0.3 -0.74,0.32 -1.04,0.05 -0.3,-0.27 -0.33,-0.74 -0.06,-1.04zm12.08 1.28c0.23,-0.25 0.63,-0.27 0.88,-0.04 0.26,0.23 0.28,0.63 0.05,0.88 -0.23,0.25 -0.63,0.28 -0.88,0.04 -0.26,-0.23 -0.28,-0.62 -0.05,-0.88zm-87.88 94.1c0.99,-1.09 2.67,-1.17 3.76,-0.19 1.08,0.98 1.17,2.66 0.18,3.75 -0.98,1.09 -2.66,1.17 -3.75,0.19 -1.09,-0.99 -1.17,-2.66 -0.19,-3.75zm4.89 -5.23c0.94,-1.04 2.54,-1.12 3.59,-0.18 1.04,0.94 1.12,2.55 0.18,3.59 -0.94,1.04 -2.55,1.12 -3.59,0.18 -1.04,-0.94 -1.12,-2.55 -0.18,-3.59zm4.88 -5.23c0.9,-0.99 2.44,-1.07 3.43,-0.17 1,0.9 1.07,2.44 0.17,3.43 -0.9,1 -2.43,1.08 -3.43,0.17 -0.99,-0.9 -1.07,-2.43 -0.17,-3.43zm4.88 -5.23c0.86,-0.94 2.32,-1.02 3.27,-0.16 0.95,0.86 1.03,2.33 0.17,3.27 -0.86,0.95 -2.33,1.03 -3.28,0.17 -0.94,-0.86 -1.02,-2.33 -0.16,-3.28zm4.88 -5.22c0.82,-0.9 2.21,-0.97 3.12,-0.16 0.9,0.82 0.97,2.21 0.15,3.12 -0.81,0.9 -2.21,0.97 -3.11,0.15 -0.9,-0.82 -0.97,-2.21 -0.16,-3.11zm4.88 -5.23c0.78,-0.86 2.1,-0.92 2.96,-0.15 0.86,0.78 0.92,2.1 0.15,2.96 -0.78,0.85 -2.1,0.92 -2.96,0.14 -0.85,-0.77 -0.92,-2.09 -0.15,-2.95zm4.89 -5.23c0.73,-0.81 1.98,-0.87 2.79,-0.14 0.81,0.74 0.87,1.99 0.14,2.8 -0.73,0.81 -1.98,0.87 -2.79,0.14 -0.81,-0.74 -0.88,-1.99 -0.14,-2.8zm4.88 -5.22c0.69,-0.77 1.87,-0.83 2.64,-0.14 0.76,0.69 0.82,1.87 0.12,2.64 -0.69,0.76 -1.86,0.82 -2.63,0.13 -0.76,-0.69 -0.82,-1.87 -0.13,-2.63zm4.88 -5.23c0.65,-0.72 1.76,-0.77 2.48,-0.13 0.71,0.65 0.77,1.76 0.12,2.48 -0.65,0.72 -1.76,0.77 -2.47,0.12 -0.72,-0.65 -0.78,-1.75 -0.13,-2.47zm4.88 -5.23c0.61,-0.67 1.65,-0.72 2.32,-0.12 0.67,0.61 0.72,1.65 0.12,2.32 -0.61,0.67 -1.65,0.72 -2.32,0.12 -0.67,-0.61 -0.72,-1.65 -0.12,-2.32zm4.89 -5.23c0.56,-0.62 1.53,-0.67 2.15,-0.11 0.63,0.57 0.68,1.53 0.11,2.16 -0.57,0.63 -1.53,0.67 -2.16,0.11 -0.62,-0.57 -0.67,-1.53 -0.1,-2.16zm4.88 -5.23c0.52,-0.57 1.42,-0.62 1.99,-0.1 0.58,0.53 0.63,1.42 0.1,2 -0.52,0.58 -1.41,0.63 -1.99,0.1 -0.58,-0.52 -0.63,-1.42 -0.1,-2zm4.88 -5.22c0.48,-0.54 1.3,-0.58 1.84,-0.09 0.53,0.48 0.57,1.3 0.09,1.83 -0.48,0.54 -1.31,0.58 -1.84,0.09 -0.53,-0.48 -0.57,-1.3 -0.09,-1.83zm4.88 -5.23c0.44,-0.49 1.19,-0.52 1.68,-0.08 0.49,0.44 0.52,1.19 0.08,1.67 -0.44,0.49 -1.19,0.53 -1.67,0.09 -0.49,-0.44 -0.53,-1.19 -0.09,-1.68zm4.88 -5.23c0.4,-0.44 1.08,-0.47 1.52,-0.07 0.44,0.4 0.48,1.08 0.08,1.52 -0.4,0.44 -1.08,0.47 -1.52,0.07 -0.44,-0.4 -0.47,-1.08 -0.08,-1.52zm4.89 -5.23c0.35,-0.39 0.96,-0.42 1.36,-0.06 0.39,0.35 0.42,0.96 0.06,1.36 -0.35,0.39 -0.96,0.42 -1.36,0.07 -0.39,-0.36 -0.42,-0.97 -0.06,-1.37zm4.88 -5.22c0.31,-0.35 0.85,-0.38 1.2,-0.06 0.35,0.31 0.37,0.85 0.06,1.2 -0.32,0.34 -0.86,0.37 -1.2,0.06 -0.35,-0.32 -0.38,-0.85 -0.06,-1.2zm4.88 -5.23c0.27,-0.3 0.74,-0.33 1.04,-0.05 0.3,0.27 0.33,0.74 0.05,1.04 -0.27,0.3 -0.74,0.32 -1.04,0.05 -0.3,-0.27 -0.32,-0.74 -0.05,-1.04zm12.08 1.28c0.23,-0.25 0.62,-0.27 0.88,-0.04 0.26,0.23 0.27,0.62 0.04,0.88 -0.23,0.26 -0.62,0.28 -0.88,0.04 -0.26,-0.23 -0.27,-0.62 -0.04,-0.88zm-83 88.87c0.94,-1.04 2.55,-1.12 3.59,-0.18 1.05,0.94 1.13,2.55 0.18,3.59 -0.94,1.04 -2.55,1.12 -3.59,0.18 -1.04,-0.94 -1.12,-2.55 -0.18,-3.59zm4.89 -5.23c0.89,-0.99 2.43,-1.07 3.43,-0.17 0.99,0.9 1.07,2.44 0.17,3.43 -0.9,1 -2.44,1.07 -3.43,0.18 -1,-0.9 -1.08,-2.44 -0.17,-3.44zm4.88 -5.23c0.85,-0.94 2.32,-1.02 3.27,-0.16 0.95,0.86 1.02,2.33 0.16,3.27 -0.86,0.95 -2.32,1.03 -3.27,0.17 -0.95,-0.86 -1.02,-2.33 -0.16,-3.28zm4.88 -5.22c0.81,-0.91 2.21,-0.97 3.11,-0.16 0.9,0.82 0.97,2.21 0.16,3.12 -0.82,0.9 -2.21,0.97 -3.11,0.15 -0.91,-0.82 -0.98,-2.21 -0.16,-3.11zm4.88 -5.23c0.78,-0.86 2.1,-0.92 2.95,-0.15 0.86,0.78 0.93,2.1 0.15,2.96 -0.77,0.85 -2.1,0.92 -2.95,0.14 -0.86,-0.77 -0.92,-2.09 -0.15,-2.95zm4.88 -5.23c0.74,-0.81 1.99,-0.87 2.8,-0.14 0.81,0.74 0.87,1.99 0.14,2.8 -0.74,0.81 -1.99,0.87 -2.8,0.14 -0.81,-0.74 -0.87,-1.99 -0.14,-2.8zm4.88 -5.22c0.7,-0.77 1.88,-0.83 2.64,-0.14 0.76,0.7 0.82,1.87 0.13,2.64 -0.69,0.76 -1.87,0.82 -2.63,0.13 -0.77,-0.69 -0.83,-1.87 -0.14,-2.63zm4.89 -5.23c0.65,-0.72 1.75,-0.78 2.47,-0.13 0.72,0.65 0.77,1.76 0.13,2.48 -0.65,0.72 -1.76,0.77 -2.48,0.12 -0.72,-0.65 -0.77,-1.75 -0.12,-2.47zm4.88 -5.23c0.61,-0.67 1.64,-0.72 2.32,-0.12 0.67,0.61 0.72,1.65 0.11,2.32 -0.61,0.67 -1.64,0.72 -2.32,0.12 -0.67,-0.61 -0.72,-1.65 -0.11,-2.32zm4.88 -5.23c0.57,-0.62 1.53,-0.67 2.16,-0.1 0.62,0.56 0.67,1.53 0.11,2.15 -0.57,0.63 -1.54,0.68 -2.16,0.11 -0.63,-0.57 -0.67,-1.53 -0.11,-2.16zm4.88 -5.23c0.53,-0.57 1.42,-0.62 2,-0.1 0.58,0.53 0.62,1.42 0.1,2 -0.52,0.58 -1.42,0.63 -2,0.1 -0.58,-0.52 -0.62,-1.42 -0.1,-2zm4.88 -5.22c0.49,-0.54 1.31,-0.58 1.84,-0.09 0.54,0.48 0.58,1.3 0.09,1.83 -0.48,0.54 -1.3,0.58 -1.83,0.09 -0.54,-0.48 -0.58,-1.3 -0.1,-1.83zm4.89 -5.23c0.44,-0.49 1.19,-0.53 1.68,-0.08 0.48,0.44 0.52,1.19 0.08,1.67 -0.44,0.49 -1.19,0.53 -1.68,0.09 -0.49,-0.44 -0.52,-1.19 -0.08,-1.68zm4.88 -5.23c0.4,-0.44 1.08,-0.47 1.52,-0.07 0.44,0.4 0.47,1.07 0.07,1.52 -0.39,0.43 -1.07,0.47 -1.52,0.07 -0.44,-0.4 -0.47,-1.08 -0.07,-1.52zm4.88 -5.23c0.36,-0.39 0.97,-0.42 1.36,-0.06 0.39,0.35 0.43,0.96 0.07,1.36 -0.36,0.39 -0.97,0.42 -1.36,0.06 -0.4,-0.35 -0.43,-0.96 -0.07,-1.36zm4.88 -5.22c0.32,-0.35 0.86,-0.38 1.2,-0.06 0.35,0.31 0.38,0.85 0.06,1.2 -0.31,0.35 -0.85,0.37 -1.2,0.06 -0.35,-0.32 -0.37,-0.85 -0.06,-1.2zm4.89 -5.23c0.27,-0.3 0.73,-0.33 1.04,-0.05 0.3,0.27 0.32,0.74 0.05,1.04 -0.27,0.3 -0.74,0.32 -1.04,0.05 -0.3,-0.27 -0.33,-0.74 -0.05,-1.04zm-66.04 84.92c0.9,-0.99 2.44,-1.07 3.43,-0.17 1,0.9 1.07,2.44 0.17,3.43 -0.9,1 -2.43,1.08 -3.43,0.17 -0.99,-0.89 -1.07,-2.43 -0.17,-3.43zm4.88 -5.23c0.86,-0.94 2.32,-1.02 3.27,-0.16 0.95,0.86 1.03,2.33 0.17,3.27 -0.86,0.95 -2.33,1.03 -3.27,0.17 -0.95,-0.86 -1.03,-2.32 -0.17,-3.28zm4.89 -5.22c0.81,-0.9 2.2,-0.97 3.11,-0.16 0.9,0.82 0.97,2.21 0.15,3.12 -0.81,0.9 -2.21,0.97 -3.11,0.15 -0.9,-0.82 -0.97,-2.21 -0.15,-3.11zm4.88 -5.23c0.77,-0.86 2.09,-0.92 2.95,-0.15 0.85,0.78 0.92,2.1 0.15,2.96 -0.78,0.85 -2.1,0.92 -2.96,0.15 -0.85,-0.78 -0.92,-2.1 -0.14,-2.96zm4.88 -5.23c0.73,-0.81 1.98,-0.87 2.79,-0.14 0.81,0.74 0.87,1.99 0.14,2.8 -0.73,0.81 -1.98,0.87 -2.79,0.14 -0.81,-0.74 -0.87,-1.99 -0.14,-2.8zm4.88 -5.22c0.69,-0.77 1.87,-0.83 2.63,-0.14 0.77,0.69 0.83,1.87 0.14,2.64 -0.7,0.76 -1.87,0.82 -2.64,0.13 -0.76,-0.69 -0.82,-1.87 -0.13,-2.63zm4.88 -5.23c0.65,-0.72 1.76,-0.77 2.48,-0.13 0.72,0.65 0.77,1.76 0.12,2.48 -0.65,0.72 -1.76,0.77 -2.47,0.12 -0.72,-0.65 -0.78,-1.75 -0.13,-2.47zm4.88 -5.23c0.61,-0.67 1.65,-0.72 2.32,-0.12 0.67,0.61 0.72,1.65 0.12,2.32 -0.61,0.67 -1.65,0.72 -2.32,0.12 -0.67,-0.61 -0.72,-1.65 -0.12,-2.32zm4.89 -5.23c0.56,-0.62 1.53,-0.67 2.15,-0.1 0.63,0.56 0.68,1.53 0.11,2.15 -0.56,0.63 -1.53,0.68 -2.16,0.11 -0.62,-0.57 -0.67,-1.53 -0.1,-2.16zm4.88 -5.22c0.52,-0.58 1.42,-0.63 2,-0.1 0.57,0.52 0.62,1.41 0.1,1.99 -0.53,0.58 -1.42,0.63 -2,0.1 -0.58,-0.52 -0.63,-1.42 -0.1,-1.99zm4.88 -5.23c0.48,-0.54 1.31,-0.58 1.84,-0.09 0.53,0.48 0.57,1.3 0.09,1.84 -0.48,0.53 -1.3,0.57 -1.84,0.09 -0.53,-0.49 -0.57,-1.31 -0.09,-1.84zm4.88 -5.23c0.44,-0.48 1.2,-0.52 1.68,-0.08 0.49,0.44 0.52,1.19 0.08,1.67 -0.44,0.49 -1.19,0.53 -1.67,0.09 -0.49,-0.44 -0.53,-1.19 -0.09,-1.68zm4.88 -5.23c0.4,-0.44 1.08,-0.47 1.52,-0.07 0.44,0.4 0.48,1.07 0.08,1.51 -0.4,0.45 -1.08,0.48 -1.52,0.08 -0.44,-0.4 -0.47,-1.08 -0.08,-1.52zm4.89 -5.23c0.35,-0.39 0.96,-0.42 1.36,-0.06 0.39,0.35 0.42,0.96 0.06,1.36 -0.35,0.39 -0.96,0.42 -1.36,0.06 -0.39,-0.35 -0.42,-0.96 -0.06,-1.36zm4.88 -5.22c0.32,-0.35 0.85,-0.38 1.2,-0.06 0.35,0.31 0.37,0.85 0.06,1.2 -0.32,0.35 -0.85,0.37 -1.2,0.06 -0.35,-0.32 -0.38,-0.86 -0.06,-1.2zm4.88 -5.23c0.27,-0.3 0.74,-0.32 1.04,-0.05 0.3,0.27 0.33,0.74 0.05,1.04 -0.27,0.3 -0.74,0.32 -1.04,0.05 -0.3,-0.27 -0.32,-0.74 -0.05,-1.04zm-61.15 79.7c0.86,-0.95 2.32,-1.03 3.27,-0.17 0.95,0.86 1.02,2.33 0.16,3.27 -0.85,0.95 -2.32,1.03 -3.27,0.17 -0.95,-0.86 -1.02,-2.33 -0.16,-3.27zm4.88 -5.23c0.81,-0.9 2.21,-0.97 3.11,-0.16 0.9,0.82 0.98,2.21 0.16,3.12 -0.82,0.9 -2.21,0.97 -3.12,0.15 -0.9,-0.81 -0.97,-2.21 -0.15,-3.11zm4.88 -5.23c0.78,-0.86 2.1,-0.92 2.95,-0.15 0.86,0.78 0.93,2.1 0.15,2.96 -0.77,0.85 -2.09,0.92 -2.95,0.14 -0.86,-0.77 -0.93,-2.09 -0.15,-2.95zm4.88 -5.23c0.74,-0.81 1.99,-0.87 2.8,-0.14 0.81,0.74 0.87,1.99 0.14,2.8 -0.74,0.81 -1.99,0.87 -2.8,0.14 -0.81,-0.74 -0.87,-1.99 -0.14,-2.8zm4.89 -5.22c0.69,-0.77 1.87,-0.83 2.63,-0.14 0.76,0.7 0.82,1.87 0.13,2.64 -0.69,0.76 -1.87,0.82 -2.63,0.13 -0.77,-0.69 -0.83,-1.87 -0.13,-2.63zm4.88 -5.23c0.65,-0.72 1.75,-0.77 2.47,-0.13 0.72,0.66 0.78,1.76 0.13,2.48 -0.65,0.72 -1.76,0.77 -2.48,0.12 -0.72,-0.65 -0.77,-1.75 -0.12,-2.47zm4.88 -5.23c0.61,-0.67 1.64,-0.72 2.32,-0.11 0.67,0.6 0.72,1.64 0.11,2.31 -0.61,0.67 -1.64,0.72 -2.32,0.12 -0.66,-0.61 -0.72,-1.65 -0.11,-2.32zm4.88 -5.23c0.57,-0.62 1.53,-0.67 2.16,-0.11 0.62,0.57 0.67,1.54 0.11,2.16 -0.57,0.63 -1.54,0.68 -2.16,0.11 -0.63,-0.57 -0.67,-1.53 -0.11,-2.16zm4.88 -5.23c0.53,-0.57 1.42,-0.62 2,-0.09 0.58,0.52 0.62,1.42 0.1,1.99 -0.52,0.58 -1.42,0.63 -2,0.1 -0.58,-0.52 -0.62,-1.41 -0.1,-2zm4.88 -5.22c0.49,-0.53 1.31,-0.58 1.84,-0.09 0.54,0.48 0.58,1.3 0.1,1.83 -0.49,0.54 -1.31,0.58 -1.84,0.1 -0.53,-0.48 -0.58,-1.31 -0.1,-1.84zm4.89 -5.23c0.44,-0.49 1.19,-0.52 1.68,-0.08 0.48,0.44 0.52,1.19 0.08,1.67 -0.44,0.49 -1.19,0.53 -1.68,0.09 -0.48,-0.44 -0.52,-1.19 -0.08,-1.68zm4.88 -5.23c0.4,-0.44 1.08,-0.47 1.52,-0.07 0.44,0.39 0.47,1.08 0.08,1.52 -0.4,0.44 -1.08,0.47 -1.52,0.07 -0.44,-0.4 -0.48,-1.08 -0.08,-1.52zm4.88 -5.22c0.36,-0.4 0.97,-0.43 1.36,-0.07 0.4,0.35 0.43,0.96 0.07,1.36 -0.36,0.39 -0.97,0.42 -1.36,0.06 -0.39,-0.35 -0.43,-0.96 -0.07,-1.35zm4.88 -5.23c0.32,-0.35 0.86,-0.38 1.21,-0.06 0.34,0.31 0.37,0.85 0.05,1.2 -0.31,0.35 -0.85,0.37 -1.2,0.06 -0.34,-0.32 -0.37,-0.85 -0.06,-1.2zm-46.5 64.01c0.77,-0.86 2.09,-0.92 2.95,-0.15 0.86,0.78 0.92,2.1 0.15,2.96 -0.78,0.86 -2.1,0.92 -2.96,0.15 -0.85,-0.78 -0.92,-2.1 -0.14,-2.96zm4.88 -5.23c0.73,-0.81 1.98,-0.87 2.79,-0.14 0.81,0.74 0.87,1.99 0.14,2.8 -0.73,0.81 -1.98,0.87 -2.79,0.14 -0.81,-0.73 -0.87,-1.99 -0.14,-2.8zm4.88 -5.22c0.69,-0.77 1.87,-0.83 2.64,-0.13 0.76,0.69 0.82,1.87 0.13,2.63 -0.69,0.76 -1.87,0.82 -2.64,0.13 -0.76,-0.69 -0.82,-1.87 -0.13,-2.63zm4.88 -5.23c0.65,-0.72 1.76,-0.77 2.48,-0.13 0.72,0.65 0.77,1.76 0.12,2.48 -0.65,0.72 -1.75,0.77 -2.47,0.12 -0.72,-0.65 -0.78,-1.75 -0.13,-2.47zm4.89 -5.23c0.6,-0.67 1.64,-0.72 2.31,-0.12 0.67,0.61 0.73,1.65 0.12,2.32 -0.61,0.67 -1.65,0.72 -2.32,0.12 -0.67,-0.61 -0.72,-1.65 -0.11,-2.32zm4.88 -5.23c0.56,-0.62 1.53,-0.67 2.15,-0.1 0.63,0.56 0.68,1.53 0.11,2.15 -0.56,0.63 -1.53,0.68 -2.15,0.11 -0.63,-0.57 -0.68,-1.53 -0.11,-2.16zm4.88 -5.22c0.52,-0.58 1.42,-0.63 2,-0.1 0.58,0.52 0.62,1.42 0.1,1.99 -0.53,0.58 -1.42,0.63 -2,0.1 -0.58,-0.52 -0.62,-1.42 -0.1,-1.99zm4.88 -5.23c0.48,-0.54 1.31,-0.57 1.84,-0.09 0.53,0.48 0.57,1.3 0.09,1.83 -0.48,0.54 -1.3,0.58 -1.84,0.1 -0.53,-0.49 -0.57,-1.31 -0.09,-1.84zm4.88 -5.23c0.44,-0.48 1.19,-0.52 1.68,-0.08 0.49,0.44 0.53,1.19 0.09,1.67 -0.44,0.49 -1.19,0.53 -1.68,0.09 -0.49,-0.44 -0.53,-1.19 -0.09,-1.68z"/>
  <g id="_1793822801760">
   <path class="fil2" d="M49.05 40.7c-2.09,-4.64 -4.29,-4.73 -6.26,-4.73 -1.63,-0.07 -3.48,-0.07 -5.34,-0.07 -1.86,0 -4.87,0.7 -7.42,3.48 -2.56,2.78 -9.74,9.51 -9.74,23.18 0,13.68 9.97,26.91 11.36,28.76 1.39,1.86 19.25,30.84 47.54,41.98 23.54,9.28 28.3,7.42 33.4,6.95 5.1,-0.46 16.46,-6.73 18.78,-13.22 2.32,-6.49 2.32,-12.05 1.63,-13.22 -0.7,-1.16 -2.56,-1.85 -5.34,-3.24 -2.79,-1.39 -16.47,-8.12 -19.02,-9.05 -2.55,-0.92 -4.41,-1.39 -6.26,1.39 -1.85,2.78 -7.19,9.05 -8.81,10.9 -1.62,1.86 -3.25,2.09 -6.03,0.7 -2.79,-1.39 -11.6,-4.29 -22.04,-13.57 -8.12,-7.3 -13.56,-16.34 -15.18,-19.13 -1.63,-2.78 -0.18,-4.29 1.21,-5.68 1.25,-1.25 2.79,-3.25 4.18,-4.87 1.39,-1.62 1.85,-2.78 2.78,-4.64 0.92,-1.86 0.46,-3.48 -0.23,-4.87 -0.7,-1.39 -6.03,-15.07 -8.53,-20.64l-0.68 -0.41z"/>
   <g style="clip-path:url(#id0)">
   </g>
   <path id="_1" class="fil3" d="M49.05 40.7c-2.09,-4.64 -4.29,-4.73 -6.26,-4.73 -1.63,-0.07 -3.48,-0.07 -5.34,-0.07 -1.86,0 -4.87,0.7 -7.42,3.48 -2.56,2.78 -9.74,9.51 -9.74,23.18 0,13.68 9.97,26.91 11.36,28.76 1.39,1.86 19.25,30.84 47.54,41.98 23.54,9.28 28.3,7.42 33.4,6.95 5.1,-0.46 16.46,-6.73 18.78,-13.22 2.32,-6.49 2.32,-12.05 1.63,-13.22 -0.7,-1.16 -2.56,-1.85 -5.34,-3.24 -2.79,-1.39 -16.47,-8.12 -19.02,-9.05 -2.55,-0.92 -4.41,-1.39 -6.26,1.39 -1.85,2.78 -7.19,9.05 -8.81,10.9 -1.62,1.86 -3.25,2.09 -6.03,0.7 -2.79,-1.39 -11.6,-4.29 -22.04,-13.57 -8.12,-7.3 -13.56,-16.34 -15.18,-19.13 -1.63,-2.78 -0.18,-4.29 1.21,-5.68 1.25,-1.25 2.79,-3.25 4.18,-4.87 1.39,-1.62 1.85,-2.78 2.78,-4.64 0.92,-1.86 0.46,-3.48 -0.23,-4.87 -0.7,-1.39 -6.03,-15.07 -8.53,-20.64l-0.68 -0.41z"/>
   <path class="fil4" d="M46 43.97c-2.09,-4.64 -4.29,-4.73 -6.26,-4.73 -1.63,-0.07 -3.48,-0.07 -5.34,-0.07 -1.86,0 -4.87,0.69 -7.42,3.48 -2.56,2.78 -9.74,9.51 -9.74,23.18 0,13.68 9.97,26.91 11.36,28.76 1.39,1.86 19.25,30.84 47.54,41.98 23.54,9.28 28.3,7.42 33.4,6.95 5.1,-0.46 16.46,-6.73 18.78,-13.22 2.32,-6.49 2.32,-12.06 1.63,-13.22 -0.7,-1.16 -2.56,-1.85 -5.34,-3.24 -2.79,-1.4 -16.47,-8.12 -19.01,-9.05 -2.56,-0.93 -4.42,-1.39 -6.26,1.39 -1.86,2.78 -7.2,9.05 -8.82,10.9 -1.62,1.86 -3.25,2.09 -6.03,0.7 -2.79,-1.39 -11.6,-4.29 -22.04,-13.57 -8.12,-7.3 -13.56,-16.35 -15.18,-19.13 -1.63,-2.78 -0.18,-4.29 1.21,-5.68 1.25,-1.25 2.79,-3.25 4.18,-4.87 1.39,-1.62 1.85,-2.78 2.78,-4.64 0.92,-1.86 0.46,-3.48 -0.23,-4.87 -0.7,-1.39 -6.03,-15.08 -8.52,-20.64l-0.69 -0.41z"/>
   <g style="clip-path:url(#id1)">
   </g>
   <path id="_1_0" class="fil3 str1" d="M46 43.97c-2.09,-4.64 -4.29,-4.73 -6.26,-4.73 -1.63,-0.07 -3.48,-0.07 -5.34,-0.07 -1.86,0 -4.87,0.69 -7.42,3.48 -2.56,2.78 -9.74,9.51 -9.74,23.18 0,13.68 9.97,26.91 11.36,28.76 1.39,1.86 19.25,30.84 47.54,41.98 23.54,9.28 28.3,7.42 33.4,6.95 5.1,-0.46 16.46,-6.73 18.78,-13.22 2.32,-6.49 2.32,-12.06 1.63,-13.22 -0.7,-1.16 -2.56,-1.85 -5.34,-3.24 -2.79,-1.4 -16.47,-8.12 -19.01,-9.05 -2.56,-0.93 -4.42,-1.39 -6.26,1.39 -1.86,2.78 -7.2,9.05 -8.82,10.9 -1.62,1.86 -3.25,2.09 -6.03,0.7 -2.79,-1.39 -11.6,-4.29 -22.04,-13.57 -8.12,-7.3 -13.56,-16.35 -15.18,-19.13 -1.63,-2.78 -0.18,-4.29 1.21,-5.68 1.25,-1.25 2.79,-3.25 4.18,-4.87 1.39,-1.62 1.85,-2.78 2.78,-4.64 0.92,-1.86 0.46,-3.48 -0.23,-4.87 -0.7,-1.39 -6.03,-15.08 -8.52,-20.64l-0.69 -0.41z"/>
  </g>
 </g>
</svg>
